<svg width="20" height="20" viewBox="0 0 20 20" fill="none" xmlns="http://www.w3.org/2000/svg">
<path d="M17.7778 8.88888H4.90498L10.7855 3.00777C10.9879 2.79821 11.0999 2.51754 11.0974 2.22621C11.0949 1.93488 10.978 1.6562 10.772 1.45019C10.566 1.24418 10.2873 1.12733 9.99599 1.1248C9.70466 1.12227 9.42399 1.23426 9.21443 1.43666L1.43665 9.21443C1.22835 9.4228 1.11133 9.70536 1.11133 9.99999C1.11133 10.2946 1.22835 10.5772 1.43665 10.7855L9.21443 18.5633C9.42399 18.7657 9.70466 18.8777 9.99599 18.8752C10.2873 18.8727 10.566 18.7558 10.772 18.5498C10.978 18.3438 11.0949 18.0651 11.0974 17.7738C11.0999 17.4824 10.9879 17.2018 10.7855 16.9922L4.90498 11.1111H17.7778C18.0725 11.1111 18.3551 10.994 18.5634 10.7857C18.7718 10.5773 18.8889 10.2947 18.8889 9.99999C18.8889 9.70531 18.7718 9.42269 18.5634 9.21432C18.3551 9.00594 18.0725 8.88888 17.7778 8.88888Z" fill="black"/>
</svg>
