<svg width="28" height="28" viewBox="0 0 28 28" fill="none" xmlns="http://www.w3.org/2000/svg">
<path d="M4.71872 4.71876C6.55434 2.88333 8.89299 1.63342 11.439 1.1271C13.9849 0.620779 16.6238 0.880776 19.0221 1.87422C21.4203 2.86765 23.47 4.54992 24.9122 6.70829C26.3543 8.86665 27.124 11.4042 27.124 14C27.124 16.5958 26.3543 19.1334 24.9122 21.2917C23.47 23.4501 21.4203 25.1324 19.0221 26.1258C16.6238 27.1192 13.9849 27.3792 11.439 26.8729C8.89299 26.3666 6.55434 25.1167 4.71872 23.2813C3.49981 22.0625 2.53291 20.6155 1.87323 19.023C1.21356 17.4305 0.874022 15.7237 0.874022 14C0.874022 12.2763 1.21356 10.5695 1.87323 8.97698C2.53291 7.38449 3.49981 5.93754 4.71872 4.71876ZM9.31247 17.3188C9.2188 17.4064 9.14414 17.5124 9.09309 17.6302C9.04204 17.7479 9.0157 17.8748 9.0157 18.0031C9.0157 18.1314 9.04204 18.2584 9.09309 18.3761C9.14414 18.4938 9.2188 18.5998 9.31247 18.6875C9.40007 18.7744 9.50396 18.8431 9.61818 18.8898C9.7324 18.9364 9.85471 18.9601 9.97809 18.9594C10.224 18.9583 10.4597 18.8607 10.6343 18.6875L14 15.3219L17.3187 18.6875C17.4933 18.8607 17.729 18.9583 17.975 18.9594C18.0984 18.9601 18.2207 18.9364 18.3349 18.8898C18.4491 18.8431 18.553 18.7744 18.6406 18.6875C18.8152 18.5119 18.9132 18.2742 18.9132 18.0266C18.9132 17.7789 18.8152 17.5413 18.6406 17.3656L15.3218 14L18.6406 10.6813C18.7942 10.5019 18.8744 10.2712 18.8653 10.0353C18.8562 9.79932 18.7584 9.5755 18.5914 9.40854C18.4245 9.24158 18.2007 9.14376 17.9647 9.13465C17.7288 9.12554 17.4981 9.20579 17.3187 9.35938L14 12.6781L10.6812 9.35938C10.5944 9.26951 10.4908 9.19761 10.3762 9.14779C10.2616 9.09798 10.1383 9.07122 10.0134 9.06904C9.88849 9.06686 9.76437 9.08931 9.64812 9.13511C9.53187 9.1809 9.42578 9.24915 9.33591 9.33594C9.24603 9.42274 9.17414 9.52639 9.12432 9.64097C9.0745 9.75555 9.04774 9.87882 9.04556 10.0037C9.04339 10.1287 9.06584 10.2528 9.11164 10.369C9.15743 10.4853 9.22567 10.5914 9.31247 10.6813L12.6781 14L9.31247 17.3188Z" fill="#DDDDDD"/>
</svg>
