<svg width="18" height="18" viewBox="0 0 18 18" fill="none" xmlns="http://www.w3.org/2000/svg">
<path d="M3.43084 3.43125C4.53221 2.33 5.9354 1.58005 7.46298 1.27626C8.99056 0.972467 10.5739 1.12847 12.0128 1.72453C13.4518 2.32059 14.6816 3.32995 15.5469 4.62497C16.4122 5.91999 16.874 7.44251 16.874 9C16.874 10.5575 16.4122 12.08 15.5469 13.375C14.6816 14.6701 13.4518 15.6794 12.0128 16.2755C10.5739 16.8715 8.99056 17.0275 7.46298 16.7237C5.9354 16.42 4.53221 15.67 3.43084 14.5688C2.69949 13.8375 2.11935 12.9693 1.72355 12.0138C1.32774 11.0583 1.12402 10.0342 1.12402 9C1.12402 7.96578 1.32774 6.94168 1.72355 5.98619C2.11935 5.03069 2.69949 4.16253 3.43084 3.43125ZM6.18709 10.9913C6.13089 11.0439 6.08609 11.1075 6.05546 11.1781C6.02483 11.2487 6.00903 11.3249 6.00903 11.4019C6.00903 11.4789 6.02483 11.555 6.05546 11.6257C6.08609 11.6963 6.13089 11.7599 6.18709 11.8125C6.23965 11.8646 6.30198 11.9059 6.37052 11.9339C6.43905 11.9619 6.51244 11.9761 6.58647 11.9756C6.73403 11.975 6.87544 11.9164 6.98022 11.8125L8.99959 9.79313L10.9908 11.8125C11.0956 11.9164 11.237 11.975 11.3846 11.9756C11.4586 11.9761 11.532 11.9619 11.6005 11.9339C11.6691 11.9059 11.7314 11.8646 11.784 11.8125C11.8887 11.7071 11.9475 11.5645 11.9475 11.4159C11.9475 11.2673 11.8887 11.1248 11.784 11.0194L9.79272 9L11.784 7.00875C11.8761 6.90115 11.9243 6.76273 11.9188 6.62116C11.9133 6.47959 11.8546 6.3453 11.7545 6.24512C11.6543 6.14495 11.52 6.08626 11.3784 6.08079C11.2369 6.07532 11.0984 6.12348 10.9908 6.21563L8.99959 8.20688L7.00834 6.21563C6.95626 6.16171 6.89407 6.11857 6.82533 6.08868C6.75658 6.05879 6.68261 6.04273 6.60766 6.04142C6.53271 6.04012 6.45823 6.05359 6.38848 6.08107C6.31873 6.10854 6.25508 6.14949 6.20115 6.20157C6.14723 6.25364 6.10409 6.31583 6.0742 6.38458C6.04431 6.45333 6.02825 6.52729 6.02695 6.60225C6.02564 6.6772 6.03911 6.75168 6.06659 6.82143C6.09407 6.89118 6.13501 6.95483 6.18709 7.00875L8.20647 9L6.18709 10.9913Z" fill="#4A4848"/>
</svg>
