<svg width="80" height="80" viewBox="0 0 80 80" fill="none" xmlns="http://www.w3.org/2000/svg">
<path d="M21.2122 39.3734C20.8689 34.5432 17.2867 30.6057 12.4445 30.6057C7.60234 30.6057 4.02016 34.5432 3.67688 39.3734C3.47235 42.2531 3.67688 46.8885 2.42438 49.3935C2.42438 49.3935 3.67688 51.8985 8.29609 53.1545L16.6183 53.151C21.2122 51.8985 22.4647 49.3935 22.4647 49.3935C21.2122 46.8885 21.4167 42.2531 21.2122 39.3734Z" fill="#694B4B"/>
<path d="M11.192 39.3735C6.36516 36.9601 7.3586 32.2315 10.7975 30.7681C6.80813 31.5465 3.97985 35.1099 3.67688 39.3735C3.47235 42.2532 3.67688 46.8887 2.42438 49.3937C2.42438 49.3937 3.67688 51.8987 8.2961 53.1546L12.252 53.1531L11.192 39.3735Z" fill="#5A4146"/>
<path d="M21.64 56.166L17.5867 54.1395C16.738 53.7151 16.2019 52.8476 16.2019 51.8987L16.202 48.1409H8.68703V51.8987C8.68703 52.8474 8.15094 53.7148 7.30234 54.1391L3.24891 56.1659C1.97594 56.8024 1.17188 58.1034 1.17188 59.5267V68.1812H23.7172V59.5268C23.7172 58.1037 22.9131 56.8026 21.64 56.166Z" fill="#F8C298"/>
<path d="M23.7172 59.527C23.7172 58.1037 22.913 56.8027 21.64 56.1661L17.5867 54.1395C17.3534 54.023 17.1503 53.8675 16.9691 53.6916L15.5316 55.2916C13.8337 57.1812 11.0555 57.1811 9.35765 55.2916L7.91999 53.6914C7.73859 53.8673 7.53546 54.0228 7.30249 54.1394L3.2489 56.1661C1.97609 56.8025 1.17203 58.1036 1.17203 59.5267V68.1814H23.7173L23.7172 59.527Z" fill="#D5DCED"/>
<path d="M12.4445 50.6461C9.57405 50.6461 7.07937 49.0367 5.81374 46.6711C4.95343 45.063 5.51437 43.0456 7.00546 41.9955C7.29155 41.7939 7.58718 41.5641 7.87796 41.3046C8.77358 40.5053 9.29811 39.6625 9.59374 39.0449C9.84702 38.5158 10.4306 38.2171 10.9991 38.3619C15.4214 39.4888 18.4289 41.7921 19.5126 42.725C19.8006 42.973 19.9664 43.338 19.9372 43.7169C19.6383 47.5936 16.398 50.6461 12.4445 50.6461Z" fill="#FFD6C0"/>
<path d="M19.5112 42.7237C18.4267 41.7901 15.4216 39.4897 11.0039 38.3629C10.4326 38.2171 9.84655 38.5177 9.59171 39.0493C9.36749 39.5166 8.99702 40.1123 8.44718 40.7201C8.44702 40.7215 8.44671 40.7229 8.44655 40.7243C8.27593 40.9177 8.09421 41.1115 7.87811 41.3044C7.59921 41.5532 7.31858 41.7783 7.04108 41.9702C5.27343 43.193 5.00796 45.436 6.09124 47.1397C7.23093 48.9321 9.11343 50.2054 11.3051 50.5405C9.80561 49.5204 8.68702 48.1372 8.68702 45.6362V44.6683C8.97155 44.4583 9.25796 44.2488 9.54593 43.9919C10.242 43.3707 10.8498 42.6522 11.3372 41.8787C14.7109 42.9315 16.9981 44.6849 17.8651 45.4305C18.1025 45.6387 18.4353 45.9327 19.1245 46.5793C19.5666 45.8818 19.8751 44.5238 19.9372 43.7152C19.9664 43.3366 19.7987 42.9712 19.5112 42.7237Z" fill="#F8C298"/>
<path d="M1.93547 57.269C1.45297 57.9092 1.17188 58.695 1.17188 59.5269V68.1812H6.18203V61.8701C6.18203 61.1092 5.83609 60.3894 5.24188 59.914L1.93547 57.269Z" fill="#C7CFE2"/>
<path d="M22.9537 57.269C23.4362 57.9092 23.7173 58.695 23.7173 59.5269V68.1812H18.7072V61.8701C18.7072 61.1092 19.0531 60.3894 19.6473 59.914L22.9537 57.269Z" fill="#C7CFE2"/>
<path d="M57.5353 35.6159V36.495C57.5353 37.572 57.7089 38.6418 58.0495 39.6636L60.0403 45.6361H63.7978V31.8584H61.2928C59.2176 31.8582 57.5353 33.5406 57.5353 35.6159Z" fill="#5A4146"/>
<path d="M74.7814 37.8805L72.5655 45.6361L62.5453 36.8685C61.1619 36.8685 60.0403 35.7469 60.0403 34.3635C60.0403 32.2881 61.7227 30.606 63.7978 30.606H75.0705V35.816C75.0706 36.5141 74.9733 37.2091 74.7814 37.8805Z" fill="#694B4B"/>
<path d="M70.0609 49.3936H62.5453V56.9092H70.0609V49.3936Z" fill="#F8C298"/>
<path d="M76.1028 54.1585L70.0601 52.4321L66.303 56.9087L62.5455 52.4321L56.5031 54.1585C54.89 54.6195 53.7778 56.0938 53.7778 57.7715V68.1813H78.8281V57.7717C78.8281 56.0938 77.7159 54.6195 76.1028 54.1585Z" fill="#D5DCED"/>
<path d="M66.303 50.6462C62.1525 50.6462 58.7878 47.2815 58.7878 43.131C58.7878 41.5271 59.425 39.9889 60.5591 38.8546L61.7927 37.621C62.2736 37.1401 62.9312 36.8635 63.6109 36.8849C67.6148 37.0112 71.1589 37.869 73.0963 39.761C73.5705 40.2242 73.818 40.8721 73.818 41.5349V43.1309C73.8181 47.2815 70.4534 50.6462 66.303 50.6462Z" fill="#FFD6C0"/>
<path d="M62.5453 43.131C62.5453 41.6862 63.7588 40.5378 65.2006 40.6296C67.7292 40.7909 71.4813 41.2135 73.7831 42.3209C73.708 41.7924 73.4809 40.137 73.0961 39.761C71.1589 37.869 67.6148 37.0112 63.6109 36.8849H63.6108C62.9311 36.8635 62.2734 37.1403 61.7925 37.621L60.5589 38.8546C59.4247 39.9889 58.7877 41.527 58.7877 43.131C58.7877 46.5582 61.0841 49.4439 64.2205 50.3474C63.1766 49.0593 62.5452 47.4245 62.5452 45.636V43.131H62.5453Z" fill="#F8C298"/>
<path d="M73.818 61.5036C73.818 60.507 74.2139 59.5512 74.9186 58.8465L78.1428 55.6223C78.5737 56.2383 78.8281 56.9798 78.8281 57.7714V68.1812H73.818V61.5036Z" fill="#C7CFE2"/>
<path d="M57.9948 54.4568L47.5151 50.646L40 53.151L32.4848 50.646L22.0052 54.4568C20.0252 55.1768 18.7072 57.0585 18.7072 59.1652V68.1811H61.2928V59.1652C61.2928 57.0585 59.9748 55.1768 57.9948 54.4568Z" fill="#FF6478"/>
<path d="M59.9447 55.752C60.7905 56.6598 61.2928 57.8687 61.2928 59.1655V68.1816H53.7776V63.9943C53.7776 62.6655 54.3055 61.3912 55.245 60.4516L59.9447 55.752Z" fill="#CE3F63"/>
<path d="M53.7777 24.8155V14.3229C53.7777 12.9394 52.6561 11.8179 51.2727 11.8179H36.2424C30.7084 11.8179 26.2222 16.3041 26.2222 21.838V24.8155C26.2222 26.1618 26.4392 27.4991 26.865 28.7763L27.2819 30.0271C27.4095 30.4102 27.4747 30.8115 27.4747 31.2154V31.8582H52.5252V31.2154C52.5252 30.8115 52.5903 30.4102 52.718 30.0271L53.1349 28.7763C53.5606 27.4993 53.7777 26.1618 53.7777 24.8155Z" fill="#5A4146"/>
<path d="M32.4848 16.9063C32.4848 19.7165 34.763 21.9947 37.5733 21.9947H38.2778L38.618 31.8583H52.5253V31.2155C52.5253 30.8116 52.5905 30.4105 52.7181 30.0272L53.135 28.7765C53.5608 27.4993 53.7778 26.1619 53.7778 24.8157V14.3229C53.7778 12.9393 52.6562 11.8179 51.2728 11.8179H37.5734C34.763 11.8179 32.4848 14.096 32.4848 16.9063Z" fill="#694B4B"/>
<path d="M47.5141 41.8779H32.4844V53.1498H47.5141V41.8779Z" fill="#F8C298"/>
<path d="M32.4848 47.547C34.7345 48.7206 37.287 49.3936 40 49.3936C42.713 49.3936 45.2655 48.7206 47.5151 47.547V41.8784H32.4848V47.547Z" fill="#D29B6E"/>
<path d="M40 53.1512L36.0053 57.1459C35.4685 57.6828 34.581 57.6223 34.1219 57.0175L29.9799 51.5598L31.0633 49.2767C31.383 48.6029 32.2169 48.3561 32.8519 48.7473L40 53.1512Z" fill="#CE3F63"/>
<path d="M40 53.1512L43.9947 57.1459C44.5316 57.6828 45.4191 57.6223 45.8781 57.0175L50.0202 51.5598L48.9367 49.2767C48.617 48.6029 47.7831 48.3561 47.1481 48.7473L40 53.1512Z" fill="#CE3F63"/>
<path d="M40 45.6362C33.0825 45.6362 27.4749 40.0285 27.4749 33.111V31.8585L29.5592 30.469C30.6045 29.7721 31.2325 28.5988 31.2325 27.3424V23.0909C31.2325 23.0909 41.2528 19.3332 48.7678 25.596C48.7678 25.596 48.7678 26.4488 48.7678 27.3418C48.7678 28.5982 49.3956 29.772 50.4411 30.469L52.5253 31.8585V33.111C52.5252 40.0284 46.9175 45.6362 40 45.6362Z" fill="#FFD6C0"/>
<path d="M20.0553 55.752C19.2095 56.6598 18.7072 57.8687 18.7072 59.1655V68.1816H26.2223V63.9943C26.2223 62.6655 25.6945 61.3912 24.755 60.4516L20.0553 55.752Z" fill="#CE3F63"/>
<path d="M37.1931 26.1013C39.9167 25.7597 44.6842 25.5636 48.7677 27.3416C48.7677 26.8394 48.7677 25.5958 48.7677 25.5958C41.2525 19.333 31.2324 23.0906 31.2324 23.0906V27.3422C31.2324 28.5986 30.6045 29.7717 29.5591 30.4688L27.4749 31.8583V33.1108C27.4749 39.5148 32.2841 44.787 38.4864 45.5358H38.4867C36.3253 43.2852 34.99 40.2352 34.99 36.8684V28.5894C34.9899 27.32 35.9338 26.2592 37.1931 26.1013Z" fill="#F8C298"/>
<path d="M69.5331 39.1682C69.7014 39.2524 69.8802 39.2921 70.0563 39.2921C70.4861 39.2921 70.9 39.0546 71.1053 38.6441C71.3949 38.0652 71.1602 37.3613 70.5813 37.0718C67.8591 35.7108 62.7552 35.6951 62.5392 35.6951C61.892 35.6951 61.3673 36.2198 61.3673 36.8669C61.3673 37.5141 61.892 38.0388 62.5392 38.0388C63.8562 38.039 67.6802 38.2418 69.5331 39.1682Z" fill="black"/>
<path d="M76.4237 53.7563L71.5839 52.3735C71.375 52.3138 71.2291 52.1204 71.2291 51.9031V50.2876C71.6228 50.0148 71.9984 49.7095 72.3495 49.3687C74.0511 47.7174 74.9881 45.5026 74.9881 43.132V40.9027L75.4561 39.967C75.9697 38.9396 76.2411 37.7895 76.2411 36.641V30.602C76.2411 29.9548 75.7164 29.4301 75.0692 29.4301H63.7922C59.6916 29.4301 56.3553 32.7663 56.3553 36.867V36.9368C56.3553 37.8918 56.5811 38.8482 57.0081 39.7023L57.6083 40.9026V42.8167C57.6083 45.8501 59.1031 48.5718 61.3673 50.2096L61.3677 51.9027C61.3677 52.1638 61.3677 52.272 60.4 52.5485L58.0384 53.2232L51.207 50.7391C51.2316 50.4168 51.1228 50.089 50.8877 49.842L48.7047 47.5485V43.6985C48.9355 43.5084 49.163 43.3131 49.3834 43.1065C52.1373 40.5252 53.7167 36.8809 53.7167 33.1079V30.0332C54.5483 28.2237 54.9697 26.3088 54.9697 24.3368V11.8071C54.9697 11.1599 54.445 10.6353 53.7978 10.6353H36.2558C30.0823 10.6353 25.06 15.6578 25.06 21.831V24.3371C25.06 26.3092 25.4814 28.224 26.313 30.0335V32.679C26.313 37.0596 28.2608 41.0062 31.325 43.6081V47.5487L29.142 49.8421C28.9069 50.0891 28.7981 50.417 28.8227 50.7393L21.6125 53.361C21.09 53.551 20.6045 53.8084 20.1638 54.1201L19.0316 53.554C22.4019 52.087 23.4695 50.0237 23.5208 49.9212C23.6858 49.5913 23.6858 49.2029 23.5208 48.8731C22.6759 47.1834 22.5736 44.0863 22.4914 41.5979C22.4641 40.7695 22.4381 39.9868 22.3886 39.2899C21.9891 33.669 17.7159 29.4301 12.4487 29.4301C7.18156 29.4301 2.90828 33.6688 2.50891 39.2899C2.45937 39.987 2.43344 40.7696 2.40609 41.5982C2.32391 44.0865 2.22141 47.1832 1.37672 48.8729C1.21172 49.2027 1.21172 49.5912 1.37672 49.921C1.42797 50.0235 2.49344 52.0826 5.87047 53.5513L2.72563 55.1237C1.04438 55.9648 0 57.6546 0 59.5343V68.192C0 68.8391 0.524687 69.3638 1.17188 69.3638C1.81906 69.3638 2.34375 68.8391 2.34375 68.192V59.5343C2.34375 58.548 2.89172 57.6613 3.77375 57.2202L7.68984 55.2623L9.05203 56.5568C10.0045 57.462 11.2264 57.9143 12.4487 57.9143C13.6708 57.9143 14.8933 57.4616 15.8455 56.5568L17.2075 55.2624L18.4844 55.9009C17.8831 56.8629 17.5419 57.991 17.5419 59.1727V68.1923C17.5419 68.8395 18.0666 69.3641 18.7137 69.3641C19.3609 69.3641 19.8856 68.8395 19.8856 68.1923V59.1727C19.8856 57.564 20.9014 56.1137 22.4134 55.5638L30.0153 52.7996L33.1798 57.5466C33.5844 58.1535 34.2327 58.5427 34.9584 58.6146C35.0394 58.6226 35.1198 58.6265 35.2002 58.6265C35.8405 58.6265 36.4538 58.3745 36.9122 57.9162L38.8428 55.9856V68.1924C38.8428 68.8396 39.3675 69.3643 40.0147 69.3643C40.6619 69.3643 41.1866 68.8396 41.1866 68.1924V55.9856L43.1172 57.9162C43.5755 58.3746 44.1888 58.6266 44.8292 58.6266C44.9094 58.6266 44.99 58.6227 45.0708 58.6148C45.7967 58.5429 46.445 58.1537 46.8495 57.5468L50.0142 52.7999L57.6159 55.5641C59.1278 56.114 60.1438 57.5643 60.1438 59.1731V68.1926C60.1438 68.8398 60.6684 69.3645 61.3156 69.3645C61.9628 69.3645 62.4875 68.8398 62.4875 68.1926V59.1731C62.4875 57.5437 61.8402 56.0156 60.7542 54.8854L61.0437 54.8027C61.3358 54.7193 61.7342 54.6051 62.1342 54.409L65.1263 57.401V68.1926C65.1263 68.8398 65.6509 69.3645 66.2981 69.3645C66.9453 69.3645 67.47 68.8398 67.47 68.1926V57.401L70.4413 54.4298C70.5992 54.5101 70.7652 54.5779 70.9398 54.6277L75.7798 56.0105C76.8845 56.3262 77.6562 57.3491 77.6562 58.4982V68.1926C77.6562 68.8398 78.1809 69.3645 78.8281 69.3645C79.4753 69.3645 80 68.8398 80 68.1926V58.4982C80 56.3077 78.5294 54.3581 76.4237 53.7563ZM17.3795 51.6904L17.3797 50.2927C18.743 49.3541 19.8269 48.0338 20.4736 46.4726C20.6141 47.4816 20.8214 48.4376 21.1408 49.2723C20.6741 49.8409 19.5694 50.902 17.3795 51.6904ZM4.84688 39.4562C4.99656 37.3506 5.83797 35.4102 7.21609 33.9924C8.60656 32.5618 10.465 31.774 12.4491 31.774C14.4331 31.774 16.2914 32.5618 17.682 33.9924C19.0602 35.4102 19.9016 37.3506 20.0513 39.4562C20.0975 40.1088 20.1228 40.8698 20.1494 41.6754C20.1517 41.7446 20.1541 41.8148 20.1564 41.8845C18.8814 39.9201 16.9123 38.4724 14.3681 37.6549C12.0177 36.8998 9.99609 36.9465 9.91078 36.9487C9.60391 36.9573 9.31266 37.0857 9.09969 37.3067L6.98531 39.4995C6.53609 39.9654 6.54953 40.7073 7.01547 41.1565C7.48141 41.6057 8.22328 41.5921 8.6725 41.1263L10.4319 39.3018C11.947 39.3759 16.8216 39.9427 18.7173 44.1173C18.2403 47.1937 15.5963 49.4782 12.4494 49.4782C8.95 49.4782 6.10328 46.6313 6.10328 43.1321C6.10328 42.4849 5.57859 41.9602 4.93141 41.9602C4.86578 41.9602 4.80172 41.967 4.73906 41.9774C4.7425 41.8767 4.74578 41.7757 4.74922 41.6759C4.77531 40.8701 4.80047 40.109 4.84688 39.4562ZM3.75703 49.272C4.07703 48.4354 4.28453 47.4773 4.425 46.4659C5.07125 48.0154 6.15359 49.3382 7.51797 50.282V51.6865C5.32594 50.8977 4.22641 49.8462 3.75703 49.272ZM10.6667 54.8579L9.57687 53.8223C9.76078 53.4777 9.86188 53.0871 9.86188 52.6779V51.4288C10.6794 51.6843 11.5484 51.8221 12.4491 51.8221C13.3486 51.8221 14.2172 51.6837 15.0361 51.4296L15.0359 52.6777C15.0359 53.0871 15.1369 53.4779 15.3209 53.8226L14.2313 54.8581C13.2317 55.8077 11.6659 55.8076 10.6667 54.8579ZM28.6567 32.6788V29.7713C28.6567 29.5949 28.6169 29.4207 28.5402 29.2618C27.7861 27.7002 27.4038 26.0434 27.4038 24.3371V21.831C27.4038 16.9499 31.3748 12.979 36.2558 12.979H52.6259V24.3371C52.6259 26.0434 52.2436 27.7002 51.4895 29.2618C51.4128 29.4207 51.373 29.5949 51.373 29.7713V33.1081C51.373 36.2817 50.0972 39.2252 47.7806 41.3966C47.4914 41.6676 47.1912 41.9216 46.8809 42.1584C46.8741 42.1631 46.8675 42.1682 46.8608 42.1731C44.6906 43.8207 42.0325 44.6215 39.2566 44.4416C33.3127 44.0568 28.6567 38.8899 28.6567 32.6788ZM39.1048 46.7804C39.4137 46.8004 39.7208 46.8102 40.0269 46.8102C42.2677 46.8102 44.4242 46.2746 46.3609 45.2579V47.3985L40.0148 51.7363L33.6687 47.3985V45.211C35.3108 46.0987 37.1494 46.6538 39.1048 46.7804ZM35.255 56.2587C35.2469 56.2668 35.228 56.286 35.1897 56.282C35.1516 56.2782 35.1366 56.2559 35.1302 56.2462L31.4856 50.7793L32.6584 49.547L38.1873 53.3262L35.255 56.2587ZM44.8995 56.2463C44.8931 56.256 44.8781 56.2784 44.84 56.2821C44.8017 56.287 44.783 56.2668 44.7747 56.2588L41.8423 53.3265L47.3712 49.5471L48.5442 50.7795L44.8995 56.2463ZM59.952 42.817V40.6262C59.952 40.4441 59.9097 40.2648 59.8283 40.1021L59.1044 38.6543C58.8392 38.1238 58.6991 37.5301 58.6991 36.937V36.8671C58.6991 34.0587 60.9839 31.774 63.7922 31.774H73.8973V36.6412C73.8973 37.4277 73.7114 38.2154 73.3597 38.919L72.7681 40.1021C72.6867 40.2649 72.6444 40.4441 72.6444 40.6262V43.1321C72.6444 44.8634 71.96 46.4809 70.7173 47.6868C69.4753 48.8921 67.8345 49.5287 66.1022 49.4752C62.7109 49.3735 59.952 46.3865 59.952 42.817ZM66.0317 51.8179C66.122 51.8207 66.2116 51.822 66.3016 51.822C67.1909 51.822 68.0591 51.6876 68.8853 51.4312V51.9031C68.8853 52.1368 68.9147 52.3659 68.97 52.586L66.2981 55.2577L63.6387 52.5985C63.6852 52.3877 63.7114 52.157 63.7113 51.9024L63.7111 51.4079C64.4491 51.6501 65.2269 51.7938 66.0317 51.8179Z" fill="black"/>
<path d="M73.8161 59.5022C73.1689 59.5022 72.6442 60.0269 72.6442 60.6741V68.192C72.6442 68.8392 73.1689 69.3639 73.8161 69.3639C74.4633 69.3639 74.988 68.8392 74.988 68.192V60.6741C74.988 60.0269 74.4633 59.5022 73.8161 59.5022Z" fill="black"/>
<path d="M6.1839 61.0513C5.53671 61.0513 5.01202 61.576 5.01202 62.2231V68.1921C5.01202 68.8392 5.53671 69.3639 6.1839 69.3639C6.83109 69.3639 7.35577 68.8392 7.35577 68.1921V62.2231C7.35577 61.576 6.83109 61.0513 6.1839 61.0513Z" fill="black"/>
<path d="M32.4156 24.1435C32.4156 24.1037 32.4419 24.0696 32.4769 24.0643C33.9873 23.8366 36.9847 23.4854 40.0902 23.6924C43.7445 23.9357 46.3914 24.853 47.9572 26.419C48.4148 26.8766 49.1569 26.8766 49.6144 26.419C50.072 25.9613 50.072 25.2193 49.6144 24.7618C45.1822 20.3296 35.9089 21.177 32.1273 21.747C30.9362 21.9265 30.0719 22.9345 30.0719 24.1437V26.8434C30.0719 27.4905 30.5966 28.0152 31.2437 28.0152C31.8909 28.0152 32.4156 27.4905 32.4156 26.8434V24.1435Z" fill="black"/>
<path d="M26.2319 62.0083C25.5847 62.0083 25.06 62.533 25.06 63.1802V68.1922C25.06 68.8394 25.5847 69.3641 26.2319 69.3641C26.8791 69.3641 27.4037 68.8394 27.4037 68.1922V63.1802C27.4037 62.533 26.8791 62.0083 26.2319 62.0083Z" fill="black"/>
<path d="M53.7978 62.0083C53.1506 62.0083 52.6259 62.533 52.6259 63.1802V68.1922C52.6259 68.8394 53.1506 69.3641 53.7978 69.3641C54.445 69.3641 54.9697 68.8394 54.9697 68.1922V63.1802C54.9697 62.533 54.445 62.0083 53.7978 62.0083Z" fill="black"/>
</svg>
