<svg width="25" height="25" viewBox="0 0 25 25" fill="none" xmlns="http://www.w3.org/2000/svg">
<g clip-path="url(#clip0_51_177258)">
<path d="M25 12.5C25 5.59658 19.4034 -2.44634e-07 12.5 -5.46392e-07C5.59658 -8.4815e-07 -2.44634e-07 5.59658 -5.46392e-07 12.5C-8.4815e-07 19.4034 5.59658 25 12.5 25C19.4034 25 25 19.4034 25 12.5ZM2.08335 12.5C2.08335 6.74717 6.74717 2.08335 12.5 2.08335C18.2528 2.08335 22.9167 6.74717 22.9166 12.5C22.9166 18.2528 18.2528 22.9167 12.5 22.9167C6.74717 22.9166 2.08335 18.2528 2.08335 12.5Z" fill="#CB0FE0"/>
<path d="M18.4449 11.1532C18.8517 10.7464 18.8517 10.0869 18.4449 9.68008C18.0381 9.27329 17.3786 9.27329 16.9718 9.68008L12.5 14.1519L8.02822 9.68007C7.62143 9.27329 6.96186 9.27329 6.55507 9.68007C6.14829 10.0869 6.14829 10.7464 6.55507 11.1532L11.7634 16.3616C12.1702 16.7684 12.8298 16.7684 13.2366 16.3616L18.4449 11.1532Z" fill="#CB0FE0"/>
</g>
<defs>
<clipPath id="clip0_51_177258">
<rect width="25" height="25" fill="white" transform="translate(25) rotate(90)"/>
</clipPath>
</defs>
</svg>
