<svg width="16" height="16" viewBox="0 0 16 16" fill="none" xmlns="http://www.w3.org/2000/svg">
<g clip-path="url(#clip0_247_311)">
<path d="M14.2761 0H1.724C0.773315 0 0 0.773315 0 1.724V10.9189C0 11.8695 0.773315 12.6428 1.724 12.6428H5.70203L7.01941 15.2777C7.2489 15.7367 7.60632 16 8 16C8.39368 16 8.7511 15.7367 8.98059 15.2777L10.2981 12.6428H14.2761C15.2267 12.6428 16 11.8695 16 10.9189V1.724C16 0.773315 15.2267 0 14.2761 0V0ZM15.0625 10.9189C15.0625 11.3525 14.7097 11.7053 14.2761 11.7053H10.0084C9.83081 11.7053 9.66858 11.8057 9.58911 11.9645L8.14209 14.8585C8.08374 14.9751 8.02893 15.0325 8 15.0544C7.97107 15.0325 7.91626 14.9751 7.85791 14.8585L6.41089 11.9645C6.33154 11.8057 6.16919 11.7053 5.9917 11.7053H1.724C1.29028 11.7053 0.9375 11.3525 0.9375 10.9189V1.724C0.9375 1.29028 1.29028 0.9375 1.724 0.9375H14.2761C14.7097 0.9375 15.0625 1.29028 15.0625 1.724V10.9189Z" fill="#CB0FE0"/>
<path d="M8.00024 8.1908C7.18811 8.1908 6.52734 8.85156 6.52734 9.6637C6.52734 10.4758 7.18811 11.1366 8.00024 11.1366C8.81238 11.1366 9.47327 10.476 9.47327 9.6637C9.47327 8.85156 8.81238 8.1908 8.00024 8.1908ZM8.00024 10.1991C7.70508 10.1991 7.46484 9.95898 7.46484 9.6637C7.46484 9.36841 7.70508 9.1283 8.00024 9.1283C8.29553 9.1283 8.53577 9.36841 8.53577 9.6637C8.53577 9.95898 8.29553 10.1991 8.00024 10.1991Z" fill="#CB0FE0"/>
<path d="M8.00024 2.0083C7.18811 2.0083 6.52734 2.66907 6.52734 3.4812V5.64709C6.52734 6.45923 7.18811 7.12 8.00024 7.12C8.81238 7.12 9.47327 6.45923 9.47327 5.64709V3.4812C9.47327 2.66907 8.81238 2.0083 8.00024 2.0083ZM8.53577 5.64697C8.53577 5.94226 8.29553 6.1825 8.00024 6.1825C7.70508 6.1825 7.46484 5.94226 7.46484 5.64697V3.4812C7.46484 3.18604 7.70508 2.9458 8.00024 2.9458C8.29553 2.9458 8.53577 3.18604 8.53577 3.4812V5.64697Z" fill="#CB0FE0"/>
</g>
<defs>
<clipPath id="clip0_247_311">
<rect width="16" height="16" fill="white"/>
</clipPath>
</defs>
</svg>
