<svg width="16" height="14" viewBox="0 0 16 14" fill="none" xmlns="http://www.w3.org/2000/svg">
<path d="M15.5458 2.81712C15.5157 2.81608 14.8978 2.79522 13.9907 2.81527V0.955442C13.9907 0.681278 13.7566 0.463835 13.4809 0.486486C11.6722 0.637482 9.3711 1.4367 7.99999 2.89442C6.62889 1.4367 4.32774 0.637482 2.51906 0.486486C2.24392 0.464086 2.00932 0.680556 2.00932 0.955442V2.86556C1.49393 2.84611 1.00643 2.8324 0.484549 2.81706C0.221333 2.80874 0 3.02076 0 3.28743V11.8575C0 12.1051 0.191906 12.3104 0.438996 12.327C2.31093 12.453 5.44658 12.4672 7.8154 13.4775C8.0265 13.5676 8.21602 13.4641 8.18465 13.4775C10.5534 12.4672 13.6885 12.453 15.5611 12.327C15.8081 12.3104 16 12.1051 16 11.8575V3.28743C16 3.0339 15.7992 2.82597 15.5458 2.81712ZM13.0495 1.48473V9.55023C11.6924 9.85379 9.97263 10.5016 8.47058 11.8751C8.47058 11.4608 8.47058 4.01015 8.47058 3.78609C9.50023 2.50139 11.4502 1.72705 13.0495 1.48473ZM2.95049 1.48473C4.54977 1.72705 6.49976 2.50139 7.52941 3.78609V11.8751C6.02735 10.5016 4.30754 9.85379 2.95049 9.55023V1.48473ZM0.941176 11.4146V3.77207C1.27815 3.78204 1.63856 3.79331 2.00932 3.80746V9.93379C2.00932 10.1602 2.17057 10.3545 2.3931 10.3963C3.46764 10.598 4.86497 11.0358 6.1673 11.9784C4.30927 11.5616 2.36442 11.4947 0.941176 11.4146ZM15.0588 11.4146C13.6379 11.4945 11.6914 11.5615 9.83265 11.9784C11.135 11.0358 12.5323 10.598 13.6069 10.3963C13.8294 10.3545 13.9906 10.1602 13.9906 9.93379V3.75676C14.4238 3.74706 14.7927 3.74694 15.0588 3.74935V11.4146H15.0588Z" fill="black"/>
</svg>
