<svg width="16" height="16" viewBox="0 0 16 16" fill="none" xmlns="http://www.w3.org/2000/svg">
<path d="M15.9347 15.2604C15.941 15.2471 15.9471 15.2337 15.9525 15.22C15.9554 15.2127 15.9579 15.2053 15.9606 15.1979C15.9652 15.1849 15.9696 15.1718 15.9734 15.1584C15.9758 15.1502 15.9778 15.1419 15.9798 15.1335C15.9829 15.1209 15.9859 15.1082 15.9882 15.0953C15.9899 15.086 15.9912 15.0768 15.9924 15.0676C15.9942 15.0553 15.9958 15.043 15.9968 15.0304C15.9976 15.0208 15.9979 15.0112 15.9983 15.0016C15.9987 14.9926 15.9997 14.9838 15.9997 14.9748V6.97496C15.9997 6.91024 15.99 6.84662 15.972 6.78578C15.9719 6.78556 15.9719 6.78534 15.9718 6.78512C15.9658 6.76475 15.9588 6.74471 15.9508 6.72506C15.9506 6.72456 15.9504 6.72406 15.9502 6.72356C15.9421 6.70372 15.9331 6.68425 15.9231 6.66525C15.9231 6.66522 15.9231 6.66518 15.9231 6.66515C15.8873 6.5969 15.8397 6.53462 15.7814 6.48166L9.81891 1.06174C8.78734 0.123946 7.21172 0.123946 6.18011 1.06177L0.218236 6.48166C0.210893 6.48831 0.20383 6.49522 0.19683 6.50219C0.196237 6.50275 0.195612 6.50325 0.195018 6.50381C0.194768 6.50406 0.19458 6.50431 0.194362 6.50456C0.1798 6.51919 0.166112 6.53447 0.15305 6.55025C0.151269 6.55241 0.149363 6.5545 0.147613 6.55669C0.136144 6.57091 0.125457 6.58566 0.11527 6.60069C0.112457 6.60481 0.109551 6.6089 0.106832 6.61309C0.09802 6.62672 0.0898639 6.64075 0.0820828 6.65497C0.0788954 6.66078 0.0756767 6.66653 0.0726767 6.6724C0.0658331 6.68584 0.0595833 6.69953 0.0536771 6.71337C0.0508022 6.72012 0.0479585 6.72687 0.0453023 6.73368C0.0399899 6.74737 0.0351463 6.76125 0.0307401 6.77528C0.0285527 6.78224 0.0265215 6.78918 0.0245527 6.79621C0.0205528 6.81056 0.0169904 6.82503 0.0139592 6.83965C0.0125842 6.84634 0.0113968 6.85302 0.0102405 6.85971C0.00758435 6.87481 0.0052719 6.88999 0.00367818 6.90527C0.00302194 6.91149 0.0026782 6.91768 0.00220946 6.92393C0.00120948 6.93693 0.000584494 6.94999 0.000334499 6.96308C0.000240751 6.96899 -4.04928e-05 6.9749 2.20059e-05 6.9808V14.956C-4.04928e-05 14.958 5.32553e-05 14.9601 2.20059e-05 14.9621V14.9748C2.20059e-05 14.9777 0.000428247 14.9806 0.000459497 14.9836C0.000678242 15.0019 0.00149073 15.0201 0.00320944 15.0383C0.00364693 15.0429 0.00430317 15.0475 0.00483441 15.0521C0.00680312 15.0692 0.00930306 15.0863 0.0126467 15.1033C0.0137092 15.1087 0.0149904 15.114 0.0161779 15.1194C0.0196466 15.1351 0.0235528 15.1507 0.0282089 15.1662C0.0300839 15.1724 0.0321776 15.1785 0.03424 15.1847C0.0389587 15.1989 0.0440211 15.2131 0.049771 15.2271C0.0525834 15.234 0.0556771 15.2407 0.0587083 15.2474C0.0645519 15.2604 0.070583 15.2733 0.0773329 15.2861C0.0810203 15.293 0.0850202 15.2998 0.0889577 15.3066C0.0940201 15.3153 0.0984575 15.3243 0.103957 15.333C0.106239 15.3366 0.108926 15.3398 0.111301 15.3433C0.114832 15.3487 0.118676 15.3537 0.122363 15.3589C0.131707 15.3722 0.141207 15.3853 0.151363 15.3977C0.152925 15.3996 0.154644 15.4014 0.156238 15.4033C0.225486 15.486 0.311484 15.5486 0.406326 15.5887C0.408889 15.5898 0.411576 15.5906 0.414138 15.5917C0.431326 15.5987 0.448669 15.6052 0.466325 15.6108C0.471106 15.6123 0.476075 15.6134 0.480918 15.6147C0.49698 15.6194 0.513074 15.6238 0.529417 15.6272C0.534417 15.6283 0.539542 15.6289 0.544604 15.6298C0.561417 15.633 0.578291 15.6357 0.595322 15.6376C0.599666 15.6381 0.604103 15.6382 0.608478 15.6386C0.626572 15.6402 0.644665 15.6412 0.662852 15.6413C0.664133 15.6413 0.665383 15.6415 0.666696 15.6415H15.333C15.3343 15.6415 15.3355 15.6413 15.3367 15.6413C15.3545 15.6412 15.3721 15.6402 15.3897 15.6387C15.3948 15.6382 15.3999 15.638 15.405 15.6375C15.4203 15.6358 15.4354 15.6333 15.4506 15.6305C15.4575 15.6293 15.4645 15.6284 15.4714 15.6269C15.4843 15.6242 15.4969 15.6206 15.5096 15.6171C15.5181 15.6148 15.5267 15.6128 15.535 15.6102C15.5467 15.6065 15.5582 15.6019 15.5697 15.5975C15.5782 15.5942 15.587 15.5914 15.5954 15.5878C15.608 15.5824 15.6202 15.5761 15.6325 15.5699C15.6392 15.5665 15.6461 15.5635 15.6526 15.5599C15.6666 15.5523 15.68 15.5438 15.6934 15.5351C15.6979 15.5322 15.7026 15.5297 15.707 15.5267C15.7204 15.5177 15.7332 15.5077 15.7459 15.4976C15.7501 15.4943 15.7544 15.4914 15.7584 15.488C15.7694 15.479 15.7797 15.4691 15.7901 15.4593C15.7957 15.454 15.8014 15.449 15.8068 15.4436C15.8147 15.4356 15.8221 15.4269 15.8297 15.4184C15.8371 15.4102 15.8446 15.402 15.8515 15.3934C15.8569 15.3868 15.8618 15.3797 15.8669 15.3728C15.8754 15.3615 15.8838 15.35 15.8916 15.3381C15.8927 15.3363 15.8941 15.3348 15.8952 15.333C15.8979 15.3287 15.9 15.3242 15.9026 15.3199C15.9106 15.3068 15.9183 15.2935 15.9253 15.2799C15.9287 15.2734 15.9316 15.2669 15.9347 15.2604ZM1.33334 8.5849L4.4963 11.7479L1.33334 13.7605V8.5849ZM6.37486 12.1329C7.3659 11.5019 8.63331 11.5019 9.62417 12.1328L13.0428 14.3081H2.95634L6.37486 12.1329ZM11.5029 11.7479L14.6664 8.58436V13.7608L11.5029 11.7479ZM7.077 2.04831C7.60005 1.57282 8.39904 1.57282 8.92206 2.04831L14.3673 6.99793L10.3506 11.0146L10.3401 11.008C8.91253 10.099 7.08669 10.099 5.65894 11.0081L5.64865 11.0146L1.63218 6.99812L7.077 2.04831Z" fill="black"/>
<path d="M5.52826 6.78004C5.7886 7.04038 6.21072 7.04038 6.47105 6.78004L7.33297 5.91812V8.97524C7.33297 9.34342 7.63143 9.64188 7.99961 9.64188C8.36779 9.64188 8.66626 9.34342 8.66626 8.97524V5.91812L9.52818 6.78004C9.78851 7.04038 10.2106 7.04038 10.471 6.78004C10.7313 6.5197 10.7313 6.09758 10.471 5.83725L8.47101 3.83729C8.47089 3.83716 8.47076 3.8371 8.47067 3.83698C8.45523 3.82157 8.43904 3.80698 8.42217 3.79313C8.41445 3.78679 8.40633 3.78129 8.39839 3.77535C8.38892 3.76826 8.37964 3.76092 8.36979 3.75432C8.36029 3.74798 8.35045 3.74248 8.34073 3.73667C8.3318 3.73132 8.32308 3.72573 8.31386 3.72079C8.30395 3.71548 8.29377 3.71101 8.28364 3.70623C8.27402 3.7017 8.26458 3.69689 8.25473 3.69279C8.24492 3.68873 8.23489 3.68545 8.22495 3.68189C8.21439 3.67807 8.20395 3.67404 8.19314 3.67076C8.18321 3.66776 8.17308 3.66554 8.16302 3.66301C8.15199 3.66023 8.14111 3.65714 8.12986 3.65492C8.11824 3.65261 8.10649 3.65126 8.0948 3.64957C8.08499 3.64817 8.07536 3.64629 8.06539 3.64532C8.02165 3.64101 7.97758 3.64101 7.93383 3.64532C7.9239 3.64629 7.91424 3.64817 7.90443 3.64957C7.89271 3.65126 7.88099 3.65261 7.86937 3.65492C7.85815 3.65714 7.84724 3.66023 7.83621 3.66301C7.82615 3.66554 7.81606 3.66776 7.80609 3.67076C7.79528 3.67404 7.78484 3.67807 7.77428 3.68189C7.76434 3.68545 7.75431 3.68873 7.7445 3.69279C7.73465 3.69689 7.72518 3.70167 7.71559 3.70623C7.70546 3.71101 7.69528 3.71548 7.68537 3.72079C7.67618 3.72573 7.66743 3.73132 7.6585 3.73667C7.64878 3.74248 7.63893 3.74798 7.62944 3.75432C7.61959 3.76092 7.61031 3.76826 7.60084 3.77535C7.5929 3.78129 7.58478 3.78679 7.57706 3.79313C7.56019 3.80698 7.54397 3.82157 7.52856 3.83698C7.52844 3.8371 7.52831 3.83716 7.52822 3.83729L5.52826 5.83725C5.26792 6.09762 5.26792 6.5197 5.52826 6.78004Z" fill="black"/>
</svg>
