<svg width="16" height="16" viewBox="0 0 16 16" fill="none" xmlns="http://www.w3.org/2000/svg">
<path d="M16 0.996555C16 0.512372 15.6075 0.119873 15.1233 0.119873H0.876751C0.69622 0.119873 0.520046 0.175639 0.372391 0.279486C-0.0236423 0.558029 -0.11886 1.10492 0.159683 1.50096L5.32513 8.84473L5.33964 14.1874C5.34054 14.5209 5.4397 14.8467 5.62467 15.1242C6.14461 15.9042 7.19837 16.1149 7.97831 15.595L9.82323 14.365C10.3134 14.0383 10.6068 13.4871 10.604 12.898L10.5853 8.87703L15.8373 1.50527C15.9432 1.35671 16 1.17889 16 0.996555ZM8.82931 8.31991L8.85068 12.9061L7.09279 14.078L7.07705 8.28769L2.56527 1.87324H13.4223L8.82931 8.31991Z" fill="black"/>
</svg>
