<svg width="80" height="80" viewBox="0 0 80 80" fill="none" xmlns="http://www.w3.org/2000/svg">
<g clip-path="url(#clip0_108_177818)">
<path d="M61.1389 40C61.1389 51.3525 51.936 60.5554 40.5835 60.5554C29.2316 60.5554 20.0287 51.3525 20.0287 40C20.0287 28.6475 29.2316 19.4446 40.5835 19.4446C51.936 19.4446 61.1389 28.6475 61.1389 40Z" fill="white"/>
<path d="M46.8658 51.7871H43.6426C43.6133 53.4808 42.2491 54.8578 40.5841 54.8578C38.9185 54.8578 37.5549 53.4808 37.5256 51.7871H34.3011C31.8353 51.7871 29.8291 53.7952 29.8291 56.264V57.5195C32.9584 59.4446 36.6412 60.5554 40.5835 60.5554C44.5264 60.5554 48.2098 59.4446 51.3385 57.5195V56.264C51.3385 53.7952 49.3323 51.7871 46.8658 51.7871Z" fill="#FF6478"/>
<path d="M30.8484 37.9723H32.1069V36.4385C32.1069 36.1443 32.345 35.905 32.6398 35.905H38.6139C40.2386 35.905 41.7444 35.1 42.6428 33.7517C42.7417 33.6028 42.9083 33.5143 43.0865 33.5143C43.2642 33.5143 43.4302 33.6028 43.5291 33.7517C44.4275 35.1 45.9338 35.905 47.558 35.905H48.5278C48.822 35.905 49.0607 36.1443 49.0607 36.4385V37.9723H50.3198C51.1188 37.9723 51.8109 38.4447 52.1375 39.1222V33.167C52.1375 28.6412 48.4589 24.959 43.938 24.959H37.2296C32.7087 24.959 29.0308 28.6412 29.0308 33.167V39.121C29.3573 38.4441 30.0494 37.9723 30.8484 37.9723Z" fill="#C6A07D"/>
<path d="M50.3198 44.4323H48.985C48.6682 46.588 47.3645 48.427 45.5487 49.4744H51.6046C51.8988 49.4744 52.1375 49.2363 52.1375 48.9421V43.283C51.8109 43.9611 51.1188 44.4323 50.3198 44.4323Z" fill="#C6A07D"/>
<path d="M32.1826 44.4323H30.8484C30.0494 44.4323 29.3573 43.9611 29.0308 43.2842V48.9415C29.0308 49.2357 29.2688 49.4744 29.563 49.4744H35.6189C33.8037 48.427 32.4994 46.588 32.1826 44.4323Z" fill="#C6A07D"/>
<path d="M50.3198 37.9724H49.0607V36.4386C49.0607 36.1444 48.822 35.9052 48.5278 35.9052H47.558C45.9332 35.9052 44.4275 35.1001 43.5291 33.7518C43.4302 33.6029 43.2642 33.5144 43.0865 33.5144C42.9083 33.5144 42.7417 33.6029 42.6428 33.7518C41.7444 35.1001 40.2386 35.9052 38.6139 35.9052H32.6398C32.345 35.9052 32.1069 36.1444 32.1069 36.4386V37.9724H30.8484C29.7375 37.9724 28.83 38.8812 28.83 39.9915V42.4139C28.83 43.5242 29.7375 44.4324 30.8484 44.4324H32.1826C32.6025 47.2852 34.7485 49.5837 37.5232 50.2271V51.7328C37.5232 53.4515 38.9008 54.8578 40.5841 54.8578C42.2675 54.8578 43.645 53.4515 43.645 51.7328V50.2264C46.4197 49.5831 48.5657 47.2852 48.9856 44.4324H50.3198C51.4307 44.4324 52.3383 43.5242 52.3383 42.4139V39.9915C52.3383 38.8818 51.4301 37.9724 50.3198 37.9724Z" fill="#FFD5B3"/>
<path d="M48.0884 8.70789C48.0884 4.5459 44.7284 1.17188 40.5835 1.17188C36.4392 1.17188 33.0786 4.5459 33.0786 8.70789C33.0786 12.8705 36.4392 16.2445 40.5835 16.2445C44.7284 16.2445 48.0884 12.8705 48.0884 8.70789Z" fill="#F7931E"/>
<path d="M76.9897 67.1187C76.9897 67.5483 76.6382 67.8999 76.2085 67.8999H62.7905C62.3608 67.8999 62.0093 67.5483 62.0093 67.1187V54.5259C62.0093 54.0962 62.3608 53.7446 62.7905 53.7446H76.2085C76.6382 53.7446 76.9897 54.0962 76.9897 54.5259V67.1187Z" fill="#FFA214"/>
<path d="M19.021 57.3376C19.021 52.9034 15.4456 49.3091 11.0339 49.3091C6.62292 49.3091 3.04749 52.9034 3.04749 57.3376C3.04749 61.7712 6.62292 65.3656 11.0339 65.3656C15.4456 65.3656 19.021 61.7712 19.021 57.3376Z" fill="#FFA214"/>
<path d="M17.5989 25.8003C17.5989 26.23 17.2473 26.5815 16.8176 26.5815H4.26758C3.83789 26.5815 3.48633 26.23 3.48633 25.8003V16.9526C3.48633 16.5229 3.83789 16.1714 4.26758 16.1714H16.817C17.2467 16.1714 17.5983 16.5229 17.5983 16.9526V25.8003H17.5989Z" fill="#409BFF"/>
<path d="M4.10461 16.6486C3.76465 16.3856 3.48633 16.5229 3.48633 16.9526V25.8002C3.48633 26.2299 3.83789 26.5815 4.26758 26.5815H16.817C17.2467 26.5815 17.5983 26.2299 17.5983 25.8002V16.9526C17.5983 16.5229 17.3199 16.3856 16.98 16.6486L11.1609 21.1359C10.8203 21.3984 10.2637 21.3984 9.92371 21.1359L4.10461 16.6486Z" fill="#409BFF"/>
<path d="M40.5835 78.8281C36.4282 78.8281 33.0475 75.4315 33.0475 71.2561C33.0475 67.0813 36.4282 63.6841 40.5835 63.6841C44.7394 63.6841 48.1201 67.0813 48.1201 71.2561C48.1207 75.4315 44.7394 78.8281 40.5835 78.8281Z" fill="#59CF57"/>
<path d="M68.6499 27.3607C68.5315 27.3607 68.4137 27.3168 68.3228 27.2277L62.063 21.1296C61.4111 20.4949 61.0522 19.6508 61.0522 18.7523C61.0522 17.8545 61.4111 17.0104 62.063 16.3756C62.7148 15.7408 63.5815 15.3911 64.5032 15.3911C65.4248 15.3911 66.2915 15.7408 66.9427 16.3756L68.6499 18.0388L70.3577 16.3756C71.0089 15.7408 71.8756 15.3911 72.7972 15.3911C73.7189 15.3911 74.5856 15.7408 75.2374 16.3756C75.8893 17.0104 76.2482 17.8545 76.2482 18.7523C76.2482 19.6501 75.8893 20.4943 75.2374 21.1296L68.9771 27.2277C68.8861 27.3162 68.7677 27.3607 68.6499 27.3607Z" fill="#FF6478"/>
<path d="M40.5835 20.6165C44.3323 20.6165 47.9688 21.6876 51.1005 23.7146C51.6443 24.0662 52.3694 23.9111 52.7209 23.3679C53.0725 22.8241 52.9175 22.099 52.3743 21.7468C48.8623 19.4745 44.7852 18.2727 40.5835 18.2727C28.6035 18.2727 18.8568 28.0194 18.8568 40C18.8568 51.9806 28.6035 61.7273 40.5835 61.7273C52.5641 61.7273 62.3108 51.9806 62.3108 40C62.3108 34.621 60.3302 29.4592 56.7346 25.4657C56.3013 24.9847 55.5603 24.9463 55.0793 25.379C54.5984 25.8118 54.5599 26.5533 54.9927 27.0343C58.2007 30.5963 59.967 35.2014 59.967 40C59.967 46.2292 57.0123 51.781 52.4316 55.3296C52.0166 52.8467 49.9786 50.9076 47.45 50.6464H51.604C52.5446 50.6464 53.3093 49.8816 53.3093 48.9417V43.5162C53.4369 43.172 53.5095 42.8015 53.5095 42.4133V39.9915C53.5095 39.6033 53.4363 39.2328 53.3093 38.8885V33.1665C53.3093 27.9944 49.1052 23.7872 43.938 23.7872H37.2296C32.0624 23.7872 27.8589 27.995 27.8589 33.1665V38.8867C27.7307 39.2316 27.6575 39.6027 27.6575 39.9908V42.4133C27.6575 42.8021 27.7307 43.1732 27.8589 43.5175V48.9417C27.8589 49.8816 28.6237 50.6458 29.563 50.6458H33.717C31.1884 50.9076 29.1504 52.8467 28.736 55.3296C24.1553 51.781 21.2006 46.2292 21.2006 40C21.2006 29.3121 29.8956 20.6165 40.5835 20.6165ZM50.9656 48.3026H48.6011C49.2004 47.5037 49.6552 46.5912 49.9304 45.6042H50.3198C50.5408 45.6042 50.7568 45.5817 50.9656 45.5383V48.3026ZM51.1664 42.4139C51.1664 42.8809 50.7861 43.2605 50.3198 43.2605H50.2325V39.1443H50.3198C50.7861 39.1443 51.1664 39.5245 51.1664 39.9915V42.4139ZM30.0018 39.9915C30.0018 39.5245 30.3815 39.1443 30.8484 39.1443H30.9351V43.2605H30.8484C30.3815 43.2605 30.0018 42.8809 30.0018 42.4139V39.9915ZM30.2026 48.3026V45.5389C30.4114 45.5817 30.6268 45.6042 30.8484 45.6042H31.2372C31.5131 46.5912 31.9672 47.5037 32.5665 48.3032H30.2026V48.3026ZM30.9351 36.4386V36.8005H30.8478C30.6268 36.8005 30.4114 36.8237 30.2026 36.8665V33.1671C30.2026 29.2871 33.3551 26.131 37.2296 26.131H43.938C47.8131 26.131 50.9656 29.2871 50.9656 33.1671V36.8665C50.7568 36.8237 50.5408 36.8005 50.3198 36.8005H50.2325V36.4386C50.2325 35.498 49.4678 34.7333 48.5278 34.7333H47.558C46.3263 34.7333 45.1843 34.1235 44.5056 33.1042C44.1895 32.627 43.6591 32.3425 43.0865 32.3425C42.514 32.3425 41.983 32.627 41.6681 33.1018C40.9869 34.1235 39.8456 34.7333 38.6139 34.7333H32.6392C31.6998 34.7333 30.9351 35.498 30.9351 36.4386ZM33.2788 43.4094V37.077H38.6139C40.3375 37.077 41.955 36.3464 43.0859 35.0879C44.2163 36.3464 45.8337 37.077 47.558 37.077H47.8888V43.4094C47.8888 46.6223 45.2753 49.2352 42.0636 49.2352H39.104C35.8923 49.2352 33.2788 46.6223 33.2788 43.4094ZM42.4731 51.5686V51.7328C42.4731 52.8094 41.626 53.6859 40.5841 53.6859C39.5422 53.6859 38.6945 52.8094 38.6945 51.7328V51.5686C38.8306 51.5759 38.9667 51.579 39.104 51.579H42.0636C42.2009 51.579 42.3376 51.5759 42.4731 51.5686ZM31.001 56.264C31.001 54.4415 32.4817 52.959 34.3011 52.959H36.5277C37.049 54.7327 38.67 56.0297 40.5841 56.0297C42.4982 56.0297 44.1187 54.7327 44.6405 52.959H46.8658C48.6859 52.959 50.1666 54.4415 50.1666 56.264V56.8439C47.3383 58.4595 44.0674 59.3835 40.5835 59.3835C37.1002 59.3835 33.8293 58.4595 31.001 56.8445V56.264Z" fill="black"/>
<path d="M36.413 41.2507C37.0605 41.2507 37.5848 40.7258 37.5848 40.0789V38.4639C37.5848 37.8163 37.0605 37.292 36.413 37.292C35.7654 37.292 35.2411 37.8163 35.2411 38.4639V40.0789C35.2411 40.7258 35.7654 41.2507 36.413 41.2507Z" fill="black"/>
<path d="M44.7552 41.2507C45.4022 41.2507 45.9271 40.7258 45.9271 40.0789V38.4639C45.9271 37.8163 45.4022 37.292 44.7552 37.292C44.1077 37.292 43.5834 37.8163 43.5834 38.4639V40.0789C43.5834 40.7258 44.1077 41.2507 44.7552 41.2507Z" fill="black"/>
<path d="M40.9613 43.0444H41.7944C42.442 43.0444 42.9663 42.5201 42.9663 41.8726C42.9663 41.225 42.442 40.7007 41.7944 40.7007H41.3519V39.7424C41.3519 39.0955 40.827 38.5706 40.1801 38.5706C39.5325 38.5706 39.0082 39.0955 39.0082 39.7424V41.0913C39.0082 42.1686 39.884 43.0444 40.9613 43.0444Z" fill="black"/>
<path d="M37.1423 44.95C37.1423 46.7322 38.6859 48.1818 40.5835 48.1818C42.4811 48.1818 44.0253 46.7322 44.0253 44.95C44.0253 44.303 43.5004 43.7781 42.8534 43.7781C42.2058 43.7781 41.6815 44.303 41.6815 44.95C41.6815 45.4315 41.1786 45.838 40.5835 45.838C39.9884 45.838 39.4861 45.4315 39.4861 44.95C39.4861 44.303 38.9618 43.7781 38.3142 43.7781C37.6666 43.7781 37.1423 44.303 37.1423 44.95Z" fill="black"/>
<path d="M38.5602 7.58972V6.81396C38.5602 6.16699 38.0359 5.64209 37.3883 5.64209C36.7413 5.64209 36.2164 6.16699 36.2164 6.81396V7.58972C36.2164 8.2373 36.7413 8.7616 37.3883 8.7616C38.0359 8.7616 38.5602 8.2373 38.5602 7.58972Z" fill="black"/>
<path d="M43.7787 5.64209C43.1317 5.64209 42.6068 6.16699 42.6068 6.81396V7.58972C42.6068 8.2373 43.1317 8.7616 43.7787 8.7616C44.4263 8.7616 44.9506 8.2373 44.9506 7.58972V6.81396C44.9506 6.16699 44.4263 5.64209 43.7787 5.64209Z" fill="black"/>
<path d="M42.9736 9.33887C42.326 9.33887 41.8018 9.86316 41.8018 10.5107C41.8018 11.0338 41.2439 11.4757 40.5835 11.4757C39.9237 11.4757 39.3658 11.0338 39.3658 10.5107C39.3658 9.86316 38.8416 9.33887 38.194 9.33887C37.547 9.33887 37.0221 9.86316 37.0221 10.5107C37.0221 12.3351 38.62 13.8195 40.5835 13.8195C42.5476 13.8195 44.1455 12.3351 44.1455 10.5107C44.1455 9.86316 43.6212 9.33887 42.9736 9.33887Z" fill="black"/>
<path d="M76.9897 60.2344C77.6373 60.2344 78.1616 59.7101 78.1616 59.0625V54.5258C78.1616 53.4485 77.2858 52.5726 76.2085 52.5726H74.0997V49.8877C74.0997 48.9044 73.7665 47.9987 73.2086 47.2748V24.7418L76.0553 21.969C76.9354 21.1115 77.42 19.9689 77.42 18.7524C77.42 17.536 76.9354 16.3934 76.0553 15.5365C75.1837 14.6869 74.0265 14.2194 72.7972 14.2194C71.568 14.2194 70.4108 14.6869 69.5398 15.5365L68.6499 16.4032L67.7606 15.5365C66.889 14.6869 65.7324 14.2194 64.5032 14.2194C63.6865 14.2194 62.9022 14.4269 62.2119 14.8145L49.1394 7.26746C48.4534 3.14941 44.8792 0 40.5835 0C36.2885 0 32.7142 3.14941 32.0276 7.26746L17.9736 15.3821C17.6495 15.1428 17.2504 14.9994 16.8176 14.9994H4.26758C3.19031 14.9994 2.31445 15.8752 2.31445 16.9525V25.8002C2.31445 26.8774 3.19031 27.7533 4.26758 27.7533H7.95837V33.75C7.95837 34.3976 8.48328 34.9219 9.13025 34.9219C9.77783 34.9219 10.3021 34.3976 10.3021 33.75V27.7533H16.817C17.8943 27.7533 18.7701 26.8768 18.7701 25.8002V17.6282L32.0013 9.98901C32.6208 14.1852 36.2329 17.4164 40.5835 17.4164C44.9347 17.4164 48.5468 14.1852 49.1656 9.98901L60.4785 16.5204C60.0891 17.1936 59.8804 17.9565 59.8804 18.7524C59.8804 19.9695 60.365 21.1115 61.2451 21.9696L67.5061 28.0682C67.8143 28.3679 68.2202 28.5327 68.6499 28.5327C69.0796 28.5327 69.4861 28.3679 69.7943 28.0676L70.8649 27.0245V45.7324C70.531 45.6482 70.1825 45.603 69.823 45.603H69.176C66.8182 45.603 64.8999 47.525 64.8999 49.8877V52.5726H62.7905C61.7139 52.5726 60.8374 53.4485 60.8374 54.5258V63.2721L49.1998 69.9915C48.5876 65.7678 44.9579 62.5128 40.5835 62.5128C36.2097 62.5128 32.58 65.7678 31.9678 69.9915L18.7146 62.3401C19.6484 60.899 20.1929 59.1815 20.1929 57.3376C20.1929 52.2644 16.084 48.1372 11.0339 48.1372C10.7874 48.1372 10.5438 48.15 10.3021 48.1689V39.375C10.3021 38.7274 9.77783 38.2031 9.13025 38.2031C8.48267 38.2031 7.95837 38.7274 7.95837 39.375V48.6725C4.4165 49.9451 1.875 53.3478 1.875 57.3376C1.875 62.4103 5.98389 66.5375 11.0339 66.5375C13.3942 66.5375 15.5487 65.636 17.1747 64.1571L31.9989 72.7161C32.6935 76.8445 36.2775 80 40.5835 80C44.8901 80 48.4741 76.8445 49.1687 72.7161L60.8374 65.9784V67.1185C60.8374 68.1952 61.7139 69.0717 62.7905 69.0717H76.2085C77.2858 69.0717 78.1616 68.1952 78.1616 67.1185V64.6875C78.1616 64.0399 77.6373 63.5156 76.9897 63.5156C76.3428 63.5156 75.8179 64.0399 75.8179 64.6875V66.7279H63.1812V54.9164H64.8999V56.3727C64.8999 57.0197 65.4242 57.5446 66.0718 57.5446C66.7194 57.5446 67.2437 57.0197 67.2437 56.3727V54.9164H71.756V56.3727C71.756 57.0197 72.2803 57.5446 72.9279 57.5446C73.5754 57.5446 74.0997 57.0197 74.0997 56.3727V54.9164H75.8179V59.0625C75.8179 59.7101 76.3428 60.2344 76.9897 60.2344ZM14.1602 17.3431L10.5426 20.1331L6.92505 17.3431H14.1602ZM16.427 25.4095H4.6582V18.5547L9.20776 22.0636C9.58801 22.3572 10.0653 22.5037 10.542 22.5037C11.0193 22.5037 11.496 22.3572 11.8762 22.0636L16.4264 18.5547V25.4095H16.427ZM40.5835 15.0726C37.0917 15.0726 34.2505 12.2174 34.2505 8.7085C34.2505 5.19897 37.0917 2.34375 40.5835 2.34375C44.0759 2.34375 46.9165 5.19897 46.9165 8.7085C46.9165 12.2174 44.0759 15.0726 40.5835 15.0726ZM11.0339 64.1937C7.276 64.1937 4.21936 61.1182 4.21936 57.3376C4.21936 53.5571 7.276 50.481 11.0339 50.481C14.7925 50.481 17.8491 53.5571 17.8491 57.3376C17.8491 61.1182 14.7925 64.1937 11.0339 64.1937ZM41.4838 77.5909C41.687 77.3804 41.8121 77.0941 41.8121 76.7786C41.8121 76.131 41.2878 75.6067 40.6403 75.6067H40.5267C39.8798 75.6067 39.3549 76.131 39.3549 76.7786C39.3549 77.0941 39.4806 77.3804 39.6838 77.5909C36.9165 77.1954 34.7162 75.0043 34.2932 72.2308C34.4928 72.3895 34.7449 72.4847 35.0195 72.4847C35.6671 72.4847 36.1914 71.9598 36.1914 71.3129V71.2C36.1914 70.5524 35.6671 70.0281 35.0195 70.0281C34.7449 70.0281 34.4928 70.1233 34.2932 70.2814C34.7162 67.5085 36.9165 65.3168 39.6838 64.9213C39.4806 65.1318 39.3549 65.4181 39.3549 65.7343C39.3549 66.3812 39.8798 66.9061 40.5267 66.9061H40.6409C41.2878 66.9061 41.8127 66.3812 41.8127 65.7343C41.8127 65.4181 41.687 65.1318 41.4838 64.9213C44.2517 65.3168 46.452 67.5085 46.875 70.282C46.6754 70.1233 46.4227 70.0281 46.1481 70.0281C45.5005 70.0281 44.9762 70.5524 44.9762 71.2V71.3129C44.9762 71.9598 45.5005 72.4847 46.1481 72.4847C46.4227 72.4847 46.6754 72.3889 46.875 72.2308C46.452 75.0043 44.2517 77.1954 41.4838 77.5909ZM70.8649 52.5726H67.2437V49.8877C67.2437 48.8177 68.1104 47.9468 69.176 47.9468H69.823C70.2069 47.9468 70.564 48.0609 70.8649 48.2556V52.5726ZM68.6499 25.9106L62.8809 20.2905C62.4573 19.8779 62.2241 19.3317 62.2241 18.7524C62.2241 18.1732 62.4573 17.6276 62.8802 17.2156C63.3124 16.795 63.8885 16.5631 64.5032 16.5631C65.1178 16.5631 65.694 16.7944 66.1249 17.215L67.832 18.8782C68.2867 19.3219 69.0125 19.3213 69.4678 18.8782L71.1755 17.215C71.6071 16.7944 72.1826 16.5631 72.7972 16.5631C73.4125 16.5631 73.988 16.7944 74.4202 17.2156C74.8431 17.6276 75.0763 18.1738 75.0763 18.7524C75.0763 19.3317 74.8431 19.8779 74.4196 20.2905L68.6499 25.9106Z" fill="black"/>
<path d="M12.2406 56.0829H9.82788C9.56604 56.0829 9.35303 55.8656 9.35303 55.5989C9.35303 55.3328 9.56604 55.1161 9.82788 55.1161H12.9126C13.5596 55.1161 14.0845 54.5918 14.0845 53.9442C14.0845 53.2966 13.5596 52.7723 12.9126 52.7723H12.2058V52.3311C12.2058 51.6841 11.6815 51.1592 11.0339 51.1592C10.387 51.1592 9.86206 51.6841 9.86206 52.3311V52.7723H9.82788C8.27332 52.7723 7.00928 54.04 7.00928 55.5989C7.00928 57.1583 8.27332 58.4266 9.82788 58.4266H12.2406C12.5024 58.4266 12.7155 58.6433 12.7155 58.9094C12.7155 59.1761 12.5024 59.3928 12.2406 59.3928H8.58704C7.93945 59.3928 7.41516 59.9177 7.41516 60.5647C7.41516 61.2123 7.93945 61.7366 8.58704 61.7366H9.86206V61.8434C9.86206 62.4904 10.387 63.0153 11.0339 63.0153C11.6815 63.0153 12.2058 62.4904 12.2058 61.8434V61.7366H12.2406C13.7946 61.7366 15.0592 60.4683 15.0592 58.9094C15.0592 57.3512 13.7946 56.0829 12.2406 56.0829Z" fill="black"/>
<path d="M44.956 67.207C44.5196 66.7291 43.7787 66.6956 43.3008 67.132L40.6183 69.5813L39.1351 68.1061C38.6761 67.6496 37.934 67.652 37.478 68.1104C37.0215 68.5694 37.0233 69.3115 37.4823 69.7681L39.7577 72.0306C39.9853 72.2577 40.2844 72.3718 40.5841 72.3718C40.8667 72.3718 41.1499 72.2705 41.3745 72.0654L44.881 68.8629C45.3589 68.4265 45.3924 67.685 44.956 67.207Z" fill="black"/>
</g>
<defs>
<clipPath id="clip0_108_177818">
<rect width="80" height="80" fill="white"/>
</clipPath>
</defs>
</svg>
