<svg width="16" height="16" viewBox="0 0 16 16" fill="none" xmlns="http://www.w3.org/2000/svg">
<g clip-path="url(#clip0_247_210)">
<path d="M14.6666 7.25468C14.2986 7.25468 13.9999 6.95601 13.9999 6.58801C13.9999 4.71801 13.2719 2.96068 11.9499 1.63801C11.6892 1.37735 11.6892 0.956014 11.9499 0.695347C12.2106 0.434681 12.6319 0.434681 12.8926 0.695347C14.4666 2.26935 15.3332 4.36201 15.3332 6.58801C15.3332 6.95601 15.0346 7.25468 14.6666 7.25468Z" fill="url(#paint0_linear_247_210)"/>
<path d="M1.33317 7.25468C0.965171 7.25468 0.666504 6.95601 0.666504 6.58801C0.666504 4.36201 1.53317 2.26935 3.10717 0.695347C3.36784 0.434681 3.78918 0.434681 4.04984 0.695347C4.31051 0.956014 4.31051 1.37735 4.04984 1.63801C2.72784 2.96001 1.99984 4.71801 1.99984 6.58801C1.99984 6.95601 1.70117 7.25468 1.33317 7.25468Z" fill="url(#paint1_linear_247_210)"/>
<path d="M14.2528 11.2753C13.2448 10.4233 12.6668 9.178 12.6668 7.85866V6C12.6668 3.654 10.9242 1.712 8.66683 1.38667V0.666666C8.66683 0.298 8.36817 0 8.00016 0C7.63216 0 7.3335 0.298 7.3335 0.666666V1.38667C5.0755 1.712 3.3335 3.654 3.3335 6V7.85866C3.3335 9.178 2.7555 10.4233 1.7415 11.2807C1.48216 11.5027 1.3335 11.8253 1.3335 12.1667C1.3335 12.81 1.85683 13.3333 2.50016 13.3333H13.5002C14.1435 13.3333 14.6668 12.81 14.6668 12.1667C14.6668 11.8253 14.5182 11.5027 14.2528 11.2753Z" fill="url(#paint2_linear_247_210)"/>
<path d="M8.00011 16C9.20745 16 10.2174 15.1393 10.4494 14H5.55078C5.78278 15.1393 6.79278 16 8.00011 16Z" fill="url(#paint3_linear_247_210)"/>
</g>
<defs>
<linearGradient id="paint0_linear_247_210" x1="11.3361" y1="0.499847" x2="15.8733" y2="0.655439" gradientUnits="userSpaceOnUse">
<stop stop-color="#FFCE4F"/>
<stop offset="1" stop-color="#FFB800"/>
</linearGradient>
<linearGradient id="paint1_linear_247_210" x1="0.248198" y1="0.499847" x2="4.78538" y2="0.655438" gradientUnits="userSpaceOnUse">
<stop stop-color="#FFCE4F"/>
<stop offset="1" stop-color="#FFB800"/>
</linearGradient>
<linearGradient id="paint2_linear_247_210" x1="-0.224946" y1="-1.42764e-06" x2="16.6281" y2="1.09081" gradientUnits="userSpaceOnUse">
<stop stop-color="#FFCE4F"/>
<stop offset="1" stop-color="#FFB800"/>
</linearGradient>
<linearGradient id="paint3_linear_247_210" x1="4.97821" y1="14" x2="11.0435" y2="14.9616" gradientUnits="userSpaceOnUse">
<stop stop-color="#FFCE4F"/>
<stop offset="1" stop-color="#FFB800"/>
</linearGradient>
<clipPath id="clip0_247_210">
<rect width="16" height="16" fill="white"/>
</clipPath>
</defs>
</svg>
