<svg width="20" height="20" viewBox="0 0 20 20" fill="none" xmlns="http://www.w3.org/2000/svg">
<path d="M10.0005 20.0002C8.02286 19.9999 6.08975 19.4132 4.44554 18.3144C2.80132 17.2155 1.51983 15.6539 0.763078 13.8268C0.0063258 11.9997 -0.191705 9.98928 0.194022 8.04967C0.57975 6.11006 1.53191 4.32837 2.93014 2.92985C4.81455 1.09974 7.3434 0.0845857 9.97018 0.103783C12.597 0.12298 15.1107 1.17498 16.9682 3.03245C18.8256 4.88991 19.8776 7.40365 19.8968 10.0304C19.916 12.6572 18.9009 15.1861 17.0708 17.0705C16.1445 18.002 15.0427 18.7406 13.829 19.2435C12.6154 19.7463 11.3141 20.0035 10.0005 20.0002ZM10.0005 1.95329C5.56334 1.95329 1.95357 5.56305 1.95357 10.0002C1.95357 14.4373 5.56334 18.047 10.0005 18.047C14.4376 18.047 18.0473 14.4373 18.0473 10.0002C18.0473 5.56305 14.4376 1.95329 10.0005 1.95329Z" fill="black"/>
<path d="M10.0001 14.7684C9.32943 14.7704 8.6651 14.6386 8.046 14.3807C7.4269 14.1228 6.86548 13.744 6.39461 13.2664C6.30407 13.1754 6.23237 13.0674 6.18359 12.9487C6.13481 12.8299 6.10993 12.7028 6.11036 12.5744C6.11078 12.446 6.13652 12.319 6.18608 12.2006C6.23565 12.0822 6.30808 11.9747 6.39922 11.8843C6.49036 11.7939 6.59843 11.7223 6.71725 11.6737C6.83607 11.6252 6.9633 11.6005 7.09167 11.6011C7.22004 11.6017 7.34703 11.6276 7.46537 11.6774C7.58371 11.7271 7.69108 11.7997 7.78133 11.891C8.07184 12.1839 8.41747 12.4164 8.79828 12.575C9.1791 12.7337 9.58755 12.8154 10.0001 12.8154C10.4126 12.8154 10.8211 12.7337 11.2019 12.575C11.5827 12.4164 11.9283 12.1839 12.2188 11.891C12.3091 11.7997 12.4165 11.7271 12.5348 11.6774C12.6532 11.6276 12.7801 11.6017 12.9085 11.6011C13.0369 11.6005 13.1641 11.6252 13.2829 11.6737C13.4017 11.7223 13.5098 11.7939 13.601 11.8843C13.6921 11.9747 13.7645 12.0822 13.8141 12.2006C13.8637 12.319 13.8894 12.446 13.8898 12.5744C13.8902 12.7028 13.8654 12.8299 13.8166 12.9487C13.7678 13.0674 13.6961 13.1754 13.6056 13.2664C13.1347 13.744 12.5733 14.1228 11.9542 14.3807C11.3351 14.6386 10.6708 14.7704 10.0001 14.7684Z" fill="black"/>
<path d="M7.08848 8.78066C6.79658 8.78074 6.51121 8.69425 6.26847 8.53214C6.02573 8.37003 5.83651 8.13957 5.72475 7.86991C5.613 7.60025 5.58372 7.30351 5.64061 7.01721C5.69751 6.73091 5.83804 6.46792 6.04441 6.26149C6.25079 6.05506 6.51375 5.91446 6.80003 5.85749C7.08632 5.80051 7.38307 5.82972 7.65275 5.9414C7.92244 6.05309 8.15295 6.24224 8.31513 6.48494C8.4773 6.72764 8.56387 7.01298 8.56387 7.30488C8.56335 7.69606 8.40775 8.07107 8.13119 8.34771C7.85462 8.62435 7.47965 8.78004 7.08848 8.78066ZM7.08848 6.82754C6.99407 6.82754 6.90178 6.85554 6.82328 6.90799C6.74478 6.96044 6.6836 7.03499 6.64747 7.12221C6.61134 7.20943 6.60189 7.30541 6.6203 7.39801C6.63872 7.4906 6.68419 7.57566 6.75094 7.64242C6.8177 7.70917 6.90276 7.75464 6.99535 7.77306C7.08795 7.79147 7.18393 7.78202 7.27115 7.74589C7.35837 7.70976 7.43292 7.64858 7.48537 7.57008C7.53783 7.49158 7.56582 7.39929 7.56582 7.30488C7.56561 7.17835 7.51526 7.05705 7.42578 6.96758C7.33631 6.8781 7.21501 6.82775 7.08848 6.82754Z" fill="black"/>
<path d="M12.9123 8.78066C12.6204 8.78066 12.3351 8.69411 12.0924 8.53195C11.8497 8.36979 11.6606 8.1393 11.5489 7.86964C11.4372 7.59998 11.4079 7.30325 11.4649 7.01697C11.5218 6.7307 11.6624 6.46774 11.8688 6.26135C12.0752 6.05496 12.3381 5.9144 12.6244 5.85746C12.9107 5.80052 13.2074 5.82974 13.4771 5.94144C13.7467 6.05314 13.9772 6.24229 14.1394 6.48498C14.3015 6.72767 14.3881 7.013 14.3881 7.30488C14.3877 7.69616 14.232 8.07129 13.9554 8.34796C13.6787 8.62463 13.3036 8.78025 12.9123 8.78066ZM12.9123 6.82754C12.8179 6.82762 12.7257 6.85568 12.6472 6.90818C12.5688 6.96067 12.5076 7.03525 12.4716 7.12248C12.4355 7.20971 12.4261 7.30568 12.4446 7.39825C12.463 7.49082 12.5085 7.57584 12.5753 7.64255C12.6421 7.70927 12.7271 7.7547 12.8197 7.77308C12.9123 7.79147 13.0083 7.78199 13.0955 7.74585C13.1827 7.70971 13.2572 7.64853 13.3096 7.57004C13.362 7.49155 13.39 7.39928 13.39 7.30488C13.3899 7.17825 13.3396 7.05683 13.25 6.96733C13.1604 6.87782 13.0389 6.82754 12.9123 6.82754Z" fill="black"/>
<path d="M7.41211 6.46484H6.73828C6.4794 6.46484 6.26953 6.67471 6.26953 6.93359V7.60742C6.26953 7.86631 6.4794 8.07617 6.73828 8.07617H7.41211C7.67099 8.07617 7.88086 7.86631 7.88086 7.60742V6.93359C7.88086 6.67471 7.67099 6.46484 7.41211 6.46484Z" fill="black"/>
<path d="M13.25 6.49902H12.5762C12.3173 6.49902 12.1074 6.70889 12.1074 6.96777V7.6416C12.1074 7.90048 12.3173 8.11035 12.5762 8.11035H13.25C13.5089 8.11035 13.7188 7.90048 13.7188 7.6416V6.96777C13.7188 6.70889 13.5089 6.49902 13.25 6.49902Z" fill="black"/>
</svg>
