<svg width="16" height="16" viewBox="0 0 16 16" fill="none" xmlns="http://www.w3.org/2000/svg">
<path d="M15.9862 9.86937C15.9857 9.86659 15.9851 9.86381 15.9845 9.86106C15.9805 9.84234 15.9758 9.82363 15.9701 9.80491C15.9685 9.79988 15.9667 9.79503 15.965 9.79007C15.9623 9.78188 15.9598 9.77366 15.9567 9.76551L13.9569 4.43256C13.8593 4.17239 13.6106 4 13.3327 4H11.3328C10.9647 4 10.6662 4.29845 10.6662 4.66661C10.6662 5.03477 10.9647 5.33321 11.3328 5.33321H12.8707L14.3706 9.33291H11.3328C10.9647 9.33291 10.6662 9.63136 10.6662 9.99952V11.3328H5.33327V9.99952C5.33327 9.63136 5.03482 9.33291 4.66666 9.33291H1.62889L3.12878 5.33321H4.66666C5.03482 5.33321 5.33327 5.03477 5.33327 4.66661C5.33327 4.29845 5.03482 4 4.66666 4H2.66681C2.38892 4 2.14019 4.17236 2.04264 4.43256L0.0427854 9.76551C0.0397232 9.77366 0.0371921 9.78182 0.0344735 9.79C0.0328174 9.795 0.0309426 9.79988 0.0294114 9.80494C0.0236618 9.82363 0.0190372 9.84234 0.014975 9.86106C0.0143813 9.86384 0.0138188 9.86662 0.0132564 9.86944C0.00288213 9.92065 -0.00130506 9.97171 0.000351066 10.0219V15.3326C0.000351066 15.7007 0.298798 15.9992 0.666958 15.9992H15.3325C15.7007 15.9992 15.9991 15.7007 15.9991 15.3326V10.0219C16.0008 9.97168 15.9966 9.92062 15.9862 9.86937ZM14.6659 14.6659H1.33357V10.6662H4.00002V11.9994C4.00002 12.3676 4.29847 12.666 4.66663 12.666H11.3328C11.701 12.666 11.9994 12.3676 11.9994 11.9994V10.6662H14.6659V14.6659H14.6659Z" fill="black"/>
<path d="M5.52825 7.13802L7.5281 9.13787C7.52822 9.13799 7.52835 9.13805 7.52844 9.13818C7.54388 9.15358 7.56006 9.16818 7.57694 9.18202C7.58466 9.18836 7.59278 9.19386 7.60072 9.1998C7.61019 9.20689 7.61947 9.21424 7.62931 9.22083C7.63881 9.22717 7.64865 9.23267 7.65837 9.23848C7.66731 9.24383 7.67602 9.24942 7.68524 9.25436C7.69515 9.25967 7.70533 9.26414 7.71546 9.26892C7.72508 9.27345 7.73452 9.27826 7.74436 9.28236C7.75417 9.28642 7.76421 9.2897 7.77414 9.29326C7.7847 9.29707 7.79514 9.3011 7.80595 9.30439C7.81589 9.30739 7.82601 9.3096 7.83607 9.31213C7.84711 9.31492 7.85798 9.31801 7.86923 9.32023C7.88085 9.32254 7.8926 9.32388 7.90429 9.32557C7.9141 9.32698 7.92372 9.32885 7.93369 9.32982C7.95535 9.33195 7.97706 9.3331 7.99878 9.3331C7.999 9.3331 7.99925 9.33313 7.99947 9.33313C7.99969 9.33313 7.99994 9.3331 8.00016 9.3331C8.02187 9.33307 8.04359 9.33195 8.06524 9.32982C8.07518 9.32885 8.08484 9.32698 8.09465 9.32557C8.10637 9.32388 8.11808 9.32254 8.12971 9.32023C8.14093 9.31801 8.15183 9.31492 8.16286 9.31213C8.17292 9.3096 8.18302 9.30739 8.19299 9.30439C8.2038 9.3011 8.21423 9.29707 8.2248 9.29326C8.23473 9.2897 8.24476 9.28642 8.25457 9.28236C8.26442 9.27826 8.27389 9.27348 8.28348 9.26892C8.2936 9.26414 8.30379 9.25967 8.3137 9.25436C8.32288 9.24942 8.33163 9.24383 8.34057 9.23848C8.35029 9.23267 8.36013 9.22717 8.36963 9.22083C8.37947 9.21424 8.38875 9.20689 8.39822 9.1998C8.40616 9.19386 8.41428 9.18836 8.422 9.18202C8.43887 9.16818 8.45509 9.15358 8.47049 9.13818C8.47062 9.13805 8.47075 9.13799 8.47084 9.13787L10.4707 7.13802C10.731 6.87769 10.731 6.4556 10.4707 6.19527C10.2104 5.93495 9.78827 5.93495 9.52795 6.19527L8.66607 7.05715V0.667095C8.66607 0.298935 8.36763 0.000488281 7.99947 0.000488281C7.63131 0.000488281 7.33286 0.298935 7.33286 0.667095V7.05715L6.47099 6.19527C6.21067 5.93495 5.78857 5.93495 5.52825 6.19527C5.26793 6.4556 5.26793 6.87766 5.52825 7.13802Z" fill="black"/>
</svg>
