<svg width="16" height="16" viewBox="0 0 16 16" fill="none" xmlns="http://www.w3.org/2000/svg">
<path d="M10.3291 10.1722C10.5719 9.92758 10.5704 9.53256 10.3259 9.28976C10.0813 9.04696 9.68627 9.04843 9.44347 9.29306L5.6997 13.0648L2.95898 10.3158L8.33983 4.91647L11.5069 8.08359C11.7506 8.32724 12.1456 8.32724 12.3893 8.08359L12.4159 8.05697L15.3077 5.21188C15.3089 5.21066 15.3102 5.20956 15.3114 5.20834C16.1058 4.41391 16.0705 3.61069 15.9011 3.07688C15.7307 2.53989 15.3531 1.999 14.6771 1.32297C14.001 0.646824 13.4601 0.269383 12.9232 0.098973C12.3893 -0.0704605 11.586 -0.105861 10.7909 0.689304L1.61621 9.89535C1.54052 9.97116 1.48571 10.0653 1.45703 10.1684L0.0540749 15.2087C-0.00634983 15.4261 0.0551735 15.6593 0.215208 15.8183C0.333738 15.9362 0.492551 16 0.655271 16C0.712155 16 0.769406 15.9921 0.825681 15.9762L5.82018 14.5575C5.94067 14.5351 6.05578 14.4774 6.14867 14.3839L10.3291 10.1722ZM12.5456 1.2883C12.9817 1.42673 13.4673 1.87802 13.7947 2.20529C14.1221 2.53269 14.5732 3.01828 14.7117 3.45444C14.7853 3.68625 14.8021 3.95212 14.4305 4.32431L13.6129 5.12875L10.8661 2.38193L11.6742 1.57102C12.0471 1.19785 12.3135 1.21469 12.5456 1.2883ZM9.9851 3.26572L12.7233 6.004L11.9514 6.7634L9.22081 4.03269L9.9851 3.26572ZM2.75012 14.1323L1.88964 13.2677L2.38073 11.5034L4.50488 13.6339L2.75012 14.1323ZM16.0011 15.3482C16.0011 15.6928 15.7218 15.9721 15.3772 15.9721H7.79613C7.45153 15.9721 7.17211 15.6928 7.17211 15.3482C7.17211 15.0036 7.45153 14.7242 7.79613 14.7242H15.3772C15.7217 14.7242 16.0011 15.0036 16.0011 15.3482Z" fill="black"/>
</svg>
