<svg width="16" height="16" viewBox="0 0 16 16" fill="none" xmlns="http://www.w3.org/2000/svg">
<path d="M14.125 2.125H1.875C0.841125 2.125 0 2.96613 0 4V12C0 13.0339 0.841125 13.875 1.875 13.875H14.125C15.1589 13.875 16 13.0339 16 12V4C16 2.96613 15.1589 2.125 14.125 2.125ZM14.75 12C14.75 12.3446 14.4696 12.625 14.125 12.625H1.875C1.53038 12.625 1.25 12.3446 1.25 12V6.6875H14.75V12ZM14.75 4.8125H1.25V4C1.25 3.65538 1.53038 3.375 1.875 3.375H14.125C14.4696 3.375 14.75 3.65538 14.75 4V4.8125Z" fill="black"/>
<path d="M10.375 7.625H2.125V8.875H10.375V7.625Z" fill="black"/>
</svg>
