<svg width="80" height="80" viewBox="0 0 80 80" fill="none" xmlns="http://www.w3.org/2000/svg">
<path d="M73.2306 14.7436C65.7666 7.27963 53.6658 7.27963 46.2018 14.7436L39.9994 20.9454L33.7976 14.7436C26.3336 7.27963 14.2328 7.27963 6.7688 14.7436C-0.695191 22.207 -0.695191 34.3084 6.7688 41.7718L36.6882 71.6919C38.5169 73.5205 41.4819 73.5205 43.3106 71.6919L73.2306 41.7718C80.694 34.3084 80.694 22.207 73.2306 14.7436Z" fill="#FF6478"/>
<path d="M73.2287 41.7737L43.313 71.6901C41.4825 73.5199 38.5168 73.5199 36.6864 71.6901L34.7662 69.7699C34.9548 69.6283 35.1392 69.4739 35.3107 69.3024L65.2313 39.3823C72.6929 31.9159 72.6929 19.8163 65.2313 12.3505C63.9624 11.0815 62.561 10.0275 61.0693 9.19189C65.5011 9.50439 69.8389 11.3519 73.2287 14.7418C80.6952 22.2082 80.6952 34.3079 73.2287 41.7737Z" fill="#CE3F63"/>
<path d="M8.42773 13.0817H41.7249V30.1587H8.42773V13.0817Z" fill="#BA6F3C"/>
<path d="M44.3024 28.8666C44.3024 31.2976 42.3315 33.2684 39.9005 33.2684C37.4695 33.2684 35.4987 31.2976 35.4987 28.8666C35.4987 26.4355 37.4695 24.4647 39.9005 24.4647C42.3315 24.4647 44.3024 26.4355 44.3024 28.8666Z" fill="#E39F6E"/>
<path d="M14.6539 28.8666C14.6539 31.2976 12.6831 33.2684 10.2521 33.2684C7.82105 33.2684 5.85022 31.2976 5.85022 28.8666C5.85022 26.4355 7.82105 24.4647 10.2521 24.4647C12.6831 24.4647 14.6539 26.4355 14.6539 28.8666Z" fill="#E39F6E"/>
<path d="M25.0763 43.6096C19.0924 43.6096 14.0454 39.154 13.3038 33.2165L12.1448 23.9374C11.5973 19.5557 15.014 15.6854 19.4299 15.6854H30.722C35.1379 15.6854 38.5547 19.5557 38.0072 23.9374L36.8481 33.2165C36.1066 39.154 31.0596 43.6096 25.0763 43.6096Z" fill="#F8C298"/>
<path d="M32.6917 18.653H8.39356C7.51404 18.653 6.80054 17.9401 6.80054 17.0599V15.3735C6.80054 8.7384 12.1796 3.35938 18.8147 3.35938H43.1128C43.9923 3.35938 44.7058 4.07288 44.7058 4.95239V6.63941C44.7058 13.2745 39.3268 18.653 32.6917 18.653Z" fill="#C2C6CC"/>
<path d="M74.1492 72.0618C74.1492 74.7406 71.9775 76.9122 69.2987 76.9122C66.6205 76.9122 64.4489 74.7406 64.4489 72.0618C64.4489 69.3835 66.6205 67.2119 69.2987 67.2119C71.9775 67.2119 74.1492 69.3835 74.1492 72.0618Z" fill="#BA6F3C"/>
<path d="M42.7826 72.0618C42.7826 74.7406 40.611 76.9122 37.9321 76.9122C35.2533 76.9122 33.0817 74.7406 33.0817 72.0618C33.0817 69.3835 35.2533 67.2119 37.9321 67.2119C40.611 67.2119 42.7826 69.3835 42.7826 72.0618Z" fill="#BA6F3C"/>
<path d="M50.7269 74.538H56.5039C64.0454 74.538 70.3742 68.8525 71.1798 61.3544L71.7627 55.9338C72.9224 45.144 64.4672 35.7324 53.6157 35.7324C42.7637 35.7324 34.3091 45.144 35.4681 55.9338L36.051 61.3544C36.8567 68.8525 43.1854 74.538 50.7269 74.538Z" fill="#D88852"/>
<path d="M72.5372 61.9605C72.5372 64.353 70.5975 66.2927 68.2049 66.2927C65.8124 66.2927 63.8727 64.353 63.8727 61.9605C63.8727 59.5673 65.8124 57.6282 68.2049 57.6282C70.5975 57.6282 72.5372 59.5673 72.5372 61.9605Z" fill="#F8C298"/>
<path d="M43.3582 61.9605C43.3582 64.353 41.4185 66.2927 39.0259 66.2927C36.6333 66.2927 34.6936 64.353 34.6936 61.9605C34.6936 59.5673 36.6333 57.6282 39.0259 57.6282C41.4185 57.6282 43.3582 59.5673 43.3582 61.9605Z" fill="#F8C298"/>
<path d="M39.9597 49.6729L42.0294 66.2415C42.7594 72.085 47.7264 76.4703 53.6157 76.4703C59.5044 76.4703 64.4714 72.085 65.2014 66.2415L67.2711 49.6729H39.9597Z" fill="#FFD6C0"/>
<path d="M37.8577 48.1262V52.8925C37.8577 52.8925 46.7926 56.0724 53.2281 50.1801C53.2281 50.1801 55.6988 58.0365 66.3312 59.6558C67.1435 59.7797 67.9004 59.2127 68.0084 58.3984L69.3732 48.1256H37.8577V48.1262Z" fill="#D88852"/>
<path d="M62.3175 66.0907C62.3175 66.7377 61.7932 67.262 61.1462 67.262C60.4999 67.262 59.9756 66.7377 59.9756 66.0907C59.9756 65.4443 60.4999 64.92 61.1462 64.92C61.7932 64.92 62.3175 65.4443 62.3175 66.0907Z" fill="#B65C74"/>
<path d="M47.2552 66.0907C47.2552 66.7377 46.731 67.262 46.0846 67.262C45.4376 67.262 44.9133 66.7377 44.9133 66.0907C44.9133 65.4443 45.4376 64.92 46.0846 64.92C46.731 64.92 47.2552 65.4443 47.2552 66.0907Z" fill="#B65C74"/>
<path d="M30.1367 49.1827C28.2044 47.2504 25.0714 47.2504 23.1384 49.1827L21.5326 50.7886L19.9274 49.1827C17.9944 47.2504 14.8615 47.2504 12.9291 49.1827C10.9961 51.1151 10.9961 54.2487 12.9291 56.181L20.6757 63.9276C21.1487 64.4012 21.9165 64.4012 22.3901 63.9276L30.1367 56.181C32.0697 54.2487 32.0697 51.1151 30.1367 49.1827Z" fill="#FFA214"/>
<path d="M30.1367 56.1816L22.3907 63.927C21.9165 64.4012 21.1487 64.4012 20.675 63.927L20.1776 63.4302C20.2264 63.3936 20.2747 63.3533 20.3186 63.3087L28.0658 55.5621C29.9976 53.6285 29.9976 50.4962 28.0658 48.5632C27.7374 48.2343 27.3743 47.9614 26.9885 47.7454C28.136 47.8259 29.259 48.3044 30.1367 49.1821C32.0697 51.1157 32.0697 54.2487 30.1367 56.1816Z" fill="#935A04"/>
<path d="M79.5001 23.775C78.6585 20.0421 76.7767 16.6327 74.0589 13.9148C70.2277 10.0836 65.1343 7.97363 59.7162 7.97363C54.2981 7.97363 49.2041 10.0836 45.3729 13.9148L42.8961 16.3916V14.9793C44.7583 12.7051 45.8777 9.80103 45.8777 6.63941V4.95239C45.8777 3.42773 44.6375 2.1875 43.1128 2.1875H34.8315C34.1846 2.1875 33.6597 2.7124 33.6597 3.35938C33.6597 4.00635 34.1846 4.53125 34.8315 4.53125H43.1128C43.3447 4.53125 43.5339 4.72046 43.5339 4.95239V6.63941C43.5339 12.2247 39.2877 16.8366 33.8538 17.4182C35.1447 16.5082 36.2799 15.3613 37.1912 14.0125C37.5537 13.476 37.4127 12.7472 36.8762 12.3853C36.3397 12.0227 35.6116 12.1637 35.249 12.7002C33.8361 14.7919 31.7694 16.2933 29.422 17.0093C30.4865 16.1725 31.4307 15.1666 32.2101 14.0125C32.5726 13.476 32.4316 12.7472 31.8951 12.3853C31.3586 12.0227 30.6305 12.1637 30.2679 12.7002C28.2452 15.694 24.884 17.4811 21.2769 17.4811H8.39355C8.16162 17.4811 7.97241 17.2925 7.97241 17.0599V15.3735C7.97241 9.39514 12.8363 4.53125 18.8147 4.53125H29.7284C30.3754 4.53125 30.9003 4.00635 30.9003 3.35938C30.9003 2.7124 30.3754 2.1875 29.7284 2.1875H18.8147C11.9482 2.1875 6.29333 7.46399 5.68603 14.1748C2.40234 17.5781 0.407097 22.0264 0.0561443 26.7438C-0.299691 31.5302 1.04919 36.294 3.85497 40.1581C4.08386 40.4736 4.44152 40.6415 4.80407 40.6415C5.04272 40.6415 5.28381 40.5689 5.49133 40.4175C6.01501 40.0372 6.13159 39.3042 5.75134 38.7805C3.27087 35.365 2.07824 31.1517 2.39318 26.9177C2.63976 23.6054 3.8037 20.4431 5.7257 17.7741C5.94116 18.5785 6.50939 19.2383 7.25585 19.577V24.1705C5.70739 25.1617 4.67834 26.8958 4.67834 28.8666C4.67834 31.9397 7.17834 34.4403 10.2521 34.4403C10.9454 34.4403 11.6199 34.3146 12.2516 34.0717C13.3655 40.2252 18.7561 44.7815 25.0763 44.7815C31.3959 44.7815 36.7859 40.2258 37.9004 34.0723C38.5309 34.3146 39.2047 34.4403 39.9005 34.4403C42.9736 34.4403 45.4742 31.9403 45.4742 28.8666C45.4742 26.8958 44.4452 25.1617 42.8967 24.1705V19.7064L47.0306 15.5725C50.4193 12.1838 54.9243 10.3174 59.7162 10.3174C64.5081 10.3174 69.0131 12.1838 72.4017 15.5725C77.2461 20.4163 78.9032 27.4646 76.7267 33.9673C76.5216 34.5813 76.8524 35.2454 77.4658 35.4504C77.5897 35.492 77.7149 35.5115 77.8382 35.5115C78.3283 35.5115 78.7854 35.2014 78.9496 34.7113C80.1288 31.1871 80.3192 27.4054 79.5001 23.775ZM9.5996 19.8248H11.5424C11.0925 20.9338 10.8783 22.1289 10.9222 23.3344C10.7007 23.3075 10.4773 23.2929 10.2521 23.2929C10.0311 23.2929 9.81323 23.3069 9.5996 23.3325V19.8248ZM7.02209 28.8666C7.02209 27.0856 8.47106 25.6366 10.2521 25.6366C10.5749 25.6366 10.8905 25.6836 11.1932 25.7764L11.9244 31.629C11.4215 31.9348 10.8496 32.0966 10.2521 32.0966C8.47106 32.0966 7.02209 30.6476 7.02209 28.8666ZM25.0763 42.4378C19.6948 42.4378 15.1337 38.4113 14.4665 33.0713L13.3075 23.7921C13.1348 22.4066 13.4351 21.0089 14.1553 19.8248H32.6917C33.7476 19.8248 34.773 19.6967 35.7575 19.4617C36.6431 20.7123 37.0361 22.2571 36.8445 23.7921L35.6854 33.0713C35.0183 38.4113 30.4578 42.4378 25.0763 42.4378ZM39.9005 32.0966C39.3005 32.0966 38.7299 31.9336 38.2282 31.6278L38.9587 25.7764C39.2621 25.6842 39.577 25.6366 39.9005 25.6366C41.6815 25.6366 43.1305 27.0856 43.1305 28.8666C43.1305 30.6476 41.6815 32.0966 39.9005 32.0966ZM39.9005 23.2929C39.6735 23.2929 39.4495 23.3075 39.2279 23.3337C39.2865 21.698 38.8715 20.0848 38.0426 18.6865C38.9356 18.288 39.7772 17.7966 40.5524 17.2192V23.3325C40.3387 23.3069 40.1209 23.2929 39.9005 23.2929Z" fill="black"/>
<path d="M76.2195 37.9742C75.683 37.6117 74.9548 37.7527 74.5923 38.2892C73.9502 39.2389 73.2129 40.1318 72.4017 40.9436L69.9182 43.4265C69.3683 42.5769 68.75 41.7664 68.0652 41.004C64.3866 36.9092 59.1199 34.5605 53.6151 34.5605C42.9041 34.5605 34.1901 43.2605 34.1901 53.9533C34.1901 54.6564 34.2279 55.3656 34.303 56.0596L34.588 58.7091C33.9185 59.6204 33.5217 60.7446 33.5217 61.9598C33.5217 63.7964 34.4269 65.4248 35.813 66.4252C35.1801 66.6638 34.5972 67.0062 34.0857 67.4316L27.3145 60.6604L30.965 57.0093C32.121 55.8533 32.7576 54.3164 32.7576 52.6813C32.7576 51.0468 32.121 49.5099 30.965 48.3539C28.5785 45.9674 24.696 45.9674 22.3096 48.3539L21.5326 49.1309L20.755 48.3539C18.8788 46.4771 16.0773 46.0773 13.8055 47.1515L9.04907 42.395C8.59131 41.9373 7.84912 41.9373 7.39136 42.395C6.9342 42.8522 6.9342 43.5944 7.39136 44.0521L11.9019 48.562C9.71619 50.9607 9.78149 54.6912 12.1002 57.0093L19.8468 64.7559C20.3113 65.221 20.9216 65.4535 21.5326 65.4535C22.1429 65.4535 22.7539 65.221 23.2184 64.7559L25.6567 62.3175L32.6019 69.2621C32.1606 70.0995 31.9092 71.0516 31.9092 72.0618C31.9092 75.3827 34.6106 78.0841 37.9315 78.0841C40.556 78.0841 42.8046 76.4185 43.6237 74.0387C44.2871 74.3701 44.9768 74.6552 45.686 74.892C47.8827 76.618 50.6439 77.6416 53.6151 77.6416C56.5863 77.6416 59.3475 76.618 61.5448 74.8914C62.2534 74.6552 62.9419 74.3701 63.6054 74.0387C64.422 76.4209 66.665 78.0841 69.2987 78.0841C72.6196 78.0841 75.3211 75.3827 75.3211 72.0618C75.3211 69.4861 73.6957 67.2846 71.4172 66.4252C72.804 65.4248 73.7091 63.7964 73.7091 61.9598C73.7091 60.7446 73.3124 59.621 72.6428 58.7097L72.9279 56.0596C73.3179 52.4249 72.6666 48.7854 71.109 45.5505L74.0588 42.6001C74.9756 41.684 75.8081 40.6744 76.5338 39.6014C76.8964 39.0656 76.7554 38.3368 76.2195 37.9742ZM21.5619 63.0994C21.5533 63.1073 21.5125 63.1073 21.5045 63.0994L13.7573 55.3522C12.2852 53.88 12.2852 51.4838 13.7573 50.0116C14.4934 49.2749 15.4608 48.9069 16.4282 48.9069C17.395 48.9069 18.3624 49.2749 19.0985 50.0116L20.7043 51.6174C21.1621 52.0752 21.9037 52.0752 22.3615 51.6174L23.9673 50.0116C25.4401 48.5388 27.8357 48.5388 29.3079 50.0116C30.0214 50.7245 30.4144 51.673 30.4144 52.6819C30.4144 53.6908 30.0214 54.6393 29.3079 55.3522L21.5619 63.0994ZM53.6157 36.9043C58.4558 36.9043 63.0872 38.9697 66.3214 42.5702C69.5563 46.1707 71.1145 50.9961 70.5975 55.8093L70.4749 56.9476C70.1428 56.7969 69.7931 56.6779 69.4299 56.5949L69.7675 54.0533C69.8529 53.4119 69.4019 52.8229 68.7604 52.7374C68.1183 52.6526 67.5293 53.1036 67.4445 53.7451L66.8463 58.244C66.8329 58.3453 66.7761 58.407 66.731 58.4412C66.6852 58.4753 66.6095 58.5132 66.5076 58.4973C62.4207 57.8748 59.1345 56.2317 56.7419 53.6133C54.95 51.6528 54.35 49.8419 54.3457 49.8285C54.2255 49.447 53.9185 49.1522 53.5315 49.0485C53.1445 48.9447 52.7313 49.0454 52.4365 49.3164C47.8186 53.5443 41.7102 52.6593 39.2981 52.0825C38.6688 51.9318 38.0365 52.3206 37.8857 52.9498C37.7356 53.5791 38.1238 54.2114 38.7531 54.3622C38.9429 54.4074 39.1541 54.4543 39.3817 54.5007L39.6301 56.4899C39.4305 56.4685 39.2285 56.4563 39.0253 56.4563C38.2166 56.4563 37.4481 56.6333 36.7554 56.9482L36.6333 55.8087C36.5674 55.1971 36.5338 54.5734 36.5338 53.9533C36.5338 44.5526 44.1968 36.9043 53.6157 36.9043ZM65.2997 70.1282C65.7336 69.1803 66.0571 68.169 66.2512 67.1082C66.7206 67.2864 67.2138 67.3993 67.7216 67.4432C67.0355 68.4436 66.2195 69.3463 65.2997 70.1282ZM68.205 65.1202C67.6227 65.1202 67.0679 64.9634 66.579 64.668L67.063 60.7941C67.4475 60.719 67.8137 60.5585 68.1378 60.3156C68.6054 59.9646 68.9331 59.4806 69.0894 58.9282C70.4022 59.3121 71.3654 60.5249 71.3654 61.9605C71.3654 63.703 69.9475 65.1202 68.205 65.1202ZM39.5075 67.442C40.0147 67.3981 40.5084 67.2833 40.979 67.1045C41.1731 68.1659 41.4966 69.1785 41.9312 70.1276C41.0107 69.3457 40.1935 68.443 39.5075 67.442ZM39.0259 58.8001C39.3378 58.8001 39.6423 58.8446 39.9359 58.9331L40.6525 64.6704C40.1624 64.9658 39.6051 65.1202 39.0259 65.1202C37.2833 65.1202 35.8655 63.703 35.8655 61.9605C35.8655 60.2173 37.2833 58.8001 39.0259 58.8001ZM37.9321 75.7404C35.9039 75.7404 34.2535 74.0906 34.2535 72.0618C34.2535 70.2319 35.5969 68.7103 37.3492 68.4302C38.4576 70.1392 39.8853 71.6193 41.5393 72.7893C41.2006 74.4946 39.707 75.7404 37.9321 75.7404ZM43.1921 66.0962L41.7871 54.8462C44.8407 55.105 49.0613 54.7784 52.7802 52.0606C54.0424 54.4568 57.337 58.9655 64.7308 60.5524L64.0387 66.0962C63.3832 71.3422 58.9026 75.2985 53.6157 75.2985C48.3283 75.2985 43.8477 71.3422 43.1921 66.0962ZM72.9773 72.0618C72.9773 74.0906 71.3275 75.7404 69.2987 75.7404C67.5177 75.7404 66.0297 74.4952 65.6928 72.7881C67.3456 71.618 68.7732 70.1379 69.8816 68.4302C71.6339 68.7103 72.9773 70.2319 72.9773 72.0618Z" fill="black"/>
<path d="M18.352 26.7456C17.7051 26.7627 17.1948 27.3017 17.2125 27.9486L17.2314 28.6469C17.2491 29.2829 17.7698 29.7864 18.4021 29.7864C18.4131 29.7864 18.4241 29.7864 18.4351 29.7858C19.082 29.7681 19.5923 29.2292 19.5746 28.5828L19.555 27.8845C19.538 27.2376 19.0015 26.7291 18.352 26.7456Z" fill="black"/>
<path d="M31.2573 26.7456C30.6104 26.7627 30.1007 27.3017 30.1184 27.9486L30.1373 28.6469C30.1544 29.2829 30.6757 29.7864 31.308 29.7864C31.319 29.7864 31.33 29.7864 31.341 29.7858C31.9879 29.7681 32.4976 29.2292 32.4799 28.5828L32.461 27.8845C32.4433 27.2376 31.9068 26.7291 31.2573 26.7456Z" fill="black"/>
<path d="M29.4562 31.8433C28.9325 31.4642 28.1995 31.5814 27.8198 32.1051C27.1301 33.0579 26.0187 33.6261 24.8468 33.6261C23.6743 33.6261 22.5629 33.0579 21.8732 32.1051C21.4929 31.5814 20.7611 31.4642 20.2362 31.8433C19.7119 32.2235 19.5947 32.9559 19.9744 33.4802C21.1035 35.0391 22.9248 35.9705 24.8462 35.9705C26.7682 35.9705 28.5895 35.0391 29.718 33.4802C30.0977 32.9559 29.9805 32.2229 29.4562 31.8433Z" fill="black"/>
<path d="M47.2229 59.8541C46.5759 59.8718 46.0663 60.4108 46.084 61.0577L46.1029 61.7444C46.12 62.3803 46.6412 62.8839 47.2736 62.8839C47.2846 62.8839 47.2955 62.8839 47.3065 62.8833C47.9535 62.8656 48.4631 62.3266 48.4454 61.6797L48.4265 60.993C48.4088 60.3461 47.8674 59.8346 47.2229 59.8541Z" fill="black"/>
<path d="M61.1286 60.993C61.1109 60.3571 60.5896 59.8535 59.9573 59.8535C59.9469 59.8535 59.9359 59.8535 59.9249 59.8541C59.278 59.8718 58.7677 60.4108 58.7854 61.0571L58.8043 61.7444C58.8214 62.3804 59.3427 62.8839 59.975 62.8839C59.986 62.8839 59.997 62.8839 60.0073 62.8833C60.6549 62.8656 61.1646 62.3267 61.1469 61.6803L61.1286 60.993Z" fill="black"/>
<path d="M58.1634 64.8749C57.6392 64.4953 56.9067 64.6124 56.5271 65.1367C55.8521 66.0693 54.7632 66.626 53.6157 66.626C52.4677 66.626 51.3794 66.0693 50.7037 65.1367C50.3241 64.6124 49.5917 64.4953 49.0674 64.8749C48.5431 65.2545 48.4259 65.9876 48.8056 66.5112C49.9201 68.0512 51.7181 68.9697 53.6151 68.9697C55.5121 68.9697 57.3102 68.0506 58.4253 66.5112C58.8049 65.987 58.6877 65.2545 58.1634 64.8749Z" fill="black"/>
<path d="M6.46789 59.4672H6.47948C7.12157 59.4672 7.64525 58.9502 7.65136 58.3069L7.65624 57.8278C7.66234 57.1802 7.14294 56.6504 6.49535 56.6443C6.49169 56.6443 6.48803 56.6443 6.48376 56.6443C5.84228 56.6443 5.3186 57.1613 5.31249 57.8046L5.30761 58.2843C5.30151 58.9313 5.82091 59.4611 6.46789 59.4672Z" fill="black"/>
<path d="M6.45508 61.2488C5.80994 61.2476 5.27832 61.7621 5.27161 62.4097L5.26734 62.8888C5.26062 63.5358 5.78064 64.0656 6.42762 64.0717H6.43921C7.0813 64.0717 7.60437 63.5547 7.61109 62.9114L7.61536 62.4323C7.62146 61.7847 7.10205 61.2549 6.45508 61.2488Z" fill="black"/>
<path d="M10.1752 60.3925C10.1819 59.7449 9.66247 59.2151 9.0155 59.209L8.53576 59.2041C8.5321 59.2041 8.52782 59.2041 8.52416 59.2041C7.88207 59.2041 7.35839 59.7217 7.35229 60.3644C7.34618 61.012 7.86559 61.5417 8.51257 61.5479L8.99169 61.5527H9.0039C9.64538 61.5527 10.1691 61.0358 10.1752 60.3925Z" fill="black"/>
<path d="M4.4104 59.1687L3.93128 59.1638C3.29041 59.1559 2.75391 59.6771 2.74781 60.3241C2.74109 60.971 3.2605 61.5008 3.90808 61.5075L4.38721 61.5118H4.39881C5.0409 61.5118 5.56458 60.9948 5.57068 60.3515C5.57679 59.7046 5.05738 59.1748 4.4104 59.1687Z" fill="black"/>
<path d="M12.9852 66.0235H12.9968C13.6389 66.0235 14.1626 65.5066 14.1687 64.8633L14.173 64.3835C14.1797 63.7366 13.6603 63.2068 13.0133 63.2001C12.3682 63.1915 11.8359 63.7134 11.8298 64.3603L11.825 64.8401C11.8182 65.4877 12.3376 66.0174 12.9852 66.0235Z" fill="black"/>
<path d="M12.9724 67.8052C12.3309 67.7991 11.7956 68.3185 11.7889 68.9654L11.784 69.4446C11.7779 70.0922 12.2974 70.6219 12.9443 70.628H12.9565C13.598 70.628 14.1217 70.1111 14.1278 69.4678L14.1327 68.9886C14.1388 68.3411 13.6194 67.8113 12.9724 67.8052Z" fill="black"/>
<path d="M15.5322 65.7654L15.0531 65.7605C15.0488 65.7605 15.0452 65.7605 15.0409 65.7605C14.3994 65.7605 13.8757 66.2775 13.8696 66.9208C13.8629 67.5684 14.3823 68.0981 15.0299 68.1042L15.509 68.1091H15.5206C16.1627 68.1091 16.6864 67.5916 16.6925 66.9489C16.6992 66.3013 16.1798 65.7715 15.5322 65.7654Z" fill="black"/>
<path d="M10.9277 65.7245L10.4486 65.7202C10.4443 65.7202 10.4407 65.7202 10.4364 65.7202C9.79493 65.7202 9.27124 66.2372 9.26514 66.8805C9.25843 67.5275 9.77784 68.0573 10.4248 68.064L10.9045 68.0682H10.9161C11.5582 68.0682 12.0819 67.5513 12.088 66.908C12.0941 66.261 11.5747 65.7312 10.9277 65.7245Z" fill="black"/>
<path d="M73.5492 7.15149H73.5608C74.2029 7.15149 74.7259 6.63391 74.7327 5.99121L74.7369 5.51148C74.7436 4.8645 74.2242 4.33472 73.5767 4.328C73.573 4.328 73.5687 4.328 73.5651 4.328C72.923 4.328 72.3999 4.84558 72.3932 5.48828L72.3889 5.96802C72.3822 6.61499 72.9016 7.14478 73.5492 7.15149Z" fill="black"/>
<path d="M73.5364 8.93312C72.8955 8.92335 72.3596 9.44581 72.3529 10.0928L72.348 10.5725C72.3419 11.2195 72.8613 11.7493 73.5083 11.756H73.5205C74.162 11.756 74.6857 11.239 74.6918 10.5957L74.6967 10.116C74.7028 9.46901 74.1833 8.93922 73.5364 8.93312Z" fill="black"/>
<path d="M75.5939 9.23157L76.073 9.23645H76.0846C76.7267 9.23645 77.2498 8.71948 77.2565 8.07617C77.2626 7.4292 76.7432 6.89941 76.0962 6.8927L75.6165 6.88782C75.6128 6.88782 75.6085 6.88782 75.6049 6.88782C74.9634 6.88782 74.4397 7.4054 74.433 8.0481C74.4275 8.69568 74.9463 9.22547 75.5939 9.23157Z" fill="black"/>
<path d="M70.9888 9.19127L71.4685 9.19616H71.4801C72.1222 9.19616 72.6452 8.67858 72.652 8.03588C72.6581 7.38829 72.1387 6.85851 71.4917 6.8524L71.012 6.84752C70.3625 6.83653 69.8352 7.36083 69.8285 8.0078C69.8224 8.65477 70.3418 9.18517 70.9888 9.19127Z" fill="black"/>
<path d="M54.9835 20.567H57.887C58.5346 20.567 59.0589 20.0421 59.0589 19.3951C59.0589 18.7476 58.5346 18.2233 57.887 18.2233H54.9835C54.3366 18.2233 53.8116 18.7476 53.8116 19.3951C53.8116 20.0421 54.3366 20.567 54.9835 20.567Z" fill="black"/>
<path d="M54.9835 25.0525H64.9676C65.6146 25.0525 66.1395 24.5276 66.1395 23.8806C66.1395 23.233 65.6146 22.7087 64.9676 22.7087H54.9835C54.3365 22.7087 53.8116 23.233 53.8116 23.8806C53.8116 24.5276 54.3365 25.0525 54.9835 25.0525Z" fill="black"/>
<path d="M54.9835 28.4558H64.9676C65.6146 28.4558 66.1395 27.9309 66.1395 27.2839C66.1395 26.637 65.6146 26.1121 64.9676 26.1121H54.9835C54.3365 26.1121 53.8116 26.637 53.8116 27.2839C53.8116 27.9309 54.3365 28.4558 54.9835 28.4558Z" fill="black"/>
</svg>
