<svg width="194" height="47" viewBox="0 0 194 47" fill="none" xmlns="http://www.w3.org/2000/svg">
<path d="M8.40437 36.2941L8.5 36.1626V36V35.0714H8V33.2143H8.5V31.3571H8V29.5H8.5V27.6429H8V25.7857H8.5V23.9286H8V22.0714H8.5V20.2143H8V18.3571H8.5V16.5H8V14.6429H8.5V12.7857H8V10.9286H8.5V10C8.5 9.68535 8.51528 9.37442 8.54511 9.06788L8.04746 9.01945C8.1119 8.35732 8.24092 7.7141 8.42813 7.09617L8.90665 7.24115C9.0886 6.64061 9.32845 6.06516 9.61977 5.52127L9.17901 5.2852C9.48945 4.7056 9.85534 4.16016 10.2696 3.65597L10.6559 3.97338C11.051 3.49248 11.4925 3.05105 11.9734 2.65593L11.656 2.2696C12.1602 1.85534 12.7056 1.48945 13.2852 1.17901L13.5213 1.61977C14.0652 1.32845 14.6406 1.0886 15.2411 0.906653L15.0962 0.428133C15.7141 0.240919 16.3573 0.111903 17.0194 0.0474633L17.0679 0.545112C17.3744 0.51528 17.6853 0.5 18 0.5H18.9881V0H20.9643V0.5H22.9405V0H24.9167V0.5H26.8929V0H28.869V0.5H30.8452V0H32.8214V0.5H34.7976V0H36.7738V0.5H38.75V0H40.7262V0.5H42.7024V0H44.6786V0.5H46.6548V0H48.631V0.5H50.6072V0H52.5834V0.5H54.5596V0H56.5358V0.5H58.512V0H60.4882V0.5H62.4644V0H64.4406V0.5H66.4167V0H68.3929V0.5H70.3691V0H72.3453V0.5H74.3215V0H76.2977V0.5H78.2739V0H80.2501V0.5H82.2262V0H84.2024V0.5H86.1786V0H88.1548V0.5H90.131V0H92.1072V0.5H94.0834V0H96.0596V0.5H98.0358V0H100.012V0.5H101.988V0H103.964V0.5H105.941V0H107.917V0.5H109.893V0H111.869V0.5H113.845V0H115.821V0.5H117.798V0H119.774V0.5H121.75V0H123.726V0.5H125.702V0H127.679V0.5H129.655V0H131.631V0.5H133.607V0H135.583V0.5H137.56V0H139.536V0.5H141.512V0H143.488V0.5H145.464V0H147.44V0.5H149.417V0H151.393V0.5H153.369V0H155.345V0.5H157.321V0H159.298V0.5H161.274V0H163.25V0.5H165.226V0H167.202V0.5H169.179V0H171.155V0.5H173.131V0H175.107V0.5H177.083V0H179.06V0.5H181.036V0H183.012V0.5H184C184.315 0.5 184.626 0.51528 184.932 0.545112L184.981 0.0474628C185.643 0.111902 186.286 0.240919 186.904 0.428133L186.759 0.906652C187.359 1.0886 187.935 1.32845 188.479 1.61977L188.715 1.17901C189.294 1.48945 189.84 1.85534 190.344 2.2696L190.027 2.65593C190.508 3.05105 190.949 3.49248 191.344 3.97338L191.73 3.65597C192.145 4.16016 192.511 4.7056 192.821 5.2852L192.38 5.52127C192.672 6.06516 192.911 6.64061 193.093 7.24115L193.572 7.09617C193.759 7.71409 193.888 8.35732 193.953 9.01945L193.455 9.06788C193.485 9.37442 193.5 9.68535 193.5 10V10.9643H194V12.8929H193.5V14.8214H194V16.75H193.5V18.6786H194V20.6071H193.5V22.5357H194V24.4643H193.5V26.3929H194V28.3214H193.5V30.25H194V32.1786H193.5V34.1071H194V36.0357H193.5V37C193.5 37.3147 193.485 37.6256 193.455 37.9321L193.953 37.9805C193.888 38.6427 193.759 39.2859 193.572 39.9038L193.093 39.7589C192.911 40.3594 192.672 40.9348 192.38 41.4787L192.821 41.7148C192.511 42.2944 192.145 42.8398 191.73 43.344L191.344 43.0266C190.949 43.5075 190.508 43.949 190.027 44.3441L190.344 44.7304C189.84 45.1447 189.294 45.5105 188.715 45.821L188.479 45.3802C187.935 45.6716 187.359 45.9114 186.759 46.0933L186.904 46.5719C186.286 46.7591 185.643 46.8881 184.981 46.9525L184.932 46.4549C184.626 46.4847 184.315 46.5 184 46.5H183.012V47H181.036V46.5H179.06V47H177.083V46.5H175.107V47H173.131V46.5H171.155V47H169.179V46.5H167.202V47H165.226V46.5H163.25V47H161.274V46.5H159.298V47H157.321V46.5H155.345V47H153.369V46.5H151.393V47H149.417V46.5H147.44V47H145.464V46.5H143.488V47H141.512V46.5H139.536V47H137.559V46.5H135.583V47H133.607V46.5H131.631V47H129.655V46.5H127.679V47H125.702V46.5H123.726V47H121.75V46.5H119.774V47H117.798V46.5H115.821V47H113.845V46.5H111.869V47H109.893V46.5H107.917V47H105.94V46.5H103.964V47H101.988V46.5H100.012V47H98.0357V46.5H96.0595V47H94.0833V46.5H92.1071V47H90.1309V46.5H88.1547V47H86.1785V46.5H84.2024V47H82.2262V46.5H80.25V47H78.2738V46.5H76.2976V47H74.3214V46.5H72.3452V47H70.369V46.5H68.3928V47H66.4167V46.5H64.4405V47H62.4643V46.5H60.4881V47H58.5119V46.5H56.5357V47H54.5595V46.5H52.5833V47H50.6071V46.5H48.631V47H46.6548V46.5H44.6786V47H42.7024V46.5H40.7262V47H38.75V46.5H36.7738V47H34.7976V46.5H32.8214V47H30.8452V46.5H28.869V47H26.8929V46.5H24.9167V47H22.9405V46.5H20.9643V47H18.9881V46.5H18H16.9977V47H14.9932V46.5H12.9887V47H10.9841V46.5H8.97962V47H6.97509V46.5H4.97056V47H2.96603V46.5H1.96377C1.86003 46.5 1.77319 46.4722 1.70227 46.4285L1.44015 46.8543C1.12254 46.6588 0.936198 46.2929 0.964882 45.921L1.4634 45.9594C1.46981 45.8764 1.49839 45.7898 1.5594 45.7059L2.12982 44.9216L1.72545 44.6275L2.86627 43.0589L3.27064 43.353L4.41147 41.7843L4.0071 41.4902L5.14793 39.9216L5.5523 40.2157L6.69313 38.647L6.28876 38.353L7.42959 36.7843L7.83395 37.0784L8.40437 36.2941Z" stroke="black" stroke-dasharray="2 2"/>
</svg>
