<svg width="20" height="20" viewBox="0 0 20 20" fill="none" xmlns="http://www.w3.org/2000/svg">
<g clip-path="url(#clip0_342_4578)">
<path d="M18.5547 18.8281H1.44531C1.06199 18.8281 0.694371 18.6759 0.423322 18.4048C0.152274 18.1338 0 17.7661 0 17.3828L0 2.61719C0 2.23387 0.152274 1.86625 0.423322 1.5952C0.694371 1.32415 1.06199 1.17188 1.44531 1.17188H18.5547C18.938 1.17188 19.3056 1.32415 19.5767 1.5952C19.8477 1.86625 20 2.23387 20 2.61719V17.3828C20 17.7661 19.8477 18.1338 19.5767 18.4048C19.3056 18.6759 18.938 18.8281 18.5547 18.8281ZM1.95312 16.875H18.0469V3.125H1.95312V16.875Z" fill="black"/>
<path d="M0.9762 16.3674C0.781388 16.3677 0.590933 16.3097 0.429319 16.201C0.267705 16.0922 0.142319 15.9376 0.0692803 15.757C-0.00375869 15.5764 -0.0211124 15.378 0.01945 15.1875C0.0600125 14.9969 0.156637 14.8229 0.296902 14.6877L5.17972 9.96114C5.35106 9.79523 5.57718 9.69776 5.81544 9.68711C6.0537 9.67646 6.28762 9.75336 6.47308 9.90332L9.78519 12.5818L13.4899 7.87168C13.5825 7.75409 13.701 7.65937 13.8361 7.59485C13.9712 7.53033 14.1193 7.49774 14.269 7.49959C14.4187 7.50144 14.566 7.53768 14.6995 7.60552C14.8329 7.67336 14.949 7.77097 15.0387 7.89082L19.8043 14.2189C19.8813 14.3215 19.9373 14.4383 19.9691 14.5625C20.0009 14.6868 20.008 14.816 19.9898 14.943C19.9717 15.0699 19.9287 15.1921 19.8634 15.3024C19.7981 15.4128 19.7116 15.5092 19.609 15.5861C19.5064 15.6631 19.3897 15.7191 19.2655 15.7509C19.1412 15.7827 19.0119 15.7898 18.885 15.7716C18.758 15.7535 18.6359 15.7105 18.5255 15.6452C18.4152 15.5799 18.3188 15.4934 18.2418 15.3908L14.2407 10.0783L10.7086 14.5705C10.6287 14.6722 10.5294 14.7571 10.4164 14.8201C10.3034 14.8831 10.179 14.923 10.0505 14.9375C9.92194 14.9521 9.79179 14.9409 9.66759 14.9048C9.54338 14.8686 9.42761 14.8081 9.32699 14.7268L5.91722 11.9693L1.6555 16.0939C1.47324 16.27 1.22957 16.368 0.9762 16.3674Z" fill="black"/>
<path d="M6.76757 8.23241C6.51455 8.23241 6.26722 8.15738 6.05684 8.01681C5.84646 7.87624 5.68249 7.67644 5.58566 7.44268C5.48884 7.20892 5.4635 6.9517 5.51286 6.70354C5.56222 6.45538 5.68407 6.22744 5.86298 6.04852C6.04189 5.86961 6.26984 5.74777 6.518 5.69841C6.76616 5.64905 7.02338 5.67438 7.25714 5.77121C7.4909 5.86804 7.6907 6.03201 7.83127 6.24238C7.97184 6.45276 8.04687 6.7001 8.04687 6.95312C8.04645 7.29228 7.91154 7.61744 7.67171 7.85726C7.43189 8.09708 7.10674 8.232 6.76757 8.23241ZM6.76757 6.2793C6.6343 6.2793 6.50403 6.31881 6.39322 6.39286C6.28241 6.4669 6.19604 6.57213 6.14504 6.69526C6.09404 6.81838 6.0807 6.95387 6.1067 7.08458C6.1327 7.21529 6.19687 7.33535 6.29111 7.42959C6.38534 7.52382 6.50541 7.588 6.63612 7.614C6.76683 7.64 6.90231 7.62665 7.02544 7.57565C7.14856 7.52465 7.2538 7.43829 7.32784 7.32748C7.40188 7.21667 7.4414 7.08639 7.4414 6.95312C7.44119 6.77447 7.37013 6.6032 7.24381 6.47688C7.11749 6.35056 6.94622 6.2795 6.76757 6.2793Z" fill="black"/>
<path d="M7.12891 6.16211H6.49414C6.23526 6.16211 6.02539 6.37198 6.02539 6.63086V7.26562C6.02539 7.52451 6.23526 7.73438 6.49414 7.73438H7.12891C7.38779 7.73438 7.59766 7.52451 7.59766 7.26562V6.63086C7.59766 6.37198 7.38779 6.16211 7.12891 6.16211Z" fill="black"/>
</g>
<defs>
<clipPath id="clip0_342_4578">
<rect width="20" height="20" fill="white"/>
</clipPath>
</defs>
</svg>
