<svg width="12" height="14" viewBox="0 0 12 14" fill="none" xmlns="http://www.w3.org/2000/svg">
<path fill-rule="evenodd" clip-rule="evenodd" d="M4 2.33301V1.99968C4 1.55767 4.176 1.13367 4.48867 0.821008C4.80067 0.508341 5.22467 0.333008 5.66667 0.333008H6.33333C6.77533 0.333008 7.19934 0.508341 7.512 0.821008C7.82467 1.13367 8 1.55767 8 1.99968V2.33301H11.3333C11.7013 2.33301 12 2.63168 12 2.99968C12 3.36768 11.7013 3.66634 11.3333 3.66634H10.6667V10.9997C10.6667 12.4723 9.47333 13.6663 8 13.6663C6.77867 13.6663 5.222 13.6663 4 13.6663C2.52733 13.6663 1.33333 12.4723 1.33333 10.9997V3.66634H0.666667C0.298667 3.66634 0 3.36768 0 2.99968C0 2.63168 0.298667 2.33301 0.666667 2.33301H4ZM9.33333 3.66634H2.66667V10.9997C2.66667 11.7363 3.264 12.333 4 12.333H8C8.73667 12.333 9.33333 11.7363 9.33333 10.9997V3.66634ZM6.66667 5.66634V10.333C6.66667 10.701 6.96533 10.9997 7.33333 10.9997C7.70133 10.9997 8 10.701 8 10.333V5.66634C8 5.29834 7.70133 4.99968 7.33333 4.99968C6.96533 4.99968 6.66667 5.29834 6.66667 5.66634ZM4 5.66634V10.333C4 10.701 4.29867 10.9997 4.66667 10.9997C5.03467 10.9997 5.33333 10.701 5.33333 10.333V5.66634C5.33333 5.29834 5.03467 4.99968 4.66667 4.99968C4.29867 4.99968 4 5.29834 4 5.66634ZM6.66667 2.33301V1.99968C6.66667 1.91101 6.632 1.82634 6.56934 1.76367C6.50667 1.70167 6.422 1.66634 6.33333 1.66634C6.11533 1.66634 5.88467 1.66634 5.66667 1.66634C5.57867 1.66634 5.494 1.70167 5.43134 1.76367C5.36867 1.82634 5.33333 1.91101 5.33333 1.99968V2.33301H6.66667Z" fill="url(#paint0_linear_326_3439)"/>
<defs>
<linearGradient id="paint0_linear_326_3439" x1="-2.18182" y1="10.333" x2="8.19165" y2="-1.74207" gradientUnits="userSpaceOnUse">
<stop stop-color="#FF6056"/>
<stop offset="1" stop-color="#FD3F61"/>
</linearGradient>
</defs>
</svg>
