<svg width="194" height="47" viewBox="0 0 194 47" fill="none" xmlns="http://www.w3.org/2000/svg">
<path d="M42.43 29H41.566V23.006H33.952V29H33.088V16.4H33.952V22.196H41.566V16.4H42.43V29ZM50.2428 19.874C51.2148 19.874 52.0548 20.126 52.7628 20.63C53.4828 21.122 54.0048 21.782 54.3288 22.61C54.4488 22.91 54.5268 23.27 54.5628 23.69C54.5988 24.098 54.5808 24.416 54.5088 24.644H46.4808C46.4808 25.784 46.8408 26.69 47.5608 27.362C48.2928 28.022 49.2468 28.358 50.4228 28.37C51.6588 28.37 52.7628 27.992 53.7348 27.236L54.2028 27.74C53.0868 28.652 51.8268 29.108 50.4228 29.108C49.0068 29.096 47.8548 28.67 46.9668 27.83C46.0908 26.99 45.6528 25.88 45.6528 24.5C45.6528 23.204 46.0788 22.112 46.9308 21.224C47.7948 20.324 48.8988 19.874 50.2428 19.874ZM50.2608 20.63C49.2168 20.63 48.3468 20.96 47.6508 21.62C46.9668 22.268 46.5948 23.078 46.5348 24.05H53.7888C53.8128 23.63 53.7468 23.228 53.5908 22.844C53.3268 22.172 52.9068 21.638 52.3308 21.242C51.7548 20.834 51.0648 20.63 50.2608 20.63ZM57.5153 29V16.4H58.3433V29H57.5153ZM61.8922 29V16.4H62.7202V29H61.8922ZM66.9892 21.224C67.8892 20.324 68.9752 19.874 70.2472 19.874C71.5192 19.874 72.6052 20.33 73.5052 21.242C74.4172 22.142 74.8732 23.228 74.8732 24.5C74.8732 25.772 74.4232 26.858 73.5232 27.758C72.6232 28.658 71.5312 29.108 70.2472 29.108C68.9752 29.108 67.8892 28.658 66.9892 27.758C66.0892 26.858 65.6392 25.772 65.6392 24.5C65.6392 23.216 66.0892 22.124 66.9892 21.224ZM70.2652 20.648C69.2092 20.648 68.3092 21.02 67.5652 21.764C66.8332 22.508 66.4672 23.42 66.4672 24.5C66.4672 25.58 66.8332 26.492 67.5652 27.236C68.3092 27.968 69.2092 28.334 70.2652 28.334C71.3092 28.334 72.2032 27.968 72.9472 27.236C73.6912 26.492 74.0632 25.58 74.0632 24.5C74.0632 23.42 73.6912 22.508 72.9472 21.764C72.2032 21.02 71.3092 20.648 70.2652 20.648ZM87.4206 19.874C88.3926 19.874 89.2326 20.126 89.9406 20.63C90.6606 21.122 91.1826 21.782 91.5066 22.61C91.6266 22.91 91.7046 23.27 91.7406 23.69C91.7766 24.098 91.7586 24.416 91.6866 24.644H83.6586C83.6586 25.784 84.0186 26.69 84.7386 27.362C85.4706 28.022 86.4246 28.358 87.6006 28.37C88.8366 28.37 89.9406 27.992 90.9126 27.236L91.3806 27.74C90.2646 28.652 89.0046 29.108 87.6006 29.108C86.1846 29.096 85.0326 28.67 84.1446 27.83C83.2686 26.99 82.8306 25.88 82.8306 24.5C82.8306 23.204 83.2566 22.112 84.1086 21.224C84.9726 20.324 86.0766 19.874 87.4206 19.874ZM87.4386 20.63C86.3946 20.63 85.5246 20.96 84.8286 21.62C84.1446 22.268 83.7726 23.078 83.7126 24.05H90.9666C90.9906 23.63 90.9246 23.228 90.7686 22.844C90.5046 22.172 90.0846 21.638 89.5086 21.242C88.9326 20.834 88.2426 20.63 87.4386 20.63ZM98.0787 29H97.6287L93.4887 20H94.3527L97.8447 27.65L101.355 20H102.219L98.0787 29ZM108.585 19.874C109.557 19.874 110.397 20.126 111.105 20.63C111.825 21.122 112.347 21.782 112.671 22.61C112.791 22.91 112.869 23.27 112.905 23.69C112.941 24.098 112.923 24.416 112.851 24.644H104.823C104.823 25.784 105.183 26.69 105.903 27.362C106.635 28.022 107.589 28.358 108.765 28.37C110.001 28.37 111.105 27.992 112.077 27.236L112.545 27.74C111.429 28.652 110.169 29.108 108.765 29.108C107.349 29.096 106.197 28.67 105.309 27.83C104.433 26.99 103.995 25.88 103.995 24.5C103.995 23.204 104.421 22.112 105.273 21.224C106.137 20.324 107.241 19.874 108.585 19.874ZM108.603 20.63C107.559 20.63 106.689 20.96 105.993 21.62C105.309 22.268 104.937 23.078 104.877 24.05H112.131C112.155 23.63 112.089 23.228 111.933 22.844C111.669 22.172 111.249 21.638 110.673 21.242C110.097 20.834 109.407 20.63 108.603 20.63ZM120.987 20.648H120.663C119.259 20.648 118.227 21.074 117.567 21.926C116.907 22.766 116.577 23.87 116.577 25.238V29H115.767V20H116.397L116.469 22.664C117.153 20.804 118.605 19.874 120.825 19.874H120.987V20.648ZM131.802 20V27.884C131.802 29.3 131.43 30.41 130.686 31.214C129.954 32.018 128.892 32.426 127.5 32.438C126.06 32.438 124.794 31.982 123.702 31.07L124.188 30.548C125.196 31.316 126.3 31.694 127.5 31.682C128.652 31.682 129.516 31.364 130.092 30.728C130.68 30.104 130.974 29.198 130.974 28.01V26.678C130.638 27.482 130.128 28.082 129.444 28.478C128.76 28.862 128.046 29.054 127.302 29.054C126.102 29.054 125.148 28.688 124.44 27.956C123.744 27.212 123.396 26.168 123.396 24.824V20H124.206V24.788C124.206 25.94 124.488 26.81 125.052 27.398C125.628 27.986 126.408 28.28 127.392 28.28C128.484 28.28 129.354 27.914 130.002 27.182C130.65 26.438 130.974 25.43 130.974 24.158V20H131.802ZM136.001 21.224C136.901 20.324 137.987 19.874 139.259 19.874C140.531 19.874 141.617 20.33 142.517 21.242C143.429 22.142 143.885 23.228 143.885 24.5C143.885 25.772 143.435 26.858 142.535 27.758C141.635 28.658 140.543 29.108 139.259 29.108C137.987 29.108 136.901 28.658 136.001 27.758C135.101 26.858 134.651 25.772 134.651 24.5C134.651 23.216 135.101 22.124 136.001 21.224ZM139.277 20.648C138.221 20.648 137.321 21.02 136.577 21.764C135.845 22.508 135.479 23.42 135.479 24.5C135.479 25.58 135.845 26.492 136.577 27.236C137.321 27.968 138.221 28.334 139.277 28.334C140.321 28.334 141.215 27.968 141.959 27.236C142.703 26.492 143.075 25.58 143.075 24.5C143.075 23.42 142.703 22.508 141.959 21.764C141.215 21.02 140.321 20.648 139.277 20.648ZM151.31 19.874C152.522 19.874 153.476 20.246 154.172 20.99C154.88 21.722 155.234 22.76 155.234 24.104V29H154.406V24.14C154.406 22.988 154.124 22.118 153.56 21.53C152.996 20.942 152.216 20.648 151.22 20.648C150.128 20.648 149.258 21.02 148.61 21.764C147.962 22.496 147.638 23.498 147.638 24.77V29H146.828V20H147.458L147.512 22.358C147.848 21.518 148.37 20.894 149.078 20.486C149.786 20.078 150.53 19.874 151.31 19.874ZM162.673 19.874C163.645 19.874 164.485 20.126 165.193 20.63C165.913 21.122 166.435 21.782 166.759 22.61C166.879 22.91 166.957 23.27 166.993 23.69C167.029 24.098 167.011 24.416 166.939 24.644H158.911C158.911 25.784 159.271 26.69 159.991 27.362C160.723 28.022 161.677 28.358 162.853 28.37C164.089 28.37 165.193 27.992 166.165 27.236L166.633 27.74C165.517 28.652 164.257 29.108 162.853 29.108C161.437 29.096 160.285 28.67 159.397 27.83C158.521 26.99 158.083 25.88 158.083 24.5C158.083 23.204 158.509 22.112 159.361 21.224C160.225 20.324 161.329 19.874 162.673 19.874ZM162.691 20.63C161.647 20.63 160.777 20.96 160.081 21.62C159.397 22.268 159.025 23.078 158.965 24.05H166.219C166.243 23.63 166.177 23.228 166.021 22.844C165.757 22.172 165.337 21.638 164.761 21.242C164.185 20.834 163.495 20.63 162.691 20.63ZM170.359 16.4V22.07L170.233 26.228H169.621L169.495 22.07V16.4H170.359ZM169.495 28.154C169.615 28.034 169.759 27.974 169.927 27.974C170.095 27.974 170.239 28.034 170.359 28.154C170.479 28.262 170.539 28.394 170.539 28.55C170.539 28.706 170.479 28.844 170.359 28.964C170.239 29.072 170.095 29.126 169.927 29.126C169.759 29.126 169.615 29.072 169.495 28.964C169.375 28.844 169.315 28.706 169.315 28.55C169.315 28.394 169.375 28.262 169.495 28.154Z" fill="black"/>
<path d="M8.40437 36.2941L8.5 36.1626V36V35.0714H8V33.2143H8.5V31.3571H8V29.5H8.5V27.6429H8V25.7857H8.5V23.9286H8V22.0714H8.5V20.2143H8V18.3571H8.5V16.5H8V14.6429H8.5V12.7857H8V10.9286H8.5V10C8.5 9.68535 8.51528 9.37442 8.54511 9.06788L8.04746 9.01945C8.1119 8.35731 8.24092 7.71409 8.42813 7.09617L8.90665 7.24115C9.0886 6.64061 9.32845 6.06516 9.61977 5.52127L9.17901 5.28519C9.48945 4.7056 9.85534 4.16016 10.2696 3.65597L10.6559 3.97338C11.051 3.49248 11.4925 3.05105 11.9734 2.65593L11.656 2.2696C12.1602 1.85534 12.7056 1.48945 13.2852 1.17901L13.5213 1.61977C14.0652 1.32845 14.6406 1.0886 15.2411 0.906653L15.0962 0.428133C15.7141 0.240919 16.3573 0.111903 17.0194 0.0474633L17.0679 0.545112C17.3744 0.51528 17.6853 0.5 18 0.5H18.9881V0H20.9643V0.5H22.9405V0H24.9167V0.5H26.8929V0H28.869V0.5H30.8452V0H32.8214V0.5H34.7976V0H36.7738V0.5H38.75V0H40.7262V0.5H42.7024V0H44.6786V0.5H46.6548V0H48.631V0.5H50.6072V0H52.5834V0.5H54.5596V0H56.5358V0.5H58.512V0H60.4882V0.5H62.4644V0H64.4406V0.5H66.4167V0H68.3929V0.5H70.3691V0H72.3453V0.5H74.3215V0H76.2977V0.5H78.2739V0H80.2501V0.5H82.2262V0H84.2024V0.5H86.1786V0H88.1548V0.5H90.131V0H92.1072V0.5H94.0834V0H96.0596V0.5H98.0358V0H100.012V0.5H101.988V0H103.964V0.5H105.941V0H107.917V0.5H109.893V0H111.869V0.5H113.845V0H115.821V0.5H117.798V0H119.774V0.5H121.75V0H123.726V0.5H125.702V0H127.679V0.5H129.655V0H131.631V0.5H133.607V0H135.583V0.5H137.56V0H139.536V0.5H141.512V0H143.488V0.5H145.464V0H147.44V0.5H149.417V0H151.393V0.5H153.369V0H155.345V0.5H157.321V0H159.298V0.5H161.274V0H163.25V0.5H165.226V0H167.202V0.5H169.179V0H171.155V0.5H173.131V0H175.107V0.5H177.083V0H179.06V0.5H181.036V0H183.012V0.5H184C184.315 0.5 184.626 0.51528 184.932 0.545112L184.981 0.0474628C185.643 0.111902 186.286 0.240919 186.904 0.428133L186.759 0.906653C187.359 1.0886 187.935 1.32845 188.479 1.61977L188.715 1.17901C189.294 1.48945 189.84 1.85534 190.344 2.2696L190.027 2.65593C190.508 3.05105 190.949 3.49248 191.344 3.97338L191.73 3.65597C192.145 4.16017 192.511 4.7056 192.821 5.2852L192.38 5.52127C192.672 6.06516 192.911 6.64061 193.093 7.24115L193.572 7.09617C193.759 7.7141 193.888 8.35732 193.953 9.01945L193.455 9.06788C193.485 9.37442 193.5 9.68535 193.5 10V10.9643H194V12.8929H193.5V14.8214H194V16.75H193.5V18.6786H194V20.6071H193.5V22.5357H194V24.4643H193.5V26.3929H194V28.3214H193.5V30.25H194V32.1786H193.5V34.1071H194V36.0357H193.5V37C193.5 37.3147 193.485 37.6256 193.455 37.9321L193.953 37.9805C193.888 38.6427 193.759 39.2859 193.572 39.9038L193.093 39.7589C192.911 40.3594 192.672 40.9348 192.38 41.4787L192.821 41.7148C192.511 42.2944 192.145 42.8398 191.73 43.344L191.344 43.0266C190.949 43.5075 190.508 43.949 190.027 44.3441L190.344 44.7304C189.84 45.1447 189.294 45.5105 188.715 45.821L188.479 45.3802C187.935 45.6716 187.359 45.9114 186.759 46.0933L186.904 46.5719C186.286 46.7591 185.643 46.8881 184.981 46.9525L184.932 46.4549C184.626 46.4847 184.315 46.5 184 46.5H183.012V47H181.036V46.5H179.06V47H177.083V46.5H175.107V47H173.131V46.5H171.155V47H169.179V46.5H167.202V47H165.226V46.5H163.25V47H161.274V46.5H159.298V47H157.321V46.5H155.345V47H153.369V46.5H151.393V47H149.417V46.5H147.44V47H145.464V46.5H143.488V47H141.512V46.5H139.536V47H137.559V46.5H135.583V47H133.607V46.5H131.631V47H129.655V46.5H127.679V47H125.702V46.5H123.726V47H121.75V46.5H119.774V47H117.798V46.5H115.821V47H113.845V46.5H111.869V47H109.893V46.5H107.917V47H105.94V46.5H103.964V47H101.988V46.5H100.012V47H98.0357V46.5H96.0595V47H94.0833V46.5H92.1071V47H90.1309V46.5H88.1547V47H86.1785V46.5H84.2024V47H82.2262V46.5H80.25V47H78.2738V46.5H76.2976V47H74.3214V46.5H72.3452V47H70.369V46.5H68.3928V47H66.4167V46.5H64.4405V47H62.4643V46.5H60.4881V47H58.5119V46.5H56.5357V47H54.5595V46.5H52.5833V47H50.6071V46.5H48.631V47H46.6548V46.5H44.6786V47H42.7024V46.5H40.7262V47H38.75V46.5H36.7738V47H34.7976V46.5H32.8214V47H30.8452V46.5H28.869V47H26.8929V46.5H24.9167V47H22.9405V46.5H20.9643V47H18.9881V46.5H18H16.9977V47H14.9932V46.5H12.9887V47H10.9841V46.5H8.97962V47H6.97509V46.5H4.97056V47H2.96603V46.5H1.96377C1.86003 46.5 1.77319 46.4722 1.70227 46.4285L1.44015 46.8543C1.12254 46.6588 0.936198 46.2929 0.964882 45.921L1.4634 45.9594C1.46981 45.8764 1.49839 45.7898 1.5594 45.7059L2.12982 44.9216L1.72545 44.6275L2.86628 43.0589L3.27064 43.353L4.41147 41.7843L4.0071 41.4902L5.14793 39.9216L5.5523 40.2157L6.69313 38.647L6.28876 38.353L7.42959 36.7843L7.83395 37.0784L8.40437 36.2941Z" stroke="black" stroke-dasharray="2 2"/>
</svg>
