<svg width="38" height="38" viewBox="0 0 38 38" fill="none" xmlns="http://www.w3.org/2000/svg">
<circle opacity="0.1" cx="19" cy="19" r="19" fill="black"/>
<g clip-path="url(#clip0_268_3)">
<path d="M19.0033 13.8652C16.1675 13.8652 13.8716 16.1636 13.8716 18.9969C13.8716 21.8327 16.17 24.1286 19.0033 24.1286C21.8391 24.1286 24.135 21.8302 24.135 18.9969C24.135 16.1611 21.8366 13.8652 19.0033 13.8652ZM19.0033 22.3277C17.1625 22.3277 15.6725 20.8369 15.6725 18.9969C15.6725 17.1569 17.1633 15.6661 19.0033 15.6661C20.8433 15.6661 22.3341 17.1569 22.3341 18.9969C22.335 20.8369 20.8441 22.3277 19.0033 22.3277Z" fill="black"/>
<path d="M23.1233 9.06331C21.2833 8.97748 16.7258 8.98164 14.8842 9.06331C13.2658 9.13914 11.8383 9.52998 10.6875 10.6808C8.76417 12.6041 9.01001 15.1958 9.01001 18.9967C9.01001 22.8867 8.79334 25.4183 10.6875 27.3125C12.6183 29.2425 15.2475 28.99 19.0033 28.99C22.8567 28.99 24.1867 28.9925 25.5492 28.465C27.4017 27.7458 28.8 26.09 28.9367 23.1158C29.0233 21.275 29.0183 16.7183 28.9367 14.8766C28.7717 11.3658 26.8875 9.23664 23.1233 9.06331ZM26.0358 26.04C24.775 27.3008 23.0258 27.1883 18.9792 27.1883C14.8125 27.1883 13.1417 27.25 11.9225 26.0275C10.5183 24.63 10.7725 22.3858 10.7725 18.9833C10.7725 14.3791 10.3 11.0633 14.9208 10.8266C15.9825 10.7891 16.295 10.7766 18.9675 10.7766L19.005 10.8016C23.4458 10.8016 26.93 10.3366 27.1392 14.9566C27.1867 16.0108 27.1975 16.3275 27.1975 18.9958C27.1967 23.1142 27.275 24.795 26.0358 26.04Z" fill="black"/>
<path d="M24.3383 14.8617C25.0006 14.8617 25.5375 14.3248 25.5375 13.6625C25.5375 13.0003 25.0006 12.4634 24.3383 12.4634C23.676 12.4634 23.1392 13.0003 23.1392 13.6625C23.1392 14.3248 23.676 14.8617 24.3383 14.8617Z" fill="black"/>
</g>
<defs>
<clipPath id="clip0_268_3">
<rect width="20" height="20" fill="white" transform="translate(9 9)"/>
</clipPath>
</defs>
</svg>
