<svg width="20" height="20" viewBox="0 0 20 20" fill="none" xmlns="http://www.w3.org/2000/svg">
<path d="M15.0006 6.66784C14.8188 6.66784 14.637 6.67802 14.4563 6.69837C13.091 3.77898 9.61765 2.51908 6.69827 3.88436C4.89411 4.72809 3.64481 6.43372 3.38476 8.40842C1.12477 8.8404 -0.357089 11.0226 0.0748291 13.2826C0.450304 15.247 2.16871 16.6675 4.16872 16.6666H15.0006C17.7617 16.6666 20 14.4283 20 11.6672C20 8.90617 17.7617 6.66784 15.0006 6.66784ZM15.0006 15.0001H4.16872C2.78818 15.0001 1.66902 13.8809 1.66902 12.5004C1.66902 11.1198 2.78818 10.0007 4.16872 10.0007C4.7171 9.99856 5.25033 10.1804 5.68304 10.5173C6.05203 10.7922 6.57406 10.716 6.84901 10.347C7.11644 9.98802 7.05249 9.48191 6.70421 9.20079C6.22384 8.83125 5.66735 8.57326 5.07495 8.44548C5.47192 6.18094 7.62951 4.66692 9.89405 5.0639C11.4178 5.33103 12.6678 6.42106 13.1397 7.89432C13.2677 8.30661 13.3333 8.73575 13.3341 9.16748C13.3341 9.62768 13.7072 10.0007 14.1674 10.0007C14.6276 10.0007 15.0006 9.62768 15.0006 9.16748C14.9991 8.89 14.9779 8.61299 14.9374 8.33853C14.9585 8.33811 14.9796 8.33429 15.0006 8.33429C16.8414 8.33429 18.3335 9.8265 18.3335 11.6672C18.3335 13.5079 16.8413 15.0001 15.0006 15.0001Z" fill="black"/>
</svg>
