<svg width="30" height="30" viewBox="0 0 30 30" fill="none" xmlns="http://www.w3.org/2000/svg">
<path d="M16.25 26.25C16.25 26.9403 15.6904 27.5 15 27.5C14.3096 27.5 13.75 26.9403 13.75 26.25V22.5C13.75 21.8096 14.3096 21.25 15 21.25C15.6904 21.25 16.25 21.8096 16.25 22.5V26.25Z" fill="black"/>
<path d="M15 5C12.9289 5 11.25 6.67893 11.25 8.75V13.75C11.25 15.8211 12.9289 17.5 15 17.5C17.0711 17.5 18.75 15.8211 18.75 13.75V8.75C18.75 6.67893 17.0711 5 15 5ZM15 2.5C18.4518 2.5 21.25 5.29822 21.25 8.75V13.75C21.25 17.2018 18.4518 20 15 20C11.5482 20 8.75 17.2018 8.75 13.75V8.75C8.75 5.29822 11.5482 2.5 15 2.5Z" fill="black"/>
<path d="M22.5 13.75C22.5 13.0596 23.0596 12.5 23.75 12.5C24.4403 12.5 25 13.0596 25 13.75C25 19.2728 20.5228 23.75 15 23.75C9.47715 23.75 5 19.2728 5 13.75C5 13.0596 5.55964 12.5 6.25 12.5C6.94035 12.5 7.5 13.0596 7.5 13.75C7.5 17.8921 10.8579 21.25 15 21.25C19.1421 21.25 22.5 17.8921 22.5 13.75Z" fill="black"/>
</svg>
