<svg width="15" height="15" viewBox="0 0 15 15" fill="none" xmlns="http://www.w3.org/2000/svg">
<path d="M14.8976 7.18505C13.9871 5.99219 12.8936 4.95092 11.6576 4.09989L13.7715 1.98598C13.9843 1.78045 13.9902 1.44132 13.7847 1.2285C13.5792 1.01568 13.24 1.00978 13.0272 1.21531C13.0228 1.21962 13.0184 1.22401 13.014 1.2285L10.7046 3.5358C9.7216 2.99477 8.62185 2.70062 7.5 2.67865C3.4286 2.67865 0.236321 7.00076 0.102384 7.18501C-0.0341279 7.37282 -0.0341279 7.6272 0.102384 7.815C1.01286 9.00785 2.10636 10.0491 3.34234 10.9002L1.22844 13.0141C1.01562 13.2196 1.00972 13.5587 1.21526 13.7715C1.42079 13.9844 1.75992 13.9903 1.97274 13.7847C1.9772 13.7804 1.98159 13.776 1.98592 13.7715L4.29535 11.4642C5.27836 12.0053 6.37812 12.2994 7.49996 12.3214C11.5714 12.3214 14.7636 7.99928 14.8976 7.815C15.0341 7.62723 15.0341 7.37285 14.8976 7.18505ZM4.12127 10.1229C3.02996 9.39601 2.05175 8.51225 1.21827 7.50004C2.00683 6.54486 4.56429 3.75006 7.5 3.75006C8.33523 3.76695 9.1564 3.96818 9.90478 4.33933L8.97478 5.26933C7.74433 4.45242 6.0846 4.78766 5.26769 6.01812C4.67262 6.91444 4.67262 8.08011 5.26769 8.97643L4.12127 10.1229ZM8.94641 6.81164C9.05125 7.02603 9.10621 7.26139 9.10712 7.50004C9.10712 8.38763 8.38759 9.10717 7.5 9.10717C7.26134 9.10626 7.02599 9.05129 6.8116 8.94645L8.94641 6.81164ZM6.05358 8.1884C5.94874 7.97402 5.89378 7.73866 5.89287 7.50001C5.89287 6.61241 6.6124 5.89288 7.5 5.89288C7.73865 5.89379 7.974 5.94875 8.18839 6.05359L6.05358 8.1884ZM7.5 11.25C6.66476 11.2331 5.84362 11.0319 5.09521 10.6607L6.02521 9.73071C7.25566 10.5476 8.9154 10.2124 9.7323 8.98192C10.3274 8.0856 10.3274 6.91993 9.7323 6.02361L10.8787 4.87718C11.97 5.60403 12.9482 6.48783 13.7817 7.50001C12.9931 8.45521 10.4357 11.25 7.5 11.25Z" fill="black"/>
</svg>
