<svg width="20" height="20" viewBox="0 0 20 20" fill="none" xmlns="http://www.w3.org/2000/svg">
<path d="M10 20C15.5228 20 20 15.5228 20 10C20 4.47715 15.5228 0 10 0C4.47715 0 0 4.47715 0 10C0 15.5228 4.47715 20 10 20Z" fill="#F0F0F0"/>
<path d="M19.378 13.4785C19.78 12.3951 20 11.2234 20 10.0002C20 8.77701 19.78 7.60529 19.378 6.52197H0.621992C0.220039 7.60529 0 8.77701 0 10.0002C0 11.2234 0.220039 12.3951 0.621992 13.4785L10 14.348L19.378 13.4785Z" fill="#0052B4"/>
<path d="M10 19.9998C14.2997 19.9998 17.9651 17.286 19.378 13.478H0.622009C2.03494 17.286 5.70037 19.9998 10 19.9998Z" fill="#D80027"/>
</svg>
