<svg width="38" height="38" viewBox="0 0 38 38" fill="none" xmlns="http://www.w3.org/2000/svg">
<circle opacity="0.1" cx="19" cy="19" r="19" fill="black"/>
<g clip-path="url(#clip0_268_4)">
<path d="M26.945 14.9275C27.7583 14.35 28.4425 13.6292 29 12.7992V12.7983C28.2558 13.1242 27.4642 13.3408 26.6375 13.4458C27.4875 12.9383 28.1367 12.1408 28.4417 11.18C27.6492 11.6525 26.7742 11.9858 25.8417 12.1725C25.0892 11.3708 24.0167 10.875 22.8467 10.875C20.5767 10.875 18.7492 12.7175 18.7492 14.9758C18.7492 15.3008 18.7767 15.6133 18.8442 15.9108C15.4358 15.7442 12.4192 14.1108 10.3925 11.6217C10.0392 12.2358 9.83083 12.9383 9.83083 13.6942C9.83083 15.1142 10.5617 16.3725 11.6525 17.1017C10.9933 17.0892 10.3475 16.8975 9.8 16.5967V16.6417C9.8 18.6342 11.2208 20.2892 13.085 20.6708C12.7508 20.7625 12.3875 20.8058 12.01 20.8058C11.7475 20.8058 11.4825 20.7908 11.2342 20.7358C11.765 22.3592 13.2733 23.5533 15.065 23.5925C13.67 24.6833 11.8983 25.3408 9.98083 25.3408C9.645 25.3408 9.3225 25.3258 9 25.285C10.8167 26.4558 12.9683 27.125 15.29 27.125C22.5258 27.125 27.2417 21.0883 26.945 14.9275Z" fill="black"/>
</g>
<defs>
<clipPath id="clip0_268_4">
<rect width="20" height="20" fill="white" transform="translate(9 9)"/>
</clipPath>
</defs>
</svg>
