<svg width="45" height="45" viewBox="0 0 45 45" fill="none" xmlns="http://www.w3.org/2000/svg">
<path d="M37.2656 16.8751C37.2654 14.0448 36.4518 11.2743 34.9216 8.89333C33.3915 6.51238 31.2093 4.62135 28.6349 3.44543C26.0605 2.2695 23.2024 1.85822 20.4009 2.26057C17.5994 2.66291 14.9726 3.86193 12.8332 5.71484C10.6938 7.56775 9.13201 9.99649 8.33379 12.7118C7.53557 15.4272 7.53455 18.3147 8.33086 21.0306C9.12717 23.7465 10.6872 26.1764 12.8253 28.0308C14.9634 29.8852 17.5894 31.0861 20.3906 31.4904V34.4532H16.875V38.6719H20.3906V42.8907H24.6094V38.6719H28.125V34.4532H24.6094V31.4904C28.1235 30.9826 31.3371 29.2257 33.6614 26.5415C35.9858 23.8574 37.2653 20.4257 37.2656 16.8751ZM22.5 27.4219C20.414 27.4219 18.3749 26.8034 16.6405 25.6445C14.906 24.4856 13.5542 22.8384 12.756 20.9112C11.9577 18.984 11.7488 16.8634 12.1558 14.8175C12.5627 12.7716 13.5672 10.8923 15.0422 9.41731C16.5172 7.9423 18.3965 6.93781 20.4424 6.53086C22.4883 6.1239 24.6089 6.33277 26.5361 7.13103C28.4633 7.9293 30.1105 9.28112 31.2694 11.0155C32.4283 12.75 33.0469 14.7891 33.0469 16.8751C33.0468 19.6722 31.9355 22.3548 29.9576 24.3327C27.9797 26.3106 25.2972 27.4218 22.5 27.4219Z" fill="#FF9494"/>
</svg>
