<svg width="16" height="16" viewBox="0 0 16 16" fill="none" xmlns="http://www.w3.org/2000/svg">
<g clip-path="url(#clip0_247_235)">
<path d="M7.10432 8.88446C5.78657 8.88446 1.90826 8.88446 1.90826 8.88446C1.49655 8.88446 1.15967 9.22129 1.15967 9.633V15.2515C1.15967 15.6632 1.49655 16 1.90826 16C1.90826 16 5.86772 16 7.19169 16C7.3678 16 7.36779 15.8109 7.36779 15.8109V9.13883C7.36774 9.13883 7.36774 8.88446 7.10432 8.88446Z" fill="url(#paint0_linear_247_235)"/>
<path d="M14.0915 8.88446C14.0915 8.88446 10.1984 8.88446 8.90073 8.88446C8.58457 8.88446 8.63191 9.21371 8.63191 9.21371V15.817C8.63191 15.817 8.62935 15.9999 8.81952 15.9999C10.1375 15.9999 14.0914 15.9999 14.0914 15.9999C14.5031 15.9999 14.84 15.6631 14.84 15.2513V9.633C14.8401 9.22129 14.5032 8.88446 14.0915 8.88446Z" fill="url(#paint1_linear_247_235)"/>
<path d="M7.36786 4.46371C7.36786 4.46371 7.36786 4.21005 7.11721 4.21005C5.61626 4.21005 1.06304 4.21005 1.06304 4.21005C0.651335 4.21005 0.314453 4.54693 0.314453 4.95859V7.29527C0.314453 7.70698 0.651335 8.04381 1.06304 8.04381C1.06304 8.04381 5.63666 8.04381 7.13771 8.04381C7.36786 8.04381 7.36786 7.8442 7.36786 7.8442V4.46371Z" fill="url(#paint2_linear_247_235)"/>
<path d="M14.9371 4.21005C14.9371 4.21005 10.382 4.21005 8.86362 4.21005C8.63232 4.21005 8.63232 4.43044 8.63232 4.43044V7.84883C8.63232 7.84883 8.63232 8.04381 8.91352 8.04381C10.4194 8.04381 14.9371 8.04381 14.9371 8.04381C15.3488 8.04381 15.6857 7.70698 15.6857 7.29527V4.95859C15.6857 4.54693 15.3488 4.21005 14.9371 4.21005Z" fill="url(#paint3_linear_247_235)"/>
<path d="M4.82162 3.65623C4.47912 3.65623 4.16629 3.62907 3.89197 3.57546C3.19519 3.43933 2.71629 3.17439 2.42789 2.76557C2.16949 2.39918 2.09041 1.9475 2.19278 1.42301C2.3721 0.50535 2.98838 0 3.92796 0C4.12681 0 4.34518 0.0229605 4.57707 0.0682817C5.16696 0.183521 5.92144 0.521766 6.59537 0.973068C7.73876 1.73884 7.79531 2.2149 7.73838 2.50641C7.65466 2.93475 7.2543 3.24082 6.51438 3.44217C6.01448 3.57819 5.39749 3.65623 4.82162 3.65623ZM3.92802 1.19978C3.56414 1.19978 3.43908 1.30144 3.37042 1.65305C3.31424 1.94052 3.38509 2.04092 3.40832 2.07392C3.50562 2.2119 3.75906 2.32698 4.12201 2.39782C4.31785 2.43611 4.55984 2.45634 4.82157 2.45634C5.39711 2.45634 5.90415 2.36913 6.2406 2.27375C6.26508 2.26682 6.3031 2.23786 6.26236 2.21359C5.82251 1.85528 5.0178 1.37681 4.34703 1.24576C4.19078 1.21533 4.04975 1.19978 3.92802 1.19978Z" fill="url(#paint4_linear_247_235)"/>
<path d="M11.1956 3.65624C11.1956 3.65624 11.1956 3.65624 11.1955 3.65624C10.6197 3.65624 10.0027 3.5782 9.50282 3.44218C8.76285 3.24088 8.36254 2.93476 8.27882 2.50647C8.22194 2.21496 8.27839 1.7389 9.42189 0.97313C10.0957 0.521827 10.8502 0.183582 11.4402 0.0683427C11.6721 0.0230216 11.8904 6.10352e-05 12.0891 6.10352e-05C13.0289 6.10352e-05 13.6452 0.505465 13.8243 1.42312C13.9268 1.94756 13.8478 2.39925 13.5893 2.76563C13.3009 3.1745 12.8221 3.4394 12.1251 3.57552C11.8509 3.62902 11.5381 3.65624 11.1956 3.65624ZM9.76444 2.20618C9.72545 2.22881 9.74432 2.26454 9.76455 2.27037C10.1008 2.36707 10.6132 2.4564 11.1955 2.4564C11.4574 2.4564 11.6992 2.43617 11.8951 2.39788C12.258 2.32698 12.5116 2.21196 12.6088 2.07398C12.6322 2.04099 12.7031 1.94058 12.6467 1.65311C12.5781 1.3015 12.453 1.19984 12.0891 1.19984C11.9674 1.19984 11.8265 1.21533 11.6701 1.24587C10.9993 1.37687 10.2043 1.84781 9.76444 2.20618Z" fill="url(#paint5_linear_247_235)"/>
</g>
<defs>
<linearGradient id="paint0_linear_247_235" x1="0.434043" y1="8.88446" x2="8.28879" y2="9.32802" gradientUnits="userSpaceOnUse">
<stop stop-color="#FFCE4F"/>
<stop offset="1" stop-color="#FFB800"/>
</linearGradient>
<linearGradient id="paint1_linear_247_235" x1="7.90348" y1="8.88446" x2="15.7613" y2="9.32838" gradientUnits="userSpaceOnUse">
<stop stop-color="#FFCE4F"/>
<stop offset="1" stop-color="#FFB800"/>
</linearGradient>
<linearGradient id="paint2_linear_247_235" x1="-0.509971" y1="4.21005" x2="8.31754" y2="5.26125" gradientUnits="userSpaceOnUse">
<stop stop-color="#FFCE4F"/>
<stop offset="1" stop-color="#FFB800"/>
</linearGradient>
<linearGradient id="paint3_linear_247_235" x1="7.80791" y1="4.21005" x2="16.6353" y2="5.26123" gradientUnits="userSpaceOnUse">
<stop stop-color="#FFCE4F"/>
<stop offset="1" stop-color="#FFB800"/>
</linearGradient>
<linearGradient id="paint4_linear_247_235" x1="1.49444" y1="-3.91483e-07" x2="8.53767" y2="0.698683" gradientUnits="userSpaceOnUse">
<stop stop-color="#FFCE4F"/>
<stop offset="1" stop-color="#FFB800"/>
</linearGradient>
<linearGradient id="paint5_linear_247_235" x1="7.60919" y1="6.06437e-05" x2="14.6524" y2="0.698744" gradientUnits="userSpaceOnUse">
<stop stop-color="#FFCE4F"/>
<stop offset="1" stop-color="#FFB800"/>
</linearGradient>
<clipPath id="clip0_247_235">
<rect width="16" height="16" fill="white"/>
</clipPath>
</defs>
</svg>
