<svg width="40" height="40" viewBox="0 0 40 40" fill="none" xmlns="http://www.w3.org/2000/svg">
<path d="M20 1.66675C16.374 1.66675 12.8294 2.74198 9.81454 4.75647C6.79964 6.77096 4.44981 9.63424 3.06221 12.9842C1.6746 16.3342 1.31154 20.0204 2.01893 23.5767C2.72633 27.133 4.47241 30.3997 7.03637 32.9637C9.60034 35.5277 12.867 37.2737 16.4233 37.9811C19.9797 38.6885 23.6659 38.3255 27.0159 36.9379C30.3658 35.5503 33.2291 33.2004 35.2436 30.1855C37.2581 27.1706 38.3333 23.6261 38.3333 20.0001C38.3276 15.1395 36.3942 10.4797 32.9573 7.04279C29.5204 3.60587 24.8605 1.67248 20 1.66675ZM27.845 17.0117L19.5117 25.3451C19.1991 25.6575 18.7753 25.8331 18.3333 25.8331C17.8914 25.8331 17.4675 25.6575 17.155 25.3451L12.155 20.3451C11.9958 20.1913 11.8688 20.0074 11.7815 19.8041C11.6941 19.6007 11.6482 19.382 11.6462 19.1607C11.6443 18.9394 11.6865 18.72 11.7703 18.5152C11.8541 18.3103 11.9778 18.1242 12.1343 17.9678C12.2908 17.8113 12.4769 17.6875 12.6817 17.6037C12.8866 17.5199 13.106 17.4777 13.3273 17.4797C13.5486 17.4816 13.7673 17.5276 13.9707 17.6149C14.174 17.7023 14.3579 17.8292 14.5117 17.9884L18.3333 21.8101L25.4883 14.6551C25.8027 14.3515 26.2237 14.1835 26.6607 14.1873C27.0977 14.1911 27.5157 14.3664 27.8247 14.6754C28.1337 14.9844 28.309 15.4024 28.3128 15.8394C28.3166 16.2764 28.1486 16.6974 27.845 17.0117Z" fill="url(#paint0_linear_23_170639)"/>
<defs>
<linearGradient id="paint0_linear_23_170639" x1="7.04022" y1="-1.84714" x2="28.8011" y2="37.8968" gradientUnits="userSpaceOnUse">
<stop stop-color="#8BDD89"/>
<stop offset="1" stop-color="#59CF57"/>
</linearGradient>
</defs>
</svg>
