<svg width="16" height="16" viewBox="0 0 16 16" fill="none" xmlns="http://www.w3.org/2000/svg">
<g clip-path="url(#clip0_230_73)">
<path d="M2.18164 13.4641C2.18164 13.6649 2.34448 13.8278 2.54529 13.8278H13.4545C13.6553 13.8278 13.8181 13.6649 13.8181 13.4641V12.3732H2.18164V13.4641Z" fill="white"/>
<path d="M14.9093 4.37317C14.307 4.37378 13.819 4.86182 13.8184 5.46399C13.8201 5.5083 13.8246 5.55249 13.8317 5.59631L10.6635 7.18042L8.57936 4.203C9.08998 3.88306 9.2444 3.20984 8.92446 2.69934C8.60463 2.18872 7.93129 2.03418 7.42079 2.35412C6.9103 2.67419 6.75575 3.34729 7.0757 3.85791C7.16323 3.99744 7.28115 4.11548 7.42079 4.203L5.33669 7.18042L2.16847 5.59631C2.17567 5.55249 2.18019 5.5083 2.1819 5.46399C2.18483 4.86157 1.69874 4.37073 1.09621 4.3678C0.493666 4.36487 0.00294275 4.85095 1.30653e-05 5.45337C-0.00267248 6.00647 0.408949 6.474 0.957899 6.5415L2.1819 11.6459H13.8184L15.0423 6.5415C15.6389 6.46948 16.0641 5.92737 15.9921 5.33081C15.9259 4.78332 15.4607 4.37183 14.9093 4.37317Z" fill="white"/>
</g>
<defs>
<clipPath id="clip0_230_73">
<rect width="16" height="16" fill="white"/>
</clipPath>
</defs>
</svg>
