<svg width="80" height="80" viewBox="0 0 80 80" fill="none" xmlns="http://www.w3.org/2000/svg">
<path d="M63.6731 25.1562H61.6418V12.8125H63.6731C64.5361 12.8125 65.2356 13.512 65.2356 14.375V23.5938C65.2356 24.4568 64.5361 25.1562 63.6731 25.1562Z" fill="#93A3AF"/>
<path d="M16.1731 28.2812H18.2043V12.8125H16.1731C15.3101 12.8125 14.6106 13.512 14.6106 14.375V26.7188C14.6106 27.5818 15.3101 28.2812 16.1731 28.2812Z" fill="#93A3AF"/>
<path d="M17.8009 75.7031V4.29688C17.8009 2.5708 19.1998 1.17188 20.9259 1.17188H58.9203C60.6458 1.17188 62.0453 2.5708 62.0453 4.29688V75.7031C62.0453 77.4292 60.6458 78.8281 58.9203 78.8281H20.9259C19.1998 78.8281 17.8009 77.4292 17.8009 75.7031Z" fill="#93A3AF"/>
<path d="M62.0447 4.29688V75.7031C62.0447 77.4298 60.6464 78.8281 58.9197 78.8281H55.8606C57.5873 78.8281 58.9856 77.4298 58.9856 75.7031V4.29688C58.9856 2.57019 57.5873 1.17188 55.8606 1.17188H58.9197C60.6464 1.17188 62.0447 2.57019 62.0447 4.29688Z" fill="#7B8C98"/>
<path d="M17.8009 9.0625H62.0453V70.9375H17.8009V9.0625Z" fill="#EBEEF2"/>
<path d="M58.9856 9.0625H62.0453V70.9375H58.9856V9.0625Z" fill="#D3D8DF"/>
<path d="M53.4106 33.8123V56.6205C53.4106 57.9156 52.3602 58.9642 51.0669 58.9642H43.8666L40.556 63.2452C39.6167 64.458 37.7856 64.458 36.8481 63.2452L33.5358 58.9642H6.95251C5.65918 58.9642 4.60876 57.9156 4.60876 56.6205V33.8123C4.60876 32.5171 5.65918 31.4685 6.95251 31.4685H51.0669C52.3602 31.4685 53.4106 32.5171 53.4106 33.8123Z" fill="#FFA214"/>
<path d="M53.4106 33.8123V46.7798H47.2308L44.4806 50.3326C43.6761 51.3733 42.4603 51.9702 41.145 51.9702C39.8291 51.9702 38.6121 51.3733 37.8076 50.3326L35.0592 46.7798H28.7793C26.4526 46.7798 24.5605 44.8877 24.5605 42.561V31.4685H51.0669C52.3602 31.4685 53.4106 32.5171 53.4106 33.8123Z" fill="#640072"/>
<path d="M72.8931 17.4091H28.7793C27.4854 17.4091 26.4355 18.4583 26.4355 19.7528V42.561C26.4355 43.8556 27.4854 44.9048 28.7793 44.9048H35.9796L39.2908 49.1858C40.2289 50.3992 42.0599 50.3992 42.9987 49.1858L46.3098 44.9048H72.8931C74.187 44.9048 75.2368 43.8556 75.2368 42.561V19.7528C75.2368 18.4583 74.1876 17.4091 72.8931 17.4091Z" fill="#FF6478"/>
<path d="M36.8634 6.53625H42.9828C43.6298 6.53625 44.1547 6.01196 44.1547 5.36438C44.1547 4.71741 43.6298 4.1925 42.9828 4.1925H36.8634C36.2158 4.1925 35.6915 4.71741 35.6915 5.36438C35.6915 6.01196 36.2158 6.53625 36.8634 6.53625Z" fill="black"/>
<path d="M75.2368 34.0894C75.8838 34.0894 76.4087 33.5645 76.4087 32.9175V19.7528C76.4087 17.8143 74.8315 16.2372 72.8931 16.2372H66.4075V14.375C66.4075 12.8674 65.1807 11.6406 63.6731 11.6406H63.2172V4.29688C63.2172 1.92749 61.2897 0 58.9203 0H20.9259C18.5565 0 16.629 1.92749 16.629 4.29688V11.6406H16.1731C14.6655 11.6406 13.4387 12.8674 13.4387 14.375V26.7188C13.4387 28.2263 14.6655 29.4531 16.1731 29.4531H16.629V30.2966H6.95312C5.01465 30.2966 3.4375 31.8738 3.4375 33.8123V56.6205C3.4375 58.559 5.01465 60.1361 6.95312 60.1361H16.629V75.7031C16.629 78.0725 18.5565 80 20.9259 80H58.9203C61.2897 80 63.2172 78.0725 63.2172 75.7031V65.3638C63.2172 64.7168 62.6923 64.1919 62.0453 64.1919C61.3977 64.1919 60.8734 64.7168 60.8734 65.3638V69.7656H18.9728V60.1361H20.965C21.6119 60.1361 22.1368 59.6118 22.1368 58.9642C22.1368 58.3173 21.6119 57.7924 20.965 57.7924H6.95312C6.30676 57.7924 5.78125 57.2668 5.78125 56.6205V33.8123C5.78125 33.1659 6.30676 32.6404 6.95312 32.6404H25.2637V42.561C25.2637 44.4995 26.8408 46.0767 28.7793 46.0767H35.4041L38.3636 49.903C39.0344 50.7703 40.0482 51.2671 41.1444 51.2671C42.2412 51.2671 43.2544 50.7697 43.9252 49.903L46.8848 46.0767H52.2382V56.6205C52.2382 57.2668 51.7126 57.7924 51.0663 57.7924H43.8666C43.504 57.7924 43.1616 57.9602 42.9395 58.2471L39.6277 62.5281C39.4043 62.8174 39.0668 62.9828 38.7012 62.9828C38.3356 62.9828 37.998 62.8168 37.774 62.5281L34.4629 58.2471C34.2407 57.9602 33.8983 57.7924 33.5358 57.7924H26.0681C25.4205 57.7924 24.8962 58.3167 24.8962 58.9642C24.8962 59.6118 25.4205 60.1361 26.0681 60.1361H32.9608L35.9204 63.9618C36.5912 64.8291 37.6044 65.3265 38.7012 65.3265C39.7974 65.3265 40.8112 64.8291 41.4819 63.9618L44.4415 60.1361H51.0657C53.0042 60.1361 54.5813 58.559 54.5813 56.6205V46.0767H60.8728V60.2606C60.8728 60.9082 61.3971 61.4325 62.0447 61.4325C62.6923 61.4325 63.2166 60.9082 63.2166 60.2606V46.0767H72.8925C74.8309 46.0767 76.4081 44.4995 76.4081 42.561V38.02C76.4081 37.373 75.8838 36.8481 75.2362 36.8481C74.5886 36.8481 74.0643 37.373 74.0643 38.02V42.561C74.0643 43.2074 73.5388 43.7329 72.8925 43.7329H46.3098C45.9473 43.7329 45.6049 43.9014 45.3827 44.1882L42.0715 48.4686C41.8475 48.7579 41.51 48.924 41.1444 48.924C40.7788 48.924 40.4413 48.7579 40.2173 48.4686L36.9061 44.1882C36.684 43.9014 36.3422 43.7329 35.979 43.7329H28.7793C28.1329 43.7329 27.6074 43.2074 27.6074 42.561V19.7528C27.6074 19.1064 28.1329 18.5809 28.7793 18.5809H72.8925C73.5388 18.5809 74.0643 19.1064 74.0643 19.7528V32.9175C74.0649 33.5645 74.5892 34.0894 75.2368 34.0894ZM60.8734 72.1094V75.7031C60.8734 76.7804 59.9969 77.6562 58.9203 77.6562H20.9259C19.8486 77.6562 18.9728 76.7804 18.9728 75.7031V72.1094H60.8734ZM63.6731 13.9844C63.8885 13.9844 64.0637 14.1595 64.0637 14.375V16.2372H63.2172V13.9844H63.6731ZM20.9259 2.34375H58.9203C59.9969 2.34375 60.8734 3.2196 60.8734 4.29688V7.89062H18.9728V4.29688C18.9728 3.2196 19.8486 2.34375 20.9259 2.34375ZM16.1731 27.1094C15.9576 27.1094 15.7825 26.9342 15.7825 26.7188V14.375C15.7825 14.1595 15.9576 13.9844 16.1731 13.9844H16.629V27.1094H16.1731ZM25.2637 19.7528V30.2966H18.9728V10.2344H60.8734V16.2372H28.7793C26.8408 16.2372 25.2637 17.8143 25.2637 19.7528Z" fill="black"/>
<path d="M66.9879 23.9844H34.5587C33.9111 23.9844 33.3868 24.5087 33.3868 25.1562C33.3868 25.8038 33.9111 26.3281 34.5587 26.3281H66.9879C67.6355 26.3281 68.1598 25.8038 68.1598 25.1562C68.1598 24.5087 67.6349 23.9844 66.9879 23.9844Z" fill="black"/>
<path d="M66.9879 28.0396H34.5587C33.9111 28.0396 33.3868 28.5638 33.3868 29.2114C33.3868 29.8584 33.9111 30.3833 34.5587 30.3833H66.9879C67.6355 30.3833 68.1598 29.8584 68.1598 29.2114C68.1598 28.5638 67.6349 28.0396 66.9879 28.0396Z" fill="black"/>
<path d="M66.9879 32.0941H60.9125C60.2649 32.0941 59.7406 32.619 59.7406 33.266C59.7406 33.9136 60.2649 34.4379 60.9125 34.4379H66.9879C67.6349 34.4379 68.1598 33.9136 68.1598 33.266C68.1598 32.619 67.6349 32.0941 66.9879 32.0941Z" fill="black"/>
<path d="M57.8851 33.266C57.8851 32.619 57.3602 32.0941 56.7133 32.0941H34.5587C33.9111 32.0941 33.3868 32.619 33.3868 33.266C33.3868 33.9136 33.9111 34.4379 34.5587 34.4379H56.7133C57.3602 34.4379 57.8851 33.9136 57.8851 33.266Z" fill="black"/>
<path d="M34.5587 36.1493C33.9111 36.1493 33.3868 36.6736 33.3868 37.3212C33.3868 37.9681 33.9111 38.493 34.5587 38.493H46.7462C47.3932 38.493 47.9181 37.9681 47.9181 37.3212C47.9181 36.6736 47.3932 36.1493 46.7462 36.1493H34.5587Z" fill="black"/>
<path d="M21.85 38.1177H11.1212C10.4736 38.1177 9.94934 38.642 9.94934 39.2896C9.94934 39.9371 10.4736 40.4614 11.1212 40.4614H21.85C22.4976 40.4614 23.0219 39.9371 23.0219 39.2896C23.0219 38.642 22.4976 38.1177 21.85 38.1177Z" fill="black"/>
<path d="M23.0219 43.3447C23.0219 42.6971 22.4976 42.1729 21.85 42.1729H11.1212C10.4736 42.1729 9.94934 42.6971 9.94934 43.3447C9.94934 43.9917 10.4736 44.5166 11.1212 44.5166H21.85C22.4976 44.5166 23.0219 43.9917 23.0219 43.3447Z" fill="black"/>
<path d="M20.2631 47.3993C20.2631 46.7523 19.7382 46.2274 19.0912 46.2274H11.1212C10.4736 46.2274 9.94934 46.7523 9.94934 47.3993C9.94934 48.0469 10.4736 48.5712 11.1212 48.5712H19.0912C19.7382 48.5712 20.2631 48.0469 20.2631 47.3993Z" fill="black"/>
<path d="M11.1212 50.2826C10.4736 50.2826 9.94934 50.8069 9.94934 51.4545C9.94934 52.1021 10.4736 52.6263 11.1212 52.6263H15.5054C16.153 52.6263 16.6772 52.1021 16.6772 51.4545C16.6772 50.8069 16.153 50.2826 15.5054 50.2826H11.1212Z" fill="black"/>
</svg>
