<svg width="38" height="38" viewBox="0 0 38 38" fill="none" xmlns="http://www.w3.org/2000/svg">
<circle opacity="0.1" cx="19" cy="19" r="19" fill="black"/>
<g clip-path="url(#clip0_268_5)">
<path d="M28.5575 13.9407L28.5825 14.104C28.3408 13.2465 27.6883 12.5848 26.8592 12.344L26.8417 12.3398C25.2825 11.9165 19.0083 11.9165 19.0083 11.9165C19.0083 11.9165 12.75 11.9082 11.175 12.3398C10.33 12.5848 9.67667 13.2465 9.43917 14.0865L9.435 14.104C8.8525 17.1465 8.84833 20.8024 9.46083 24.0599L9.435 23.8949C9.67667 24.7524 10.3292 25.414 11.1583 25.6549L11.1758 25.659C12.7333 26.0832 19.0092 26.0832 19.0092 26.0832C19.0092 26.0832 25.2667 26.0832 26.8425 25.659C27.6883 25.414 28.3417 24.7524 28.5792 23.9124L28.5833 23.8949C28.8483 22.4799 29 20.8515 29 19.1882C29 19.1274 29 19.0657 28.9992 19.004C29 18.9474 29 18.8799 29 18.8124C29 17.1482 28.8483 15.5199 28.5575 13.9407ZM17.0067 22.0424V15.9649L22.2283 19.0082L17.0067 22.0424Z" fill="black"/>
</g>
<defs>
<clipPath id="clip0_268_5">
<rect width="20" height="20" fill="white" transform="translate(9 9)"/>
</clipPath>
</defs>
</svg>
