<svg width="9" height="4" viewBox="0 0 9 4" fill="none" xmlns="http://www.w3.org/2000/svg">
<g clip-path="url(#clip0_0_3)">
<rect width="1920" height="7154" transform="translate(-529 -4708)" fill="white"/>
<path d="M-112.601 6H-113.177V2.268C-113.401 2.836 -113.757 3.272 -114.245 3.576C-114.725 3.872 -115.261 4.02 -115.853 4.02C-116.781 4.02 -117.529 3.744 -118.097 3.192C-118.665 2.632 -118.949 1.756 -118.949 0.564V-2.4H-118.373V0.588C-118.373 1.604 -118.141 2.34 -117.677 2.796C-117.205 3.252 -116.573 3.48 -115.781 3.48C-115.445 3.48 -115.129 3.424 -114.833 3.312C-114.529 3.2 -114.253 3.032 -114.005 2.808C-113.749 2.584 -113.549 2.28 -113.405 1.896C-113.253 1.504 -113.177 1.056 -113.177 0.552V-2.4H-112.601V6ZM-104.739 6H-105.291V0.972L-109.743 6H-110.043V0H-109.503V5.028L-105.039 0H-104.739V6ZM-100.218 0.516V6H-100.758V0.516H-103.122V0H-97.8421V0.516H-100.218ZM-90.6541 6H-91.0741L-91.0981 4.404C-91.3301 4.9 -91.6861 5.304 -92.1661 5.616C-92.6381 5.92 -93.1661 6.072 -93.7501 6.072C-94.5981 6.072 -95.3181 5.776 -95.9101 5.184C-96.4941 4.584 -96.7861 3.856 -96.7861 3C-96.7861 2.144 -96.4941 1.416 -95.9101 0.816C-95.3181 0.216 -94.5981 -0.0840003 -93.7501 -0.0840003C-93.1661 -0.0840003 -92.6381 0.0719997 -92.1661 0.384C-91.6861 0.688 -91.3301 1.092 -91.0981 1.596L-91.0741 0H-90.6541V6ZM-93.7021 5.556C-93.0061 5.556 -92.4101 5.312 -91.9141 4.824C-91.4181 4.328 -91.1701 3.72 -91.1701 3C-91.1701 2.28 -91.4181 1.672 -91.9141 1.176C-92.4101 0.68 -93.0061 0.432 -93.7021 0.432C-94.4061 0.432 -95.0061 0.68 -95.5021 1.176C-95.9901 1.672 -96.2341 2.28 -96.2341 3C-96.2341 3.72 -95.9901 4.328 -95.5021 4.824C-95.0061 5.312 -94.4061 5.556 -93.7021 5.556ZM-86.1322 0.516V6H-86.6722V0.516H-89.0362V0H-83.7562V0.516H-86.1322ZM-81.601 2.052H-79.189C-78.381 2.052 -77.793 2.24 -77.425 2.616C-77.057 2.992 -76.873 3.46 -76.873 4.02C-76.873 4.588 -77.057 5.06 -77.425 5.436C-77.793 5.812 -78.381 6 -79.189 6H-82.141V0H-81.601V2.052ZM-81.589 5.496H-79.141C-78.533 5.496 -78.093 5.36 -77.821 5.088C-77.549 4.816 -77.413 4.46 -77.413 4.02C-77.413 3.588 -77.549 3.236 -77.821 2.964C-78.093 2.692 -78.533 2.556 -79.141 2.556H-81.589V5.496ZM-66.0086 6H-66.5486V0.516H-70.7846V6H-71.3246V0H-66.0086V6ZM-63.1557 0.816C-62.5557 0.216 -61.8317 -0.0840003 -60.9837 -0.0840003C-60.1357 -0.0840003 -59.4117 0.22 -58.8117 0.828C-58.2037 1.428 -57.8997 2.152 -57.8997 3C-57.8997 3.848 -58.1997 4.572 -58.7997 5.172C-59.3997 5.772 -60.1277 6.072 -60.9837 6.072C-61.8317 6.072 -62.5557 5.772 -63.1557 5.172C-63.7557 4.572 -64.0557 3.848 -64.0557 3C-64.0557 2.144 -63.7557 1.416 -63.1557 0.816ZM-60.9717 0.432C-61.6757 0.432 -62.2757 0.68 -62.7717 1.176C-63.2597 1.672 -63.5037 2.28 -63.5037 3C-63.5037 3.72 -63.2597 4.328 -62.7717 4.824C-62.2757 5.312 -61.6757 5.556 -60.9717 5.556C-60.2757 5.556 -59.6797 5.312 -59.1837 4.824C-58.6877 4.328 -58.4397 3.72 -58.4397 3C-58.4397 2.28 -58.6877 1.672 -59.1837 1.176C-59.6797 0.68 -60.2757 0.432 -60.9717 0.432ZM-53.9994 0.9L-56.3274 6H-56.9034L-54.1434 0H-53.8434L-51.0834 6H-51.6594L-53.9994 0.9ZM-44.1648 6H-44.7048V3.24H-48.9408V6H-49.4808V0H-48.9408V2.724H-44.7048V0H-44.1648V6ZM-41.3119 0.816C-40.7119 0.216 -39.9879 -0.0840003 -39.1399 -0.0840003C-38.2919 -0.0840003 -37.5679 0.22 -36.9679 0.828C-36.3599 1.428 -36.0559 2.152 -36.0559 3C-36.0559 3.848 -36.3559 4.572 -36.9559 5.172C-37.5559 5.772 -38.2839 6.072 -39.1399 6.072C-39.9879 6.072 -40.7119 5.772 -41.3119 5.172C-41.9119 4.572 -42.2119 3.848 -42.2119 3C-42.2119 2.144 -41.9119 1.416 -41.3119 0.816ZM-39.1279 0.432C-39.8319 0.432 -40.4319 0.68 -40.9279 1.176C-41.4159 1.672 -41.6599 2.28 -41.6599 3C-41.6599 3.72 -41.4159 4.328 -40.9279 4.824C-40.4319 5.312 -39.8319 5.556 -39.1279 5.556C-38.4319 5.556 -37.8359 5.312 -37.3399 4.824C-36.8439 4.328 -36.5959 3.72 -36.5959 3C-36.5959 2.28 -36.8439 1.672 -37.3399 1.176C-37.8359 0.68 -38.4319 0.432 -39.1279 0.432ZM-31.3821 -0.0840003C-30.4221 -0.0840003 -29.6341 0.288 -29.0181 1.032L-29.3541 1.38C-29.8901 0.756 -30.5661 0.444 -31.3821 0.444C-32.0861 0.444 -32.6861 0.692 -33.1821 1.188C-33.6701 1.676 -33.9141 2.28 -33.9141 3C-33.9141 3.72 -33.6701 4.328 -33.1821 4.824C-32.6861 5.312 -32.0861 5.556 -31.3821 5.556C-30.5741 5.556 -29.8981 5.24 -29.3541 4.608L-29.0181 4.968C-29.6341 5.704 -30.4221 6.072 -31.3821 6.072C-32.2301 6.072 -32.9541 5.772 -33.5541 5.172C-34.1541 4.572 -34.4541 3.848 -34.4541 3C-34.4541 2.144 -34.1541 1.416 -33.5541 0.816C-32.9541 0.216 -32.2301 -0.0840003 -31.3821 -0.0840003ZM-24.9134 0.516V6H-25.4534V0.516H-27.8174V0H-22.5374V0.516H-24.9134ZM-20.3822 2.052H-17.9702C-17.1622 2.052 -16.5742 2.24 -16.2062 2.616C-15.8382 2.992 -15.6542 3.46 -15.6542 4.02C-15.6542 4.588 -15.8382 5.06 -16.2062 5.436C-16.5742 5.812 -17.1622 6 -17.9702 6H-20.9222V0H-20.3822V2.052ZM-20.3702 5.496H-17.9222C-17.3142 5.496 -16.8742 5.36 -16.6022 5.088C-16.3302 4.816 -16.1942 4.46 -16.1942 4.02C-16.1942 3.588 -16.3302 3.236 -16.6022 2.964C-16.8742 2.692 -17.3142 2.556 -17.9222 2.556H-20.3702V5.496ZM-8.93694 -0.0840003C-8.08894 -0.0840003 -7.36494 0.22 -6.76494 0.828C-6.16494 1.428 -5.86494 2.152 -5.86494 3C-5.86494 3.848 -6.16494 4.572 -6.76494 5.172C-7.36494 5.772 -8.08894 6.072 -8.93694 6.072C-9.74494 6.072 -10.4409 5.8 -11.0249 5.256C-11.6089 4.712 -11.9289 4.04 -11.9849 3.24H-13.2689V6H-13.8089V0H-13.2689V2.724H-11.9849C-11.9209 1.932 -11.5969 1.268 -11.0129 0.732C-10.4289 0.188 -9.73694 -0.0840003 -8.93694 -0.0840003ZM-8.92494 5.556C-8.22894 5.556 -7.63294 5.312 -7.13694 4.824C-6.64094 4.328 -6.39294 3.72 -6.39294 3C-6.39294 2.28 -6.64094 1.672 -7.13694 1.176C-7.63294 0.68 -8.22894 0.432 -8.92494 0.432C-9.62894 0.432 -10.2289 0.68 -10.7249 1.176C-11.2129 1.672 -11.4569 2.28 -11.4569 3C-11.4569 3.72 -11.2129 4.328 -10.7249 4.824C-10.2289 5.312 -9.62894 5.556 -8.92494 5.556ZM6.79253 3.3C6.91253 3.044 7.02853 2.82 7.14053 2.628C7.26053 2.436 7.37653 2.276 7.48853 2.148H0.492531V1.644H7.48853C7.37653 1.508 7.26053 1.344 7.14053 1.152C7.02853 0.96 6.91253 0.74 6.79253 0.492H7.21253C7.71653 1.076 8.24453 1.508 8.79653 1.788V2.004C8.24453 2.276 7.71653 2.708 7.21253 3.3H6.79253Z" fill="#CB0FE0"/>
</g>
<defs>
<clipPath id="clip0_0_3">
<rect width="1920" height="7154" fill="white" transform="translate(-529 -4708)"/>
</clipPath>
</defs>
</svg>
