<svg width="20" height="20" viewBox="0 0 20 20" fill="none" xmlns="http://www.w3.org/2000/svg">
<path d="M10 20C15.5228 20 20 15.5228 20 10C20 4.47715 15.5228 0 10 0C4.47715 0 0 4.47715 0 10C0 15.5228 4.47715 20 10 20Z" fill="#F0F0F0"/>
<path d="M2.06718 3.91211C1.28167 4.9341 0.689365 6.11203 0.344482 7.39168H5.54675L2.06718 3.91211Z" fill="#0052B4"/>
<path d="M19.6555 7.39164C19.3106 6.11203 18.7183 4.9341 17.9328 3.91211L14.4533 7.39164H19.6555Z" fill="#0052B4"/>
<path d="M0.344482 12.6089C0.689404 13.8885 1.28171 15.0664 2.06718 16.0884L5.54663 12.6089H0.344482Z" fill="#0052B4"/>
<path d="M16.0882 2.06746C15.0662 1.28195 13.8883 0.689648 12.6086 0.344727V5.54695L16.0882 2.06746Z" fill="#0052B4"/>
<path d="M3.9118 17.9331C4.9338 18.7186 6.11173 19.3109 7.39134 19.6558V14.4536L3.9118 17.9331Z" fill="#0052B4"/>
<path d="M7.3913 0.344727C6.11169 0.689648 4.93376 1.28195 3.9118 2.06742L7.3913 5.54691V0.344727Z" fill="#0052B4"/>
<path d="M12.6087 19.6558C13.8883 19.3109 15.0662 18.7186 16.0882 17.9331L12.6087 14.4536V19.6558Z" fill="#0052B4"/>
<path d="M14.4533 12.6089L17.9328 16.0884C18.7183 15.0665 19.3106 13.8885 19.6555 12.6089H14.4533Z" fill="#0052B4"/>
<path d="M19.9154 8.69566H11.3044H11.3044V0.0846484C10.8774 0.0290625 10.4421 0 10 0C9.55785 0 9.12262 0.0290625 8.69566 0.0846484V8.69559V8.69563H0.0846484C0.0290625 9.12262 0 9.55793 0 10C0 10.4421 0.0290625 10.8774 0.0846484 11.3043H8.69559H8.69563V19.9154C9.12262 19.9709 9.55785 20 10 20C10.4421 20 10.8774 19.971 11.3043 19.9154V11.3044V11.3044H19.9154C19.9709 10.8774 20 10.4421 20 10C20 9.55793 19.9709 9.12262 19.9154 8.69566Z" fill="#D80027"/>
<path d="M12.6087 12.6089L17.071 17.0713C17.2763 16.8661 17.4721 16.6516 17.6589 16.4293L13.8385 12.6089H12.6087V12.6089Z" fill="#D80027"/>
<path d="M7.39128 12.6089H7.3912L2.92889 17.0712C3.13405 17.2764 3.34854 17.4722 3.57089 17.659L7.39128 13.8385V12.6089Z" fill="#D80027"/>
<path d="M7.39128 7.39117V7.39109L2.92894 2.92871C2.7237 3.13387 2.52792 3.34836 2.34113 3.5707L6.16155 7.39113H7.39128V7.39117Z" fill="#D80027"/>
<path d="M12.6087 7.39151L17.0711 2.92908C16.8659 2.72385 16.6514 2.52807 16.4291 2.34131L12.6087 6.16174V7.39151Z" fill="#D80027"/>
</svg>
