<svg width="100" height="100" viewBox="0 0 100 100" fill="none" xmlns="http://www.w3.org/2000/svg">
<g opacity="0.1" clip-path="url(#clip0_309_2780)">
<path d="M79.0323 56.3504V21.673C79.0323 16.3369 74.6909 11.9956 69.3548 11.9956H9.67742C4.34133 11.9956 0 16.3369 0 21.673V56.3504C0 61.6865 4.34133 66.0279 9.67742 66.0279H18.3639L18.5492 74.7656C18.6046 77.3908 21.6192 78.8545 23.7161 77.2732L38.6321 66.0281H69.3548C74.6909 66.0279 79.0323 61.6865 79.0323 56.3504ZM37.5524 59.5762C36.8516 59.5762 36.1702 59.8045 35.6105 60.2262L24.8657 68.3269L24.7472 62.7339C24.7099 60.9795 23.277 59.5765 21.5222 59.5765H9.67742C7.89879 59.5765 6.45161 58.1293 6.45161 56.3506V21.6732C6.45161 19.8946 7.89879 18.4474 9.67742 18.4474H69.3548C71.1335 18.4474 72.5806 19.8946 72.5806 21.6732V56.3506C72.5806 58.1293 71.1335 59.5765 69.3548 59.5765H37.5524V59.5762ZM100 41.8343V68.4472C100 73.7835 95.6589 78.1246 90.3226 78.1246H81.6224L81.4506 84.8601C81.4058 86.6129 79.9694 88.0037 78.226 88.0037C76.9387 88.0037 77.6554 88.2269 61.5212 78.1246H46.7742C44.9925 78.1246 43.5484 76.6805 43.5484 74.8988C43.5484 73.1172 44.9925 71.673 46.7742 71.673C63.8843 71.673 63.0849 71.492 64.1595 72.1646L75.1452 79.043L75.2528 74.8164C75.2976 73.0674 76.728 71.6728 78.4776 71.6728H90.3226C92.1012 71.6728 93.5484 70.2256 93.5484 68.447V41.8341C93.5484 40.0555 92.1012 38.6083 90.3226 38.6083C88.5409 38.6083 87.0968 37.1642 87.0968 35.3825C87.0968 33.6008 88.5409 32.1567 90.3226 32.1567C95.6589 32.1569 100 36.498 100 41.8343ZM59.6774 33.165C59.6774 34.9466 58.2333 36.3908 56.4516 36.3908H22.5806C20.799 36.3908 19.3548 34.9466 19.3548 33.165C19.3548 31.3833 20.799 29.9392 22.5806 29.9392H56.4516C58.2333 29.9392 59.6774 31.3833 59.6774 33.165ZM53.8306 47.2779C53.8306 49.0595 52.3865 50.5037 50.6048 50.5037H28.4274C26.6458 50.5037 25.2016 49.0595 25.2016 47.2779C25.2016 45.4962 26.6458 44.0521 28.4274 44.0521H50.6048C52.3865 44.0521 53.8306 45.4962 53.8306 47.2779Z" fill="black"/>
</g>
<defs>
<clipPath id="clip0_309_2780">
<rect width="100" height="100" fill="white"/>
</clipPath>
</defs>
</svg>
