<svg width="194" height="47" viewBox="0 0 194 47" fill="none" xmlns="http://www.w3.org/2000/svg">
<path fill-rule="evenodd" clip-rule="evenodd" d="M7.42955 36.7843L7.99996 36V35.0714H8.99996V36.3252L8.23828 37.3725L7.42955 36.7843ZM7.99996 33.2143H8.99996V31.3571H7.99996V33.2143ZM7.99996 29.5H8.99996V27.6429H7.99996V29.5ZM7.99996 25.7857H8.99996V23.9286H7.99996V25.7857ZM7.99996 22.0714H8.99996V20.2143H7.99996V22.0714ZM7.99996 18.3571H8.99996V16.5H7.99996V18.3571ZM7.99996 14.6429H8.99996V12.7857H7.99996V14.6429ZM7.99996 10.9286H8.99996V10C8.99996 9.70155 9.01445 9.40678 9.04272 9.11631L8.04743 9.01945C8.01603 9.34206 7.99996 9.66915 7.99996 10V10.9286ZM8.42809 7.09617L9.38513 7.38613C9.55742 6.81749 9.78455 6.27253 10.0605 5.75735L9.17897 5.2852C8.87228 5.8578 8.6197 6.46374 8.42809 7.09617ZM10.2696 3.65597L11.0422 4.2908C11.4167 3.83505 11.835 3.4167 12.2908 3.04225L11.6559 2.2696C11.1499 2.68539 10.6854 3.14991 10.2696 3.65597ZM13.2852 1.17901L13.7573 2.06053C14.2725 1.78459 14.8174 1.55745 15.3861 1.38517L15.0961 0.428133C14.4637 0.619742 13.8578 0.872314 13.2852 1.17901ZM17.0194 0.0474633L17.1163 1.04276C17.4067 1.01449 17.7015 1 18 1H18.988V0H18C17.6691 0 17.342 0.016067 17.0194 0.0474633ZM20.9642 0V1H22.9404V0H20.9642ZM24.9166 0V1H26.8928V0H24.9166ZM28.869 0V1H30.8452V0H28.869ZM32.8214 0V1H34.7976V0H32.8214ZM36.7738 0V1H38.75V0H36.7738ZM40.7262 0V1H42.7024V0H40.7262ZM44.6786 0V1H46.6548V0H44.6786ZM48.631 0V1H50.6072V0H48.631ZM52.5834 0V1H54.5596V0H52.5834ZM56.5358 0V1H58.5119V0H56.5358ZM60.4881 0V1H62.4643V0H60.4881ZM64.4405 0V1H66.4167V0H64.4405ZM68.3929 0V1H70.3691V0H68.3929ZM72.3453 0V1H74.3214V0H72.3453ZM76.2976 0V1H78.2738V0H76.2976ZM80.25 0V1H82.2262V0H80.25ZM84.2024 0V1H86.1786V0H84.2024ZM88.1548 0V1H90.131V0H88.1548ZM92.1072 0V1H94.0833V0H92.1072ZM96.0595 0V1H98.0357V0H96.0595ZM100.012 0V1H101.988V0H100.012ZM103.964 0V1H105.94V0H103.964ZM107.917 0V1H109.893V0H107.917ZM111.869 0V1H113.845V0H111.869ZM115.821 0V1H117.798V0H115.821ZM119.774 0V1H121.75V0H119.774ZM123.726 0V1H125.702V0H123.726ZM127.679 0V1H129.655V0H127.679ZM131.631 0V1H133.607V0H131.631ZM135.583 0V1H137.559V0H135.583ZM139.536 0V1H141.512V0H139.536ZM143.488 0V1H145.464V0H143.488ZM147.44 0V1H149.417V0H147.44ZM151.393 0V1H153.369V0H151.393ZM155.345 0V1H157.321V0H155.345ZM159.298 0V1H161.274V0H159.298ZM163.25 0V1H165.226V0H163.25ZM167.202 0V1H169.179V0H167.202ZM171.155 0V1H173.131V0H171.155ZM175.107 0V1H177.083V0H175.107ZM179.059 0V1H181.036V0H179.059ZM183.012 0V1H184C184.298 1 184.593 1.01449 184.884 1.04276L184.98 0.0474628C184.658 0.0160668 184.331 0 184 0H183.012ZM186.904 0.428133L186.614 1.38517C187.182 1.55745 187.727 1.78459 188.243 2.06053L188.715 1.17901C188.142 0.872315 187.536 0.619742 186.904 0.428133ZM190.344 2.2696L189.709 3.04225C190.165 3.4167 190.583 3.83505 190.958 4.2908L191.73 3.65597C191.315 3.1499 190.85 2.68539 190.344 2.2696ZM192.821 5.2852L191.939 5.75735C192.215 6.27253 192.443 6.81749 192.615 7.38613L193.572 7.09617C193.38 6.46374 193.128 5.8578 192.821 5.2852ZM193.952 9.01945L192.957 9.11631C192.985 9.40678 193 9.70155 193 10V10.9643H194V10C194 9.66915 193.984 9.34206 193.952 9.01945ZM194 12.8929H193V14.8214H194V12.8929ZM194 16.75H193V18.6786H194V16.75ZM194 20.6071H193V22.5357H194V20.6071ZM194 24.4643H193V26.3929H194V24.4643ZM194 28.3214H193V30.25H194V28.3214ZM194 32.1786H193V34.1071H194V32.1786ZM194 36.0357H193V37C193 37.2985 192.985 37.5932 192.957 37.8837L193.952 37.9805C193.984 37.6579 194 37.3308 194 37V36.0357ZM193.572 39.9038L192.615 39.6139C192.443 40.1825 192.215 40.7275 191.939 41.2426L192.821 41.7148C193.128 41.1422 193.38 40.5363 193.572 39.9038ZM191.73 43.344L190.958 42.7092C190.583 43.1649 190.165 43.5833 189.709 43.9577L190.344 44.7304C190.85 44.3146 191.315 43.8501 191.73 43.344ZM188.715 45.821L188.243 44.9395C187.727 45.2154 187.182 45.4425 186.614 45.6148L186.904 46.5719C187.536 46.3803 188.142 46.1277 188.715 45.821ZM184.98 46.9525L184.884 45.9572C184.593 45.9855 184.298 46 184 46H183.012V47H184C184.331 47 184.658 46.9839 184.98 46.9525ZM181.036 47V46H179.059V47H181.036ZM177.083 47V46H175.107V47H177.083ZM173.131 47V46H171.155V47H173.131ZM169.179 47V46H167.202V47H169.179ZM165.226 47V46H163.25V47H165.226ZM161.274 47V46H159.298V47H161.274ZM157.321 47V46H155.345V47H157.321ZM153.369 47V46H151.393V47H153.369ZM149.417 47V46H147.44V47H149.417ZM145.464 47V46H143.488V47H145.464ZM141.512 47V46H139.536V47H141.512ZM137.559 47V46H135.583V47H137.559ZM133.607 47V46H131.631V47H133.607ZM129.655 47V46H127.678V47H129.655ZM125.702 47V46H123.726V47H125.702ZM121.75 47V46H119.774V47H121.75ZM117.798 47V46H115.821V47H117.798ZM113.845 47V46H111.869V47H113.845ZM109.893 47V46H107.917V47H109.893ZM105.94 47V46H103.964V47H105.94ZM101.988 47V46H100.012V47H101.988ZM98.0356 47V46H96.0594V47H98.0356ZM94.0833 47V46H92.1071V47H94.0833ZM90.1309 47V46H88.1547V47H90.1309ZM86.1785 47V46H84.2023V47H86.1785ZM82.2261 47V46H80.2499V47H82.2261ZM78.2737 47V46H76.2976V47H78.2737ZM74.3214 47V46H72.3452V47H74.3214ZM70.369 47V46H68.3928V47H70.369ZM66.4166 47V46H64.4404V47H66.4166ZM62.4642 47V46H60.488V47H62.4642ZM58.5119 47V46H56.5357V47H58.5119ZM54.5595 47V46H52.5833V47H54.5595ZM50.6071 47V46H48.6309V47H50.6071ZM46.6547 47V46H44.6785V47H46.6547ZM42.7023 47V46H40.7262V47H42.7023ZM38.75 47V46H36.7738V47H38.75ZM34.7976 47V46H32.8214V47H34.7976ZM30.8452 47V46H28.869V47H30.8452ZM26.8928 47V46H24.9166V47H26.8928ZM22.9404 47V46H20.9642V47H22.9404ZM18.9881 47V46H16.9977V47H18.9881ZM14.9932 47V46H12.9886V47H14.9932ZM10.9841 47V46H8.97958V47H10.9841ZM6.97505 47V46H4.97052V47H6.97505ZM2.966 47V46H1.96373L2.53414 45.2157L1.72541 44.6275L1.155 45.4118C1.03879 45.5716 0.978268 45.7469 0.964844 45.921L1.96071 45.9978L1.96188 45.9979C1.96191 45.9977 1.96186 45.9981 1.96188 45.9979C1.96183 45.9983 1.96171 45.9995 1.96164 46C1.95675 45.9998 1.95584 45.9992 1.95777 45.9998C1.95888 46.0001 1.96015 46.0006 1.96142 46.0012C1.96115 46.0026 1.96079 46.0039 1.96039 46.0049C1.95986 46.0064 1.95977 46.0061 1.96101 46.004C1.96139 46.0034 1.96188 46.0027 1.96252 46.0017C1.96292 46.0019 1.96334 46.0021 1.96373 46.0024C1.96353 46.0022 1.96394 46.0025 1.96373 46.0024L1.44011 46.8543C1.58876 46.9458 1.76616 47 1.96373 47H2.966ZM2.86624 43.0589L3.67497 43.647L4.8158 42.0784L4.00706 41.4902L2.86624 43.0589ZM5.14789 39.9216L5.95663 40.5098L7.09746 38.9411L6.28872 38.353L5.14789 39.9216Z" fill="black"/>
</svg>
