<svg width="53" height="53" viewBox="0 0 53 53" fill="none" xmlns="http://www.w3.org/2000/svg">
<g clip-path="url(#clip0_290_2027)">
<path d="M7.22656 44.5996C7.22656 45.2648 7.76598 45.8042 8.43114 45.8042H44.5678C45.233 45.8042 45.7724 45.2648 45.7724 44.5996V40.9858H7.22656V44.5996Z" fill="white"/>
<path d="M49.3871 14.4862C47.392 14.4882 45.7754 16.1049 45.7734 18.0996C45.779 18.2463 45.794 18.3927 45.8175 18.5379L35.3227 23.7852L28.4191 13.9225C30.1106 12.8627 30.6221 10.6327 29.5623 8.94166C28.5028 7.25024 26.2724 6.73832 24.5814 7.79814C22.8904 8.85837 22.3784 11.088 23.4383 12.7794C23.7282 13.2416 24.1188 13.6326 24.5814 13.9225L17.6778 23.7852L7.18306 18.5379C7.20692 18.3927 7.22188 18.2463 7.22754 18.0996C7.23725 16.1041 5.62709 14.4781 3.63118 14.4684C1.63527 14.4587 0.00974787 16.0689 4.32788e-05 18.0644C-0.0088526 19.8965 1.35464 21.4452 3.17304 21.6688L7.22754 38.5771H45.7734L49.8275 21.6688C51.804 21.4303 53.2124 19.6345 52.9738 17.6584C52.7546 15.8449 51.2136 14.4818 49.3871 14.4862Z" fill="white"/>
</g>
<defs>
<clipPath id="clip0_290_2027">
<rect width="53" height="53" fill="white"/>
</clipPath>
</defs>
</svg>
