<svg width="194" height="47" viewBox="0 0 194 47" fill="none" xmlns="http://www.w3.org/2000/svg">
<path d="M42.4299 29H41.5659V23.006H33.9519V29H33.0879V16.4H33.9519V22.196H41.5659V16.4H42.4299V29Z" fill="black"/>
<path d="M50.2427 19.874C51.2147 19.874 52.0547 20.126 52.7627 20.63C53.4827 21.122 54.0047 21.782 54.3287 22.61C54.4487 22.91 54.5267 23.27 54.5627 23.69C54.5987 24.098 54.5807 24.416 54.5087 24.644H46.4807C46.4807 25.784 46.8407 26.69 47.5607 27.362C48.2927 28.022 49.2467 28.358 50.4227 28.37C51.6587 28.37 52.7627 27.992 53.7347 27.236L54.2027 27.74C53.0867 28.652 51.8267 29.108 50.4227 29.108C49.0067 29.096 47.8547 28.67 46.9667 27.83C46.0907 26.99 45.6527 25.88 45.6527 24.5C45.6527 23.204 46.0787 22.112 46.9307 21.224C47.7947 20.324 48.8987 19.874 50.2427 19.874ZM50.2607 20.63C49.2167 20.63 48.3467 20.96 47.6507 21.62C46.9667 22.268 46.5947 23.078 46.5347 24.05H53.7887C53.8127 23.63 53.7467 23.228 53.5907 22.844C53.3267 22.172 52.9067 21.638 52.3307 21.242C51.7547 20.834 51.0647 20.63 50.2607 20.63Z" fill="black"/>
<path d="M57.5152 29V16.4H58.3432V29H57.5152Z" fill="black"/>
<path d="M61.8921 29V16.4H62.7201V29H61.8921Z" fill="black"/>
<path d="M66.9891 21.224C67.8891 20.324 68.9751 19.874 70.2471 19.874C71.5191 19.874 72.6051 20.33 73.5051 21.242C74.4171 22.142 74.8731 23.228 74.8731 24.5C74.8731 25.772 74.4231 26.858 73.5231 27.758C72.6231 28.658 71.5311 29.108 70.2471 29.108C68.9751 29.108 67.8891 28.658 66.9891 27.758C66.0891 26.858 65.6391 25.772 65.6391 24.5C65.6391 23.216 66.0891 22.124 66.9891 21.224ZM70.2651 20.648C69.2091 20.648 68.3091 21.02 67.5651 21.764C66.8331 22.508 66.4671 23.42 66.4671 24.5C66.4671 25.58 66.8331 26.492 67.5651 27.236C68.3091 27.968 69.2091 28.334 70.2651 28.334C71.3091 28.334 72.2031 27.968 72.9471 27.236C73.6911 26.492 74.0631 25.58 74.0631 24.5C74.0631 23.42 73.6911 22.508 72.9471 21.764C72.2031 21.02 71.3091 20.648 70.2651 20.648Z" fill="black"/>
<path d="M87.4205 19.874C88.3925 19.874 89.2325 20.126 89.9405 20.63C90.6605 21.122 91.1825 21.782 91.5065 22.61C91.6265 22.91 91.7045 23.27 91.7405 23.69C91.7765 24.098 91.7585 24.416 91.6865 24.644H83.6585C83.6585 25.784 84.0185 26.69 84.7385 27.362C85.4705 28.022 86.4245 28.358 87.6005 28.37C88.8365 28.37 89.9405 27.992 90.9125 27.236L91.3805 27.74C90.2645 28.652 89.0045 29.108 87.6005 29.108C86.1845 29.096 85.0325 28.67 84.1445 27.83C83.2685 26.99 82.8305 25.88 82.8305 24.5C82.8305 23.204 83.2565 22.112 84.1085 21.224C84.9725 20.324 86.0765 19.874 87.4205 19.874ZM87.4385 20.63C86.3945 20.63 85.5245 20.96 84.8285 21.62C84.1445 22.268 83.7725 23.078 83.7125 24.05H90.9665C90.9905 23.63 90.9245 23.228 90.7685 22.844C90.5045 22.172 90.0845 21.638 89.5085 21.242C88.9325 20.834 88.2425 20.63 87.4385 20.63Z" fill="black"/>
<path d="M98.0786 29H97.6286L93.4886 20H94.3526L97.8446 27.65L101.355 20H102.219L98.0786 29Z" fill="black"/>
<path d="M108.585 19.874C109.557 19.874 110.397 20.126 111.105 20.63C111.825 21.122 112.347 21.782 112.671 22.61C112.791 22.91 112.869 23.27 112.905 23.69C112.941 24.098 112.923 24.416 112.851 24.644H104.823C104.823 25.784 105.183 26.69 105.903 27.362C106.635 28.022 107.589 28.358 108.765 28.37C110.001 28.37 111.105 27.992 112.077 27.236L112.545 27.74C111.429 28.652 110.169 29.108 108.765 29.108C107.349 29.096 106.197 28.67 105.309 27.83C104.433 26.99 103.995 25.88 103.995 24.5C103.995 23.204 104.421 22.112 105.273 21.224C106.137 20.324 107.241 19.874 108.585 19.874ZM108.603 20.63C107.559 20.63 106.689 20.96 105.993 21.62C105.309 22.268 104.937 23.078 104.877 24.05H112.131C112.155 23.63 112.089 23.228 111.933 22.844C111.669 22.172 111.249 21.638 110.673 21.242C110.097 20.834 109.407 20.63 108.603 20.63Z" fill="black"/>
<path d="M120.987 20.648H120.663C119.259 20.648 118.227 21.074 117.567 21.926C116.907 22.766 116.577 23.87 116.577 25.238V29H115.767V20H116.397L116.469 22.664C117.153 20.804 118.605 19.874 120.825 19.874H120.987V20.648Z" fill="black"/>
<path d="M131.802 20V27.884C131.802 29.3 131.43 30.41 130.686 31.214C129.954 32.018 128.892 32.426 127.5 32.438C126.06 32.438 124.794 31.982 123.702 31.07L124.188 30.548C125.196 31.316 126.3 31.694 127.5 31.682C128.652 31.682 129.516 31.364 130.092 30.728C130.68 30.104 130.974 29.198 130.974 28.01V26.678C130.638 27.482 130.128 28.082 129.444 28.478C128.76 28.862 128.046 29.054 127.302 29.054C126.102 29.054 125.148 28.688 124.44 27.956C123.744 27.212 123.396 26.168 123.396 24.824V20H124.206V24.788C124.206 25.94 124.488 26.81 125.052 27.398C125.628 27.986 126.408 28.28 127.392 28.28C128.484 28.28 129.354 27.914 130.002 27.182C130.65 26.438 130.974 25.43 130.974 24.158V20H131.802Z" fill="black"/>
<path d="M136.001 21.224C136.901 20.324 137.987 19.874 139.259 19.874C140.531 19.874 141.617 20.33 142.517 21.242C143.429 22.142 143.885 23.228 143.885 24.5C143.885 25.772 143.435 26.858 142.535 27.758C141.635 28.658 140.543 29.108 139.259 29.108C137.987 29.108 136.901 28.658 136.001 27.758C135.101 26.858 134.651 25.772 134.651 24.5C134.651 23.216 135.101 22.124 136.001 21.224ZM139.277 20.648C138.221 20.648 137.321 21.02 136.577 21.764C135.845 22.508 135.479 23.42 135.479 24.5C135.479 25.58 135.845 26.492 136.577 27.236C137.321 27.968 138.221 28.334 139.277 28.334C140.321 28.334 141.215 27.968 141.959 27.236C142.703 26.492 143.075 25.58 143.075 24.5C143.075 23.42 142.703 22.508 141.959 21.764C141.215 21.02 140.321 20.648 139.277 20.648Z" fill="black"/>
<path d="M151.31 19.874C152.522 19.874 153.476 20.246 154.172 20.99C154.88 21.722 155.234 22.76 155.234 24.104V29H154.406V24.14C154.406 22.988 154.124 22.118 153.56 21.53C152.996 20.942 152.216 20.648 151.22 20.648C150.128 20.648 149.258 21.02 148.61 21.764C147.962 22.496 147.638 23.498 147.638 24.77V29H146.827V20H147.458L147.512 22.358C147.848 21.518 148.369 20.894 149.077 20.486C149.785 20.078 150.53 19.874 151.31 19.874Z" fill="black"/>
<path d="M162.672 19.874C163.644 19.874 164.484 20.126 165.192 20.63C165.912 21.122 166.434 21.782 166.758 22.61C166.878 22.91 166.956 23.27 166.992 23.69C167.028 24.098 167.01 24.416 166.938 24.644H158.91C158.91 25.784 159.27 26.69 159.99 27.362C160.722 28.022 161.676 28.358 162.852 28.37C164.088 28.37 165.192 27.992 166.164 27.236L166.632 27.74C165.516 28.652 164.256 29.108 162.852 29.108C161.436 29.096 160.284 28.67 159.396 27.83C158.52 26.99 158.082 25.88 158.082 24.5C158.082 23.204 158.508 22.112 159.36 21.224C160.224 20.324 161.328 19.874 162.672 19.874ZM162.69 20.63C161.646 20.63 160.776 20.96 160.08 21.62C159.396 22.268 159.024 23.078 158.964 24.05H166.218C166.242 23.63 166.176 23.228 166.02 22.844C165.756 22.172 165.336 21.638 164.76 21.242C164.184 20.834 163.494 20.63 162.69 20.63Z" fill="black"/>
<path d="M170.359 16.4V22.07L170.233 26.228H169.621L169.495 22.07V16.4H170.359ZM169.495 28.154C169.615 28.034 169.759 27.974 169.927 27.974C170.095 27.974 170.239 28.034 170.359 28.154C170.479 28.262 170.539 28.394 170.539 28.55C170.539 28.706 170.479 28.844 170.359 28.964C170.239 29.072 170.095 29.126 169.927 29.126C169.759 29.126 169.615 29.072 169.495 28.964C169.375 28.844 169.315 28.706 169.315 28.55C169.315 28.394 169.375 28.262 169.495 28.154Z" fill="black"/>
<path fill-rule="evenodd" clip-rule="evenodd" d="M7.42955 36.7843L7.99996 36V35.0714H8.99996V36.3252L8.23828 37.3725L7.42955 36.7843ZM7.99996 33.2143H8.99996V31.3571H7.99996V33.2143ZM7.99996 29.5H8.99996V27.6429H7.99996V29.5ZM7.99996 25.7857H8.99996V23.9286H7.99996V25.7857ZM7.99996 22.0714H8.99996V20.2143H7.99996V22.0714ZM7.99996 18.3571H8.99996V16.5H7.99996V18.3571ZM7.99996 14.6429H8.99996V12.7857H7.99996V14.6429ZM7.99996 10.9286H8.99996V10C8.99996 9.70155 9.01445 9.40678 9.04272 9.11631L8.04743 9.01945C8.01603 9.34206 7.99996 9.66915 7.99996 10V10.9286ZM8.42809 7.09617L9.38513 7.38613C9.55742 6.81749 9.78455 6.27253 10.0605 5.75735L9.17897 5.2852C8.87228 5.8578 8.6197 6.46374 8.42809 7.09617ZM10.2696 3.65597L11.0422 4.2908C11.4167 3.83505 11.835 3.4167 12.2908 3.04225L11.6559 2.2696C11.1499 2.68539 10.6854 3.14991 10.2696 3.65597ZM13.2852 1.17901L13.7573 2.06053C14.2725 1.78459 14.8174 1.55745 15.3861 1.38517L15.0961 0.428133C14.4637 0.619742 13.8578 0.872314 13.2852 1.17901ZM17.0194 0.0474633L17.1163 1.04276C17.4067 1.01449 17.7015 1 18 1H18.988V0H18C17.6691 0 17.342 0.016067 17.0194 0.0474633ZM20.9642 0V1H22.9404V0H20.9642ZM24.9166 0V1H26.8928V0H24.9166ZM28.869 0V1H30.8452V0H28.869ZM32.8214 0V1H34.7976V0H32.8214ZM36.7738 0V1H38.75V0H36.7738ZM40.7262 0V1H42.7024V0H40.7262ZM44.6786 0V1H46.6548V0H44.6786ZM48.631 0V1H50.6072V0H48.631ZM52.5834 0V1H54.5596V0H52.5834ZM56.5358 0V1H58.5119V0H56.5358ZM60.4881 0V1H62.4643V0H60.4881ZM64.4405 0V1H66.4167V0H64.4405ZM68.3929 0V1H70.3691V0H68.3929ZM72.3453 0V1H74.3214V0H72.3453ZM76.2976 0V1H78.2738V0H76.2976ZM80.25 0V1H82.2262V0H80.25ZM84.2024 0V1H86.1786V0H84.2024ZM88.1548 0V1H90.131V0H88.1548ZM92.1072 0V1H94.0833V0H92.1072ZM96.0595 0V1H98.0357V0H96.0595ZM100.012 0V1H101.988V0H100.012ZM103.964 0V1H105.94V0H103.964ZM107.917 0V1H109.893V0H107.917ZM111.869 0V1H113.845V0H111.869ZM115.821 0V1H117.798V0H115.821ZM119.774 0V1H121.75V0H119.774ZM123.726 0V1H125.702V0H123.726ZM127.679 0V1H129.655V0H127.679ZM131.631 0V1H133.607V0H131.631ZM135.583 0V1H137.559V0H135.583ZM139.536 0V1H141.512V0H139.536ZM143.488 0V1H145.464V0H143.488ZM147.44 0V1H149.417V0H147.44ZM151.393 0V1H153.369V0H151.393ZM155.345 0V1H157.321V0H155.345ZM159.298 0V1H161.274V0H159.298ZM163.25 0V1H165.226V0H163.25ZM167.202 0V1H169.179V0H167.202ZM171.155 0V1H173.131V0H171.155ZM175.107 0V1H177.083V0H175.107ZM179.059 0V1H181.036V0H179.059ZM183.012 0V1H184C184.298 1 184.593 1.01449 184.884 1.04276L184.98 0.0474628C184.658 0.0160668 184.331 0 184 0H183.012ZM186.904 0.428133L186.614 1.38517C187.182 1.55745 187.727 1.78459 188.243 2.06053L188.715 1.17901C188.142 0.872315 187.536 0.619742 186.904 0.428133ZM190.344 2.2696L189.709 3.04225C190.165 3.4167 190.583 3.83505 190.958 4.2908L191.73 3.65597C191.315 3.1499 190.85 2.68539 190.344 2.2696ZM192.821 5.2852L191.939 5.75735C192.215 6.27253 192.443 6.81749 192.615 7.38613L193.572 7.09617C193.38 6.46374 193.128 5.8578 192.821 5.2852ZM193.952 9.01945L192.957 9.11631C192.985 9.40678 193 9.70155 193 10V10.9643H194V10C194 9.66915 193.984 9.34206 193.952 9.01945ZM194 12.8929H193V14.8214H194V12.8929ZM194 16.75H193V18.6786H194V16.75ZM194 20.6071H193V22.5357H194V20.6071ZM194 24.4643H193V26.3929H194V24.4643ZM194 28.3214H193V30.25H194V28.3214ZM194 32.1786H193V34.1071H194V32.1786ZM194 36.0357H193V37C193 37.2985 192.985 37.5932 192.957 37.8837L193.952 37.9805C193.984 37.6579 194 37.3308 194 37V36.0357ZM193.572 39.9038L192.615 39.6139C192.443 40.1825 192.215 40.7275 191.939 41.2426L192.821 41.7148C193.128 41.1422 193.38 40.5363 193.572 39.9038ZM191.73 43.344L190.958 42.7092C190.583 43.1649 190.165 43.5833 189.709 43.9577L190.344 44.7304C190.85 44.3146 191.315 43.8501 191.73 43.344ZM188.715 45.821L188.243 44.9395C187.727 45.2154 187.182 45.4425 186.614 45.6148L186.904 46.5719C187.536 46.3803 188.142 46.1277 188.715 45.821ZM184.98 46.9525L184.884 45.9572C184.593 45.9855 184.298 46 184 46H183.012V47H184C184.331 47 184.658 46.9839 184.98 46.9525ZM181.036 47V46H179.059V47H181.036ZM177.083 47V46H175.107V47H177.083ZM173.131 47V46H171.155V47H173.131ZM169.179 47V46H167.202V47H169.179ZM165.226 47V46H163.25V47H165.226ZM161.274 47V46H159.298V47H161.274ZM157.321 47V46H155.345V47H157.321ZM153.369 47V46H151.393V47H153.369ZM149.417 47V46H147.44V47H149.417ZM145.464 47V46H143.488V47H145.464ZM141.512 47V46H139.536V47H141.512ZM137.559 47V46H135.583V47H137.559ZM133.607 47V46H131.631V47H133.607ZM129.655 47V46H127.678V47H129.655ZM125.702 47V46H123.726V47H125.702ZM121.75 47V46H119.774V47H121.75ZM117.798 47V46H115.821V47H117.798ZM113.845 47V46H111.869V47H113.845ZM109.893 47V46H107.917V47H109.893ZM105.94 47V46H103.964V47H105.94ZM101.988 47V46H100.012V47H101.988ZM98.0356 47V46H96.0594V47H98.0356ZM94.0833 47V46H92.1071V47H94.0833ZM90.1309 47V46H88.1547V47H90.1309ZM86.1785 47V46H84.2023V47H86.1785ZM82.2261 47V46H80.2499V47H82.2261ZM78.2737 47V46H76.2976V47H78.2737ZM74.3214 47V46H72.3452V47H74.3214ZM70.369 47V46H68.3928V47H70.369ZM66.4166 47V46H64.4404V47H66.4166ZM62.4642 47V46H60.488V47H62.4642ZM58.5119 47V46H56.5357V47H58.5119ZM54.5595 47V46H52.5833V47H54.5595ZM50.6071 47V46H48.6309V47H50.6071ZM46.6547 47V46H44.6785V47H46.6547ZM42.7023 47V46H40.7262V47H42.7023ZM38.75 47V46H36.7738V47H38.75ZM34.7976 47V46H32.8214V47H34.7976ZM30.8452 47V46H28.869V47H30.8452ZM26.8928 47V46H24.9166V47H26.8928ZM22.9404 47V46H20.9642V47H22.9404ZM18.9881 47V46H16.9977V47H18.9881ZM14.9932 47V46H12.9886V47H14.9932ZM10.9841 47V46H8.97958V47H10.9841ZM6.97505 47V46H4.97052V47H6.97505ZM2.966 47V46H1.96373L2.53414 45.2157L1.72541 44.6275L1.155 45.4118C1.03879 45.5716 0.978268 45.7469 0.964844 45.921L1.96071 45.9978L1.96188 45.9979C1.96191 45.9977 1.96186 45.9981 1.96188 45.9979C1.96183 45.9983 1.96171 45.9995 1.96164 46C1.95675 45.9998 1.95584 45.9992 1.95777 45.9998C1.95888 46.0001 1.96015 46.0006 1.96142 46.0012C1.96115 46.0026 1.96079 46.0039 1.96039 46.0049C1.95986 46.0064 1.95977 46.0061 1.96101 46.004C1.96139 46.0034 1.96188 46.0027 1.96252 46.0017C1.96292 46.0019 1.96334 46.0021 1.96373 46.0024C1.96353 46.0022 1.96394 46.0025 1.96373 46.0024L1.44011 46.8543C1.58876 46.9458 1.76616 47 1.96373 47H2.966ZM2.86624 43.0589L3.67497 43.647L4.8158 42.0784L4.00706 41.4902L2.86624 43.0589ZM5.14789 39.9216L5.95663 40.5098L7.09746 38.9411L6.28872 38.353L5.14789 39.9216Z" fill="black"/>
</svg>
