<svg width="20" height="20" viewBox="0 0 20 20" fill="none" xmlns="http://www.w3.org/2000/svg">
<path d="M0.622009 13.4784C2.03494 17.2864 5.70037 20.0002 10 20.0002C14.2997 20.0002 17.9651 17.2864 19.378 13.4784L10 12.6089L0.622009 13.4784Z" fill="#FFDA44"/>
<path d="M10 0C5.70037 0 2.03494 2.71375 0.622009 6.52176L10 7.39129L19.378 6.52172C17.9651 2.71375 14.2997 0 10 0Z" fill="black"/>
<path d="M0.621992 6.52197C0.220039 7.60529 0 8.77701 0 10.0002C0 11.2234 0.220039 12.3951 0.621992 13.4785H19.378C19.78 12.3951 20 11.2234 20 10.0002C20 8.77701 19.78 7.60529 19.378 6.52197H0.621992Z" fill="#D80027"/>
</svg>
