<svg width="80" height="80" viewBox="0 0 80 80" fill="none" xmlns="http://www.w3.org/2000/svg">
<path d="M76.0498 41.0614C76.0498 44.5349 75.5475 47.8888 74.6124 51.0596C72.4219 58.4869 67.8516 64.8956 61.7841 69.4012C55.9143 73.761 48.6444 76.3397 40.7709 76.3397C21.2878 76.3397 5.49255 60.5444 5.49255 41.0614C5.49255 31.3123 9.44763 22.4866 15.8411 16.1011C22.2241 9.72595 31.037 5.78308 40.7709 5.78308C48.0774 5.78308 54.8651 8.00476 60.4956 11.8085C69.8804 18.1482 76.0498 28.8849 76.0498 41.0614Z" fill="#007AFF"/>
<path d="M76.0498 41.0614C76.0498 44.5355 75.5475 47.8888 74.613 51.0602C72.4225 58.4863 67.851 64.8962 61.7834 69.4006C55.9143 73.7622 48.6444 76.3403 40.7709 76.3403C39.9762 76.3403 39.1864 76.3129 38.4045 76.2622C45.3662 75.8008 51.7749 73.3221 57.0502 69.4006C63.1177 64.8962 67.6874 58.4863 69.8798 51.0602C70.8136 47.8888 71.3165 44.5355 71.3165 41.0614C71.3165 28.8849 65.1465 18.1482 55.7629 11.8091C50.744 8.41736 44.8059 6.28418 38.4003 5.8606C39.184 5.80994 39.9744 5.78247 40.7709 5.78247C48.078 5.78247 54.8651 8.00415 60.4956 11.8091C69.8798 18.1482 76.0498 28.8849 76.0498 41.0614Z" fill="#2030E0"/>
<path d="M76.0498 41.0614C76.0498 44.5355 75.5475 47.8888 74.613 51.0602L68.3667 44.8138C68.1384 44.5856 67.8448 44.4336 67.5269 44.3787L60.4138 43.1543C60.0958 43.1 59.8022 42.9474 59.574 42.7191L58.6365 41.7816C58.3435 41.4886 58.1787 41.0913 58.1787 40.6769V31.0669C58.1787 30.6525 58.3435 30.2551 58.6365 29.9622L60.0378 28.5602C60.3308 28.2672 60.4956 27.8699 60.4956 27.4554V11.8091C69.8798 18.1482 76.0498 28.8849 76.0498 41.0614Z" fill="#A0D37D"/>
<path d="M76.0498 41.0614C76.0498 44.5355 75.5475 47.8888 74.613 51.0602L70.7782 47.2253C71.1316 45.224 71.3165 43.1653 71.3165 41.0614C71.3165 31.0742 67.1667 22.0563 60.4956 15.6396V11.8091C69.8798 18.1482 76.0498 28.8849 76.0498 41.0614Z" fill="#84B75B"/>
<path d="M61.7841 62.4762V69.4012C55.9155 73.7598 48.6487 76.3385 40.7776 76.3397C21.5808 76.3434 5.81238 60.849 5.49744 41.6547C5.33325 31.6705 9.31824 22.616 15.8417 16.1011L18.559 23.6334C18.7799 24.2462 19.361 24.6539 20.0122 24.6539H30.5701C30.9802 24.6539 31.3733 24.8169 31.6626 25.1068L36.3336 29.7778C36.6235 30.0677 36.7865 30.4608 36.7865 30.8704V48.783C36.7865 49.1931 36.9495 49.5862 37.2388 49.8755L40.9924 53.6292C41.2817 53.9185 41.6748 54.0814 42.085 54.0814H53.3893C53.7995 54.0814 54.1919 54.2444 54.4818 54.5337L61.3318 61.3837C61.6211 61.6736 61.7841 62.0667 61.7841 62.4762Z" fill="#A0D37D"/>
<path d="M61.7847 65.1794V69.4012C55.9155 73.7604 48.6487 76.3385 40.7782 76.3403C39.9841 76.3403 39.1968 76.3135 38.4155 76.2604C45.3735 75.7983 51.778 73.3197 57.0502 69.4012C58.7531 68.1372 60.3375 66.723 61.7847 65.1794Z" fill="#84B75B"/>
<path d="M55.7239 12.7252C55.7239 13.5663 55.5737 14.3719 55.2991 15.119C54.3243 17.7728 51.7743 19.6667 48.7817 19.6667C45.7898 19.6667 43.2397 17.7728 42.2644 15.119C41.9897 14.3719 41.8396 13.5663 41.8396 12.7252C41.8396 8.89038 44.9487 5.78308 48.7817 5.78308C52.6154 5.78308 55.7239 8.89038 55.7239 12.7252Z" fill="white"/>
<path d="M55.2991 15.119C54.3243 17.7728 51.7743 19.6667 48.7817 19.6667C45.7898 19.6667 43.2397 17.7728 42.2644 15.119C43.2391 12.4634 45.7898 10.5707 48.7817 10.5707C51.7743 10.5707 54.3243 12.4634 55.2991 15.119Z" fill="#FF6478"/>
<path d="M52.6117 7.65808C52.6117 9.77356 50.8972 11.488 48.7817 11.488C46.6669 11.488 44.9518 9.77356 44.9518 7.65808C44.9518 5.54321 46.6669 3.82812 48.7817 3.82812C50.8972 3.82812 52.6117 5.54321 52.6117 7.65808Z" fill="#F8C298"/>
<path d="M32.9205 59.0961C32.9205 59.9371 32.7704 60.7434 32.4963 61.4899C31.521 64.1437 28.9709 66.0382 25.9784 66.0382C22.9865 66.0382 20.4364 64.1437 19.4611 61.4899C19.1864 60.7434 19.0369 59.9371 19.0369 59.0961C19.0369 55.2612 22.1454 52.1539 25.9784 52.1539C29.812 52.1539 32.9205 55.2612 32.9205 59.0961Z" fill="#627687"/>
<path d="M32.4963 61.4899C31.521 64.1437 28.9709 66.0382 25.9784 66.0382C22.9865 66.0382 20.4364 64.1437 19.4611 61.4899C20.4358 58.8342 22.9865 56.9421 25.9784 56.9421C28.9709 56.9421 31.521 58.8342 32.4963 61.4899Z" fill="#F1DD47"/>
<path d="M29.809 54.0295C29.809 56.1444 28.0939 57.8595 25.979 57.8595C23.8635 57.8595 22.149 56.1444 22.149 54.0295C22.149 51.9141 23.8635 50.1996 25.979 50.1996C28.0939 50.1996 29.809 51.9141 29.809 54.0295Z" fill="#FAEAD3"/>
<path d="M15.0555 36.109C15.0555 36.9501 14.906 37.7557 14.6313 38.5022C13.656 41.1566 11.106 43.0505 8.11401 43.0505C5.12146 43.0505 2.57141 41.1566 1.59607 38.5022C1.32202 37.7557 1.17188 36.9495 1.17188 36.109C1.17188 32.2742 4.2804 29.1669 8.11401 29.1669C11.947 29.1669 15.0555 32.2742 15.0555 36.109Z" fill="white"/>
<path d="M14.6313 38.5022C13.6566 41.1566 11.106 43.0505 8.11401 43.0505C5.12146 43.0505 2.57141 41.1566 1.59668 38.5022C2.57141 35.8472 5.12146 33.9545 8.11401 33.9545C11.106 33.9545 13.656 35.8472 14.6313 38.5022Z" fill="#59CF57"/>
<path d="M11.944 31.0419C11.944 33.1573 10.2289 34.8718 8.11401 34.8718C5.99854 34.8718 4.28406 33.1573 4.28406 31.0419C4.28406 28.9264 5.99854 27.2119 8.11401 27.2119C10.2289 27.2119 11.944 28.9264 11.944 31.0419Z" fill="#F8C298"/>
<path d="M78.8281 24.3848C78.8281 25.2258 78.678 26.0315 78.4033 26.7786C77.4286 29.4324 74.8785 31.3263 71.886 31.3263C68.894 31.3263 66.344 29.4324 65.3687 26.7786C65.094 26.0315 64.9438 25.2252 64.9438 24.3848C64.9438 20.5499 68.053 17.4426 71.886 17.4426C75.7196 17.4426 78.8281 20.5499 78.8281 24.3848Z" fill="white"/>
<path d="M78.4033 26.7786C77.4286 29.4324 74.8785 31.3263 71.886 31.3263C68.894 31.3263 66.344 29.4324 65.3687 26.7786C66.3434 24.1229 68.894 22.2302 71.886 22.2302C74.8785 22.2302 77.4286 24.1229 78.4033 26.7786Z" fill="#59CF57"/>
<path d="M75.7159 19.3176C75.7159 21.4331 74.0015 23.1476 71.886 23.1476C69.7711 23.1476 68.056 21.4331 68.056 19.3176C68.056 17.2021 69.7711 15.4877 71.886 15.4877C74.0015 15.4877 75.7159 17.2021 75.7159 19.3176Z" fill="#F8C298"/>
<path d="M38.0676 49.0472C37.9968 48.9764 37.9584 48.8831 37.9584 48.7836V39.8633C37.9584 39.2157 37.4335 38.6914 36.7865 38.6914C36.1389 38.6914 35.6146 39.2157 35.6146 39.8633V48.7836C35.6146 49.5093 35.8972 50.1917 36.4099 50.705L40.1636 54.458C40.6763 54.9713 41.3586 55.2539 42.0844 55.2539H45.5725C46.2201 55.2539 46.7444 54.729 46.7444 54.082C46.7444 53.4344 46.2201 52.9102 45.5725 52.9102H42.0844C41.9849 52.9102 41.8909 52.8711 41.8207 52.8009L38.0676 49.0472Z" fill="black"/>
<path d="M69.5093 61.5588C68.9954 61.1658 68.2599 61.2634 67.8662 61.7773C66.4105 63.6786 64.7607 65.4126 62.9559 66.9598V62.4768C62.9559 61.7505 62.6733 61.0687 62.16 60.5554L55.3107 53.7054C54.7974 53.1927 54.115 52.9102 53.3893 52.9102H52.24C51.5924 52.9102 51.0681 53.4344 51.0681 54.082C51.0681 54.729 51.5924 55.2539 52.24 55.2539H53.3893C53.4894 55.2539 53.5828 55.2924 53.6536 55.3632L60.5029 62.2125C60.5731 62.2833 60.6122 62.3767 60.6122 62.4762V68.8013C58.5596 70.2722 56.347 71.5179 54.0118 72.5024C53.4155 72.7539 53.1354 73.4412 53.3868 74.0375C53.576 74.4855 54.01 74.7546 54.4672 74.7546C54.6191 74.7546 54.7736 74.7247 54.9225 74.6625C60.7471 72.2058 65.8667 68.2434 69.7272 63.2019C70.1208 62.688 70.0232 61.9525 69.5093 61.5588Z" fill="black"/>
<path d="M49.3524 74.079C46.5643 74.8016 43.6768 75.1678 40.7709 75.1678C23.0261 75.1678 8.34961 61.6309 6.80115 44.115C7.229 44.1846 7.66663 44.2224 8.11401 44.2224C11.9702 44.2224 15.2045 41.5173 16.0248 37.9053H16.9305C17.5775 37.9053 18.1024 37.381 18.1024 36.7334C18.1024 36.0858 17.5775 35.5615 16.9305 35.5615H16.2079C16.0474 33.1653 14.837 30.9717 12.8888 29.552C12.439 28.1146 11.3568 26.955 9.97009 26.3983C11.3818 23.4393 13.2111 20.7092 15.3845 18.2886L17.4561 24.0314C17.843 25.105 18.8702 25.8258 20.0116 25.8258H30.5695C30.6696 25.8258 30.7629 25.8649 30.8337 25.9357L35.5048 30.6067C35.5743 30.6757 35.614 30.7721 35.614 30.8704V33.36C35.614 34.0076 36.1383 34.5319 36.7859 34.5319C37.4329 34.5319 37.9578 34.0076 37.9578 33.36V30.8704C37.9578 30.1447 37.6752 29.4623 37.1619 28.949L32.4908 24.278C31.9775 23.7646 31.2952 23.4821 30.5695 23.4821H20.0116C19.8547 23.4821 19.7137 23.3832 19.6606 23.2355L17.1997 16.4148C19.5795 14.1382 22.2882 12.1985 25.2502 10.6818C25.8264 10.387 26.0541 9.6814 25.7593 9.10461C25.4645 8.52844 24.7583 8.30078 24.1821 8.59558C16.8292 12.3602 10.9314 18.5583 7.53662 26.0742C5.55237 26.3031 3.91785 27.6965 3.33801 29.5526C1.24451 31.0797 0 33.5071 0 36.1084C0 39.2413 1.78589 41.9629 4.39209 43.3148C5.56213 62.5214 21.4679 77.5116 40.7709 77.5116C43.8751 77.5116 46.9604 77.1204 49.9408 76.3476C50.567 76.1853 50.9436 75.5456 50.7812 74.9194C50.6189 74.2932 49.9786 73.916 49.3524 74.079ZM13.797 35.1178C13.3221 34.6497 12.7905 34.2401 12.215 33.9001C12.4603 33.5492 12.663 33.1665 12.8125 32.7582C13.3112 33.457 13.6487 34.2621 13.797 35.1178ZM8.11401 28.3838C9.57947 28.3838 10.7721 29.5764 10.7721 31.0419C10.7721 32.5079 9.57947 33.7006 8.11401 33.7006C6.64856 33.7006 5.45593 32.5079 5.45593 31.0419C5.45593 29.5764 6.64795 28.3838 8.11401 28.3838ZM4.0094 33.8953C3.43323 34.2328 2.90527 34.6387 2.43347 35.1019C2.58362 34.2535 2.92053 33.4546 3.41614 32.76C3.56506 33.1659 3.76587 33.5461 4.0094 33.8953ZM2.86499 38.501C3.47656 37.1576 4.57214 36.1041 5.94482 35.5487C6.60095 35.8655 7.33704 36.0437 8.11401 36.0437C8.89038 36.0437 9.62585 35.8661 10.282 35.5493C11.6388 36.1017 12.7515 37.1692 13.3624 38.5016C12.4512 40.4919 10.4419 41.8787 8.11401 41.8787C5.78552 41.8787 3.77625 40.4913 2.86499 38.501Z" fill="black"/>
<path d="M25.979 67.2095C29.7241 67.2095 32.8833 64.6582 33.8135 61.2024C33.8354 61.2036 33.8562 61.2054 33.8782 61.2054H34.8157C35.4626 61.2054 35.9875 60.6812 35.9875 60.0336C35.9875 59.3866 35.4626 58.8617 34.8157 58.8617H34.0851C34.0131 56.3452 32.7869 54.0204 30.7538 52.5391C30.1184 50.5066 28.2178 49.0271 25.979 49.0271C23.7396 49.0271 21.839 50.5066 21.2036 52.5397C19.1113 54.0656 17.865 56.5027 17.865 59.0955C17.865 63.5699 21.5045 67.2095 25.979 67.2095ZM21.8774 56.8878C21.3025 57.2278 20.7709 57.6385 20.296 58.1067C20.4443 57.254 20.7837 56.4496 21.2817 55.7495C21.4313 56.1566 21.6327 56.5381 21.8774 56.8878ZM25.979 64.8657C23.6505 64.8657 21.6418 63.479 20.7306 61.4893C21.3403 60.1593 22.4542 59.0881 23.8092 58.5358C24.4659 58.8531 25.202 59.0314 25.979 59.0314C26.7548 59.0314 27.4902 58.8538 28.1464 58.5364C29.5038 59.0894 30.6165 60.1562 31.2268 61.4893C30.3156 63.479 28.3069 64.8657 25.979 64.8657ZM31.6614 58.1024C31.1865 57.6355 30.6555 57.2266 30.0806 56.8866C30.3253 56.5363 30.528 56.1536 30.6775 55.7458C31.1755 56.4441 31.5125 57.2479 31.6614 58.1024ZM25.979 51.3715C27.4445 51.3715 28.6371 52.5635 28.6371 54.0295C28.6371 55.495 27.4445 56.6876 25.979 56.6876C24.5129 56.6876 23.3203 55.495 23.3203 54.0295C23.3203 52.5635 24.5129 51.3715 25.979 51.3715Z" fill="black"/>
<path d="M80 24.3842C80 21.778 78.7573 19.3549 76.6613 17.8271C76.0254 15.7947 74.1253 14.3158 71.886 14.3158C70.1568 14.3158 68.6297 15.1984 67.7313 16.5363C64.1839 12.6428 59.8053 9.53003 54.9725 7.48291C54.5587 6.99524 54.0857 6.55334 53.5571 6.16821C52.9211 4.13574 51.0211 2.65625 48.7817 2.65625C47.077 2.65625 45.5688 3.5144 44.6655 4.82117C43.377 4.68445 42.0709 4.61121 40.7708 4.61121C36.7541 4.61121 32.8058 5.26062 29.035 6.54236C28.4222 6.75049 28.0945 7.41638 28.3026 8.02917C28.4686 8.51685 28.9239 8.82385 29.4122 8.82385C29.5373 8.82385 29.6643 8.80371 29.7894 8.7616C33.3166 7.56287 37.0111 6.95496 40.7708 6.95496C41.5155 6.95496 42.2625 6.98059 43.0066 7.0282C41.5228 8.5321 40.6677 10.5688 40.6677 12.7246C40.6677 16.8066 43.6981 20.1923 47.6263 20.755C47.6166 20.8167 47.6098 20.8789 47.6098 20.9436V21.8811C47.6098 22.5281 48.1347 23.053 48.7817 23.053C49.4287 23.053 49.9536 22.5281 49.9536 21.8811V20.9436C49.9536 20.8789 49.9469 20.8167 49.9371 20.755C53.8653 20.1923 56.8957 16.8066 56.8957 12.7246C56.8957 12.0984 56.8207 11.4832 56.6827 10.8875C57.5854 11.3654 58.4668 11.8842 59.3231 12.4408V27.4554C59.3231 27.558 59.2816 27.6593 59.209 27.7319L57.8076 29.1333C57.2912 29.6497 57.0068 30.3363 57.0068 31.0663V33.4229C57.0068 34.0704 57.5311 34.5947 58.1787 34.5947C58.8257 34.5947 59.3506 34.0704 59.3506 33.4229V31.0663C59.3506 30.9625 59.3908 30.8643 59.4647 30.7904L60.8661 29.389C61.3824 28.8727 61.6668 28.186 61.6668 27.4554V14.1107C63.3496 15.4169 64.9133 16.8781 66.3281 18.4772C64.7125 20 63.7719 22.1368 63.7719 24.3842C63.7719 28.3484 66.6308 31.6559 70.3949 32.3584V33.2019C70.3949 33.8495 70.9192 34.3738 71.5667 34.3738C72.2137 34.3738 72.7386 33.8495 72.7386 33.2019V32.453C73.078 32.417 73.41 32.359 73.7359 32.2827C74.4928 35.1331 74.8773 38.0823 74.8773 41.0614C74.8773 43.6676 74.5752 46.2592 73.9911 48.7811L69.1949 43.985C68.7933 43.5834 68.2849 43.3197 67.7252 43.2233L60.6128 41.9995C60.5328 41.9855 60.4602 41.9482 60.4028 41.8903L59.4647 40.9528C59.3921 40.8801 59.3506 40.7794 59.3506 40.6763V40.0787C59.3506 39.4312 58.8257 38.9069 58.1787 38.9069C57.5311 38.9069 57.0068 39.4312 57.0068 40.0787V40.6763C57.0068 41.4069 57.2912 42.0935 57.8076 42.6099L58.7457 43.548C59.1467 43.9496 59.6551 44.2126 60.2154 44.3091L67.3279 45.5334C67.4078 45.5469 67.4798 45.5847 67.5378 45.6421L73.2788 51.3831C72.6013 53.5223 71.7163 55.5945 70.6274 57.561C70.3143 58.1268 70.5188 58.8403 71.0852 59.1534C71.2652 59.2535 71.4593 59.3005 71.6516 59.3005C72.0642 59.3005 72.464 59.0826 72.6782 58.6963C75.65 53.3295 77.221 47.2314 77.221 41.0614C77.221 37.7856 76.7865 34.5435 75.9295 31.4136C78.3599 30.0104 80 27.3859 80 24.3842ZM53.4802 9.37439C53.9789 10.0726 54.3158 10.8771 54.4641 11.731C53.9898 11.264 53.4588 10.8551 52.8839 10.5151C53.1286 10.1648 53.3307 9.78271 53.4802 9.37439ZM48.7817 5C50.2478 5 51.4398 6.19263 51.4398 7.65808C51.4398 9.12415 50.2478 10.3168 48.7817 10.3168C47.3163 10.3168 46.1236 9.12415 46.1236 7.65808C46.1236 6.19263 47.3163 5 48.7817 5ZM43.1024 11.7126C43.2525 10.8667 43.5895 10.0696 44.0838 9.37622C44.2328 9.78149 44.433 10.1617 44.6765 10.5103C44.1015 10.8466 43.5736 11.2512 43.1024 11.7126ZM48.7817 18.4949C46.4532 18.4949 44.4439 17.1075 43.5333 15.1172C44.1449 13.7732 45.2392 12.7203 46.6119 12.1649C47.2687 12.4823 48.0047 12.6605 48.7817 12.6605C49.5581 12.6605 50.2936 12.4823 50.9497 12.1655C52.3071 12.7179 53.4198 13.7854 54.0301 15.1178C53.1189 17.1082 51.1102 18.4949 48.7817 18.4949ZM77.5659 23.3734C77.0941 22.9114 76.5655 22.5073 75.9906 22.171C76.2341 21.8219 76.4355 21.4404 76.5844 21.0339C77.0794 21.7273 77.4157 22.525 77.5659 23.3734ZM71.886 16.6595C73.3514 16.6595 74.544 17.8522 74.544 19.3176C74.544 20.7837 73.3514 21.9757 71.886 21.9757C70.4205 21.9757 69.2279 20.7837 69.2279 19.3176C69.2279 17.8522 70.4205 16.6595 71.886 16.6595ZM67.1893 21.0388C67.3382 21.4435 67.5384 21.8231 67.7813 22.171C67.2058 22.5079 66.6778 22.9132 66.206 23.3765C66.3568 22.5317 66.6955 21.7334 67.1893 21.0388ZM71.886 30.1544C69.5575 30.1544 67.5482 28.7671 66.6375 26.7767C67.2491 25.4327 68.3441 24.3799 69.7168 23.8245C70.3735 24.1418 71.1096 24.3195 71.886 24.3195C72.6629 24.3195 73.399 24.1418 74.0558 23.8245C75.4278 24.3799 76.5234 25.4327 77.135 26.7767C76.2237 28.7671 74.2144 30.1544 71.886 30.1544Z" fill="black"/>
<path d="M44.5874 58.8617H42.9584C42.3114 58.8617 41.7865 59.3866 41.7865 60.0336C41.7865 60.6812 42.3114 61.2054 42.9584 61.2054H44.5874C45.2344 61.2054 45.7593 60.6812 45.7593 60.0336C45.7593 59.3866 45.2344 58.8617 44.5874 58.8617Z" fill="black"/>
<path d="M38.0731 58.8617C37.4255 58.8617 36.9012 59.3866 36.9012 60.0336C36.9012 60.6812 37.4255 61.2054 38.0731 61.2054H39.7015C40.3485 61.2054 40.8734 60.6812 40.8734 60.0336C40.8734 59.3866 40.3485 58.8617 39.7015 58.8617H38.0731Z" fill="black"/>
<path d="M46.6724 60.0336C46.6724 60.6812 47.1973 61.2054 47.8442 61.2054H48.7817C49.4293 61.2054 49.9536 60.6812 49.9536 60.0336V59.0961C49.9536 58.4491 49.4293 57.9242 48.7817 57.9242C48.208 57.9242 47.7307 58.3368 47.6294 58.8818C47.085 58.9825 46.6724 59.4598 46.6724 60.0336Z" fill="black"/>
<path d="M48.7817 28.6353C49.4293 28.6353 49.9536 28.1104 49.9536 27.4634V25.6024C49.9536 24.9548 49.4293 24.4305 48.7817 24.4305C48.1348 24.4305 47.6099 24.9548 47.6099 25.6024V27.4634C47.6099 28.1104 48.1348 28.6353 48.7817 28.6353Z" fill="black"/>
<path d="M47.6099 44.2102C47.6099 44.8578 48.1348 45.3821 48.7817 45.3821C49.4293 45.3821 49.9536 44.8578 49.9536 44.2102V42.3492C49.9536 41.7023 49.4293 41.1774 48.7817 41.1774C48.1348 41.1774 47.6099 41.7023 47.6099 42.3492V44.2102Z" fill="black"/>
<path d="M47.6099 38.6279C47.6099 39.2749 48.1348 39.7998 48.7817 39.7998C49.4293 39.7998 49.9536 39.2749 49.9536 38.6279V36.767C49.9536 36.1194 49.4293 35.5951 48.7817 35.5951C48.1348 35.5951 47.6099 36.1194 47.6099 36.767V38.6279Z" fill="black"/>
<path d="M47.6099 33.0457C47.6099 33.6926 48.1348 34.2175 48.7817 34.2175C49.4293 34.2175 49.9536 33.6926 49.9536 33.0457V31.1847C49.9536 30.5377 49.4293 30.0128 48.7817 30.0128C48.1348 30.0128 47.6099 30.5377 47.6099 31.1847V33.0457Z" fill="black"/>
<path d="M47.6099 49.7925C47.6099 50.4395 48.1348 50.9644 48.7817 50.9644C49.4293 50.9644 49.9536 50.4395 49.9536 49.7925V47.9315C49.9536 47.2839 49.4293 46.7596 48.7817 46.7596C48.1348 46.7596 47.6099 47.2839 47.6099 47.9315V49.7925Z" fill="black"/>
<path d="M47.6099 55.3748C47.6099 56.0217 48.1348 56.5466 48.7817 56.5466C49.4293 56.5466 49.9536 56.0217 49.9536 55.3748V53.5138C49.9536 52.8668 49.4293 52.3419 48.7817 52.3419C48.1348 52.3419 47.6099 52.8668 47.6099 53.5138V55.3748Z" fill="black"/>
<path d="M65.7239 37.9053C66.3708 37.9053 66.8958 37.381 66.8958 36.7334C66.8958 36.0858 66.3708 35.5615 65.7239 35.5615H63.8489C63.2013 35.5615 62.677 36.0858 62.677 36.7334C62.677 37.381 63.2013 37.9053 63.8489 37.9053H65.7239Z" fill="black"/>
<path d="M58.2239 37.9053H60.0989C60.7458 37.9053 61.2708 37.381 61.2708 36.7334C61.2708 36.0858 60.7458 35.5615 60.0989 35.5615H58.2239C57.5763 35.5615 57.052 36.0858 57.052 36.7334C57.052 37.381 57.5763 37.9053 58.2239 37.9053Z" fill="black"/>
<path d="M54.4739 37.9053C55.1208 37.9053 55.6458 37.381 55.6458 36.7334C55.6458 36.0858 55.1208 35.5615 54.4739 35.5615H52.5989C51.9513 35.5615 51.427 36.0858 51.427 36.7334C51.427 37.381 51.9513 37.9053 52.5989 37.9053H54.4739Z" fill="black"/>
<path d="M71.3489 37.9053C71.9958 37.9053 72.5208 37.381 72.5208 36.7334C72.5208 36.0858 71.9958 35.5615 71.3489 35.5615H69.4739C68.8263 35.5615 68.302 36.0858 68.302 36.7334C68.302 37.381 68.8263 37.9053 69.4739 37.9053H71.3489Z" fill="black"/>
<path d="M28.1805 37.9053C28.8281 37.9053 29.3524 37.381 29.3524 36.7334C29.3524 36.0858 28.8281 35.5615 28.1805 35.5615H26.3055C25.6586 35.5615 25.1337 36.0858 25.1337 36.7334C25.1337 37.381 25.6586 37.9053 26.3055 37.9053H28.1805Z" fill="black"/>
<path d="M39.4305 35.5615H37.5555C36.9086 35.5615 36.3837 36.0858 36.3837 36.7334C36.3837 37.381 36.9086 37.9053 37.5555 37.9053H39.4305C40.0781 37.9053 40.6024 37.381 40.6024 36.7334C40.6024 36.0858 40.0781 35.5615 39.4305 35.5615Z" fill="black"/>
<path d="M22.5555 37.9053C23.2031 37.9053 23.7274 37.381 23.7274 36.7334C23.7274 36.0858 23.2031 35.5615 22.5555 35.5615H20.6805C20.0336 35.5615 19.5087 36.0858 19.5087 36.7334C19.5087 37.381 20.0336 37.9053 20.6805 37.9053H22.5555Z" fill="black"/>
<path d="M33.8055 37.9053C34.4531 37.9053 34.9774 37.381 34.9774 36.7334C34.9774 36.0858 34.4531 35.5615 33.8055 35.5615H31.9305C31.2836 35.5615 30.7587 36.0858 30.7587 36.7334C30.7587 37.381 31.2836 37.9053 31.9305 37.9053H33.8055Z" fill="black"/>
<path d="M43.1805 37.9053H45.0555C45.7031 37.9053 46.2274 37.381 46.2274 36.7334C46.2274 36.0858 45.7031 35.5615 45.0555 35.5615H43.1805C42.5336 35.5615 42.0087 36.0858 42.0087 36.7334C42.0087 37.381 42.5336 37.9053 43.1805 37.9053Z" fill="black"/>
</svg>
