<svg width="80" height="80" viewBox="0 0 80 80" fill="none" xmlns="http://www.w3.org/2000/svg">
<g clip-path="url(#clip0_45_173495)">
<path d="M62.7717 59.2806L62.7565 59.2868C60.6253 60.1578 58.1915 59.1362 57.3206 57.0049L49.4603 37.7709C49.2395 37.2307 49.4984 36.6138 50.0386 36.3932L55.8154 34.0324C56.3556 33.8117 56.9725 34.0706 57.1931 34.6107L65.0534 53.8448C65.9245 55.9759 64.9029 58.4096 62.7717 59.2806Z" fill="#CE3F63"/>
<path d="M65.0505 53.8374L59.5653 40.415L51.8178 43.5396L57.3177 56.9977C58.1903 59.133 60.6287 60.1568 62.7642 59.2841C64.8995 58.4113 65.9231 55.9727 65.0505 53.8374Z" fill="#FF6478"/>
<path d="M45.7531 29.2933C52.7061 29.2933 58.3426 23.6568 58.3426 16.7038C58.3426 9.75078 52.7061 4.11426 45.7531 4.11426C38.8001 4.11426 33.1636 9.75078 33.1636 16.7038C33.1636 23.6568 38.8001 29.2933 45.7531 29.2933Z" fill="#409BFF"/>
<path d="M55.3894 8.77451C55.9863 8.15123 55.9647 7.16217 55.3414 6.56529C54.7181 5.96842 53.7291 5.98998 53.1322 6.61326C52.5355 7.23654 52.5569 8.22561 53.1802 8.82248C53.8036 9.41936 54.7927 9.39779 55.3894 8.77451Z" fill="black"/>
<path d="M58.6433 34.0204C58.3781 33.3715 57.8762 32.8646 57.2298 32.5934C56.5834 32.322 55.8702 32.3187 55.2214 32.5839L53.7498 33.1853L52.1878 29.1765C57.9769 26.1903 61.0195 19.5017 59.322 13.1093C59.1 12.2736 58.242 11.7759 57.4072 11.9981C56.5716 12.22 56.0741 13.0775 56.2958 13.9131C57.6975 19.1909 54.9384 24.7303 49.8784 26.7982C47.1872 27.8982 44.2236 27.8821 41.5345 26.7532C38.8453 25.6243 36.7584 23.5203 35.6586 20.8289C34.5587 18.1375 34.5747 15.1742 35.7036 12.485C36.8325 9.79574 38.9364 7.70886 41.628 6.60902C43.6503 5.7823 45.8475 5.58308 47.9817 6.03277C48.8291 6.21152 49.6583 5.66965 49.8364 4.82355C50.0147 3.97746 49.4733 3.14714 48.6272 2.96902C45.8776 2.3898 43.0481 2.64621 40.4433 3.71074C36.9776 5.12699 34.269 7.81261 32.8164 11.2731C31.3637 14.7334 31.3437 18.5478 32.76 22.0134C34.1762 25.4792 36.862 28.1878 40.3225 29.6404C42.0759 30.3765 43.9197 30.7448 45.7634 30.7446C46.9378 30.7446 48.1119 30.5921 49.2625 30.2931L50.8509 34.37L49.4483 34.9432C48.1089 35.4907 47.4644 37.0257 48.0119 38.365L55.8683 57.5898C56.8636 60.0254 59.4814 61.5106 62.0875 61.0903C64.3472 60.7259 66.2073 59.0104 66.7575 56.7909C67.0486 55.6165 66.9573 54.3651 66.4997 53.2451L58.6433 34.0204ZM55.9366 35.674L57.4728 39.4331L52.6409 41.4148L51.1022 37.6497L55.9366 35.674ZM62.1719 57.8345C60.8523 58.3739 59.3047 57.7211 58.7667 56.4051L53.8252 44.3132L58.6572 42.3315L63.6013 54.4295C64.1459 55.7623 63.5048 57.2898 62.1719 57.8345Z" fill="black"/>
<path d="M12.1798 7.18506C11.3152 7.18506 10.6142 7.886 10.6142 8.75068V14.5912H3.13109V8.75068C3.13109 7.886 2.43016 7.18506 1.56547 7.18506C0.700781 7.18506 0 7.886 0 8.75068V24.089C0 24.9537 0.700938 25.6546 1.56563 25.6546C2.43031 25.6546 3.13125 24.9537 3.13125 24.089V17.7222H10.6144V24.089C10.6144 24.9537 11.3153 25.6546 12.18 25.6546C13.0447 25.6546 13.7456 24.9537 13.7456 24.089V8.75068C13.7455 7.886 13.0445 7.18506 12.1798 7.18506Z" fill="black"/>
<path d="M70.7653 7.18506C65.6733 7.18506 61.5305 11.3277 61.5305 16.4197C61.5305 21.5118 65.6733 25.6544 70.7653 25.6544C75.8573 25.6544 80 21.5118 80 16.4197C80 11.3277 75.8573 7.18506 70.7653 7.18506ZM70.7653 22.5233C67.3997 22.5233 64.6616 19.7854 64.6616 16.4197C64.6616 13.0543 67.3995 10.3162 70.7653 10.3162C74.1308 10.3162 76.8689 13.0541 76.8689 16.4197C76.8689 19.7854 74.1308 22.5233 70.7653 22.5233Z" fill="black"/>
<path d="M28.1725 9.90835C29.0372 9.90835 29.7381 9.20741 29.7381 8.34272C29.7381 7.47804 29.0372 6.7771 28.1725 6.7771H21.3577C20.493 6.7771 19.7921 7.47804 19.7921 8.34272V24.5162C19.7921 25.3808 20.493 26.0818 21.3577 26.0818H28.1725C29.0372 26.0818 29.7381 25.3808 29.7381 24.5162C29.7381 23.6515 29.0372 22.9505 28.1725 22.9505H22.9231V17.9951H27.67C28.5347 17.9951 29.2356 17.2941 29.2356 16.4294C29.2356 15.5648 28.5347 14.8638 27.67 14.8638H22.9231V9.90819H28.1725V9.90835Z" fill="black"/>
<path d="M41.6892 8.85913C40.8247 8.85913 40.1236 9.56007 40.1236 10.4248C40.1236 11.2894 40.8245 11.9904 41.6892 11.9904H44.085V15.9652H41.6892C40.8247 15.9652 40.1236 16.6662 40.1236 17.5309C40.1236 18.3955 40.8245 19.0965 41.6892 19.0965H43.1589L40.6145 21.6407C40.0033 22.2521 40.0033 23.2434 40.6145 23.8548C40.9203 24.1604 41.3209 24.3132 41.7216 24.3132C42.1222 24.3132 42.5228 24.1604 42.8286 23.8548L45.6505 21.0329L48.4725 23.8548C48.7783 24.1604 49.1789 24.3132 49.5795 24.3132C49.9802 24.3132 50.3808 24.1604 50.6866 23.8546C51.298 23.2432 51.298 22.2519 50.6866 21.6405L48.1422 19.0963H49.5795C50.4441 19.0963 51.1452 18.3954 51.1452 17.5307C51.1452 16.666 50.4442 15.9651 49.5795 15.9651H47.2161V11.9904H49.5795C50.4441 11.9904 51.1452 11.2894 51.1452 10.4248C51.1452 9.56007 50.4442 8.85913 49.5795 8.85913H41.6892Z" fill="black"/>
<g clip-path="url(#clip1_45_173495)">
<path d="M27.0538 39.4195L24.6667 34.6453L21.4839 39.4195H19.8925L11.9355 40.2152L4.7742 46.5807L1.5914 56.9248L3.1828 65.6775L12.7312 72.8388L27.0538 74.4302L38.1936 72.8388L43.7634 67.2689L46.9462 60.1076V50.5592L42.1721 44.1937L36.6022 41.0109L27.0538 39.4195Z" fill="#59CF57"/>
<path d="M19.4385 45.6184C18.8982 45.3946 18.2766 45.5184 17.8634 45.9317L12.5055 51.2896H7.32291C6.52471 51.2896 5.87759 51.9367 5.87759 52.7349V58.5162C5.87759 59.3144 6.52471 59.9615 7.32291 59.9615H12.5055L17.8635 65.3195C18.2768 65.7328 18.8984 65.8565 19.4386 65.6327C19.9786 65.409 20.3308 64.882 20.3308 64.2974V46.9537C20.3307 46.3691 19.9785 45.8421 19.4385 45.6184ZM11.6588 57.0709H8.76822V54.1803H11.6588V57.0709ZM17.4401 60.8082L14.5495 57.9175V53.3336L17.4401 50.443V60.8082Z" fill="black"/>
<path d="M24.6667 51.2896C23.8685 51.2896 23.2214 51.9367 23.2214 52.7349V58.5161C23.2214 59.3143 23.8685 59.9614 24.6667 59.9614C25.4649 59.9614 26.112 59.3143 26.112 58.5161V52.7349C26.112 51.9367 25.4649 51.2896 24.6667 51.2896Z" fill="black"/>
<path d="M30.4479 48.3989C29.6497 48.3989 29.0026 49.046 29.0026 49.8442V61.4067C29.0026 62.2049 29.6497 62.8521 30.4479 62.8521C31.2461 62.8521 31.8932 62.2049 31.8932 61.4067V49.8442C31.8932 49.046 31.2461 48.3989 30.4479 48.3989Z" fill="black"/>
<path d="M36.2292 48.3989C35.431 48.3989 34.7839 49.046 34.7839 49.8442V61.4067C34.7839 62.2049 35.431 62.8521 36.2292 62.8521C37.0274 62.8521 37.6745 62.2049 37.6745 61.4067V49.8442C37.6745 49.046 37.0274 48.3989 36.2292 48.3989Z" fill="black"/>
<path d="M42.0104 51.2896C41.2122 51.2896 40.5651 51.9367 40.5651 52.7349V58.5161C40.5651 59.3143 41.2122 59.9614 42.0104 59.9614C42.8086 59.9614 43.4557 59.3143 43.4557 58.5161V52.7349C43.4557 51.9367 42.8086 51.2896 42.0104 51.2896Z" fill="black"/>
<path d="M18.8854 75.4216L30.4479 75.4216C40.8614 75.4216 49.3333 66.9929 49.3333 56.6326C49.3333 46.2723 40.8614 37.8435 30.4479 37.8435L28.4506 37.8435L25.9594 32.8612C25.7145 32.3715 25.2141 32.0622 24.6666 32.0622C24.1192 32.0622 23.6188 32.3715 23.3739 32.8612L20.8827 37.8435L18.8854 37.8435C8.47192 37.8435 -2.41546e-05 46.2723 -2.50603e-05 56.6326C-2.5966e-05 66.9929 8.47192 75.4216 18.8854 75.4216ZM18.8854 40.7341L21.776 40.7341C22.3235 40.7341 22.8239 40.4248 23.0688 39.9352L24.6666 36.7394L26.2645 39.9352C26.5094 40.4248 27.0098 40.7341 27.5573 40.7341L30.4479 40.7341C39.2675 40.7341 46.4427 47.8662 46.4427 56.6326C46.4427 65.399 39.2675 72.531 30.4479 72.531L18.8854 72.531C10.0658 72.531 2.8906 65.399 2.8906 56.6326C2.8906 47.8662 10.0658 40.7341 18.8854 40.7341Z" fill="black"/>
</g>
</g>
<defs>
<clipPath id="clip0_45_173495">
<rect width="80" height="80" fill="white"/>
</clipPath>
<clipPath id="clip1_45_173495">
<rect width="49.3333" height="49.3333" fill="white" transform="translate(0 30.6667)"/>
</clipPath>
</defs>
</svg>
