<svg width="45" height="45" viewBox="0 0 45 45" fill="none" xmlns="http://www.w3.org/2000/svg">
<path d="M29.5312 2.10938V6.32812H35.1562L25.4091 16.0752C22.3897 13.9367 18.6774 13.0099 15.0071 13.4781C11.3369 13.9462 7.97614 15.7754 5.59023 18.6034C3.20432 21.4313 1.96713 25.052 2.12357 28.7487C2.28 32.4454 3.81866 35.9487 6.43496 38.565C9.05126 41.1813 12.5545 42.7199 16.2512 42.8764C19.9479 43.0328 23.5686 41.7956 26.3966 39.4097C29.2246 37.0238 31.0537 33.6631 31.5219 29.9928C31.9901 26.3225 31.0632 22.6103 28.9247 19.5908L38.6718 9.84375V14.7656H42.8906V2.10938H29.5312ZM16.8749 38.6719C14.789 38.6719 12.7498 38.0533 11.0154 36.8944C9.28097 35.7355 7.92915 34.0883 7.13089 32.1611C6.33262 30.2339 6.12375 28.1133 6.53071 26.0674C6.93766 24.0215 7.94215 22.1422 9.41716 20.6672C10.8922 19.1922 12.7714 18.1877 14.8173 17.7808C16.8632 17.3738 18.9839 17.5827 20.911 18.381C22.8382 19.1792 24.4854 20.531 25.6443 22.2655C26.8032 23.9999 27.4218 26.039 27.4218 28.125C27.4217 30.9222 26.3105 33.6047 24.3326 35.5826C22.3547 37.5605 19.6721 38.6718 16.8749 38.6719Z" fill="#A3D4F7"/>
</svg>
