<svg width="240" height="58" viewBox="0 0 240 58" fill="none" xmlns="http://www.w3.org/2000/svg">
<path d="M75.056 21.032C77.552 21.032 79.664 21.96 81.392 23.816L79.712 25.376C78.448 24.112 76.896 23.48 75.056 23.48C73.376 23.48 71.96 24.064 70.808 25.232C69.672 26.384 69.104 27.84 69.104 29.6C69.104 31.376 69.672 32.84 70.808 33.992C71.96 35.144 73.376 35.72 75.056 35.72C76.928 35.72 78.48 35.088 79.712 33.824L81.392 35.384C79.664 37.24 77.552 38.168 75.056 38.168C72.688 38.168 70.672 37.336 69.008 35.672C67.344 33.992 66.512 31.968 66.512 29.6C66.512 27.232 67.344 25.216 69.008 23.552C70.672 21.872 72.688 21.032 75.056 21.032ZM86.7268 23.552C88.3908 21.872 90.4068 21.032 92.7748 21.032C95.1428 21.032 97.1588 21.872 98.8228 23.552C100.503 25.216 101.343 27.232 101.343 29.6C101.343 31.968 100.503 33.992 98.8228 35.672C97.1588 37.336 95.1428 38.168 92.7748 38.168C90.4068 38.168 88.3908 37.336 86.7268 35.672C85.0628 33.992 84.2308 31.968 84.2308 29.6C84.2308 27.232 85.0628 25.216 86.7268 23.552ZM97.0228 25.232C95.8708 24.064 94.4548 23.48 92.7748 23.48C91.0948 23.48 89.6788 24.064 88.5268 25.232C87.3908 26.384 86.8228 27.84 86.8228 29.6C86.8228 31.376 87.3908 32.84 88.5268 33.992C89.6788 35.144 91.0948 35.72 92.7748 35.72C94.4548 35.72 95.8708 35.144 97.0228 33.992C98.1748 32.84 98.7508 31.376 98.7508 29.6C98.7508 27.84 98.1748 26.384 97.0228 25.232ZM118.235 38H116.723L107.843 26.144V38H105.251V21.2H106.763L115.643 33.056V21.2H118.235V38ZM125.825 28.304H133.577V30.752H125.825V38H123.233V21.2H134.153V23.648H125.825V28.304ZM142.653 35.552H144.645V38H138.069V35.552H140.061V23.648H138.069V21.2H144.645V23.648H142.653V35.552ZM149.882 21.2H155.45C157.85 21.2 159.874 21.992 161.522 23.576C163.17 25.16 163.994 27.168 163.994 29.6C163.994 32.032 163.17 34.04 161.522 35.624C159.874 37.208 157.85 38 155.45 38H149.882V21.2ZM152.474 35.552H155.45C157.162 35.552 158.578 35.024 159.698 33.968C160.834 32.896 161.402 31.44 161.402 29.6C161.402 27.776 160.834 26.328 159.698 25.256C158.578 24.184 157.162 23.648 155.45 23.648H152.474V35.552ZM170.708 28.304H178.46V30.752H170.708V35.552H179.036V38H168.116V21.2H179.036V23.648H170.708V28.304ZM193.632 38H182.952V21.2H185.544V35.552H193.632V38ZM201.88 35.552H203.872V38H197.296V35.552H199.288V23.648H197.296V21.2H203.872V23.648H201.88V35.552ZM221.852 38H220.34L211.46 26.144V38H208.868V21.2H210.38L219.26 33.056V21.2H221.852V38ZM229.442 28.304H237.194V30.752H229.442V35.552H237.77V38H226.85V21.2H237.77V23.648H229.442V28.304Z" fill="black"/>
<path fill-rule="evenodd" clip-rule="evenodd" d="M8.6796 18.9926C11.0354 15.3022 14.2137 12.4194 18.4181 11.2018C26.7269 8.79549 27.6448 15.8531 31.4879 15.9628C35.7761 16.0852 35.3833 9.25407 44.9697 12.2099C48.6728 14.41 52.4382 19.0255 53.4536 23.2126C54.4888 27.4812 53.5749 31.5793 51.9387 35.6562C50.2842 39.7792 45.1172 43.0408 41.3798 45.4415C37.4937 47.9376 33.519 51.0217 28.915 50.6675C24.2835 50.3111 20.9163 46.516 17.3092 43.5893C13.5243 40.5184 10.7125 37.8203 8.67961 33.2757C6.67581 28.796 6.03865 23.1295 8.6796 18.9926Z" fill="url(#paint0_linear_215_2)"/>
<defs>
<linearGradient id="paint0_linear_215_2" x1="-1.62964" y1="31.2773" x2="53.9162" y2="23.7864" gradientUnits="userSpaceOnUse">
<stop stop-color="#A306B5"/>
<stop offset="1" stop-color="#F17AFF"/>
</linearGradient>
</defs>
</svg>
